<!-- Generator: Adobe Illustrator 19.1.0, SVG Export Plug-In  -->
<svg version="1.1"
	 xmlns="http://www.w3.org/2000/svg" xmlns:xlink="http://www.w3.org/1999/xlink" xmlns:a="http://ns.adobe.com/AdobeSVGViewerExtensions/3.0/"
	 x="0px" y="0px" width="225.9px" height="225.9px" viewBox="0 0 225.9 225.9" enable-background="new 0 0 225.9 225.9"
	 xml:space="preserve">
<defs>
</defs>
<rect fill="#D71921" width="225.9" height="225.9"/>
<g opacity="0.75">
	<path fill="#FFFFFF" d="M216.2,216.2H9.7V9.7h206.5V216.2z M11.7,214.2h202.5V11.7H11.7V214.2z"/>
</g>
<g id="KdhjS9_1_">
	<g>
		<g>
			<path fill="#FFFFFF" d="M84.4,65.8c-3.7,0-7.4,0-11,0c-3.8,0-5.9-1.7-5.9-5.7c0-0.7,0-1.4,0-2.1c-0.1-9.1,0.4-9.6,9.4-9.6
				c6.1,0,12.3,0.1,18.4,0c4.3-0.1,6.6,1.7,6.5,6.2c-0.1,1.6-0.1,3.2,0,4.7c0.2,4.8-2.1,6.7-6.7,6.5C91.4,65.7,87.9,65.8,84.4,65.8z
				"/>
			<path fill="#3B4552" d="M95.5,67.3c-0.2,0-0.4,0-0.6,0c-2.3-0.1-4.8-0.1-7.1,0c-1.1,0-2.2,0-3.4,0l-2.9,0c-2.7,0-5.4,0-8.1,0
				c0,0-0.1,0-0.1,0c-2.4,0-4.2-0.6-5.5-1.9c-1.2-1.2-1.8-3-1.8-5.3c0-0.5,0-0.9,0-1.4l0-0.6c0-4.6,0-7.6,1.7-9.3
				c1.7-1.7,4.6-1.8,9.1-1.8c2,0,4,0,6,0c4.1,0,8.2,0,12.3,0c2.8,0,4.8,0.6,6.2,2c1.3,1.3,1.9,3.3,1.8,5.8c-0.1,1.7-0.1,3.2,0,4.6
				c0.1,2.7-0.5,4.7-1.8,6.1C100,66.6,98.1,67.3,95.5,67.3z M90.8,64.2c1.4,0,2.8,0,4.2,0.1c2,0.1,3.4-0.3,4.2-1.1
				c0.7-0.7,1.1-2,1-3.8c-0.1-1.5-0.1-3.1,0-4.9c0.1-1.7-0.3-2.9-0.9-3.6c-0.7-0.8-2.1-1.2-4-1.1c-4.1,0.1-8.3,0.1-12.4,0
				c-2,0-4,0-6,0c-3.6,0-6.1,0.1-7,0.9c-0.9,0.9-0.9,3.5-0.9,7.2l0,0.6c0,0.5,0,1,0,1.5c0,1.5,0.3,2.5,0.9,3.2c0.7,0.7,1.8,1,3.4,1
				c2.7,0,5.4,0,8.2,0l2.9,0c1.1,0,2.2,0,3.3,0C88.7,64.2,89.8,64.2,90.8,64.2z"/>
		</g>
		<g>
			<path fill="#FFFFFF" d="M122.6,48.4c3.9,0,7.7,0,11.6,0c3.4,0,5.2,1.7,5.3,5.2c0,1.2,0,2.5,0,3.7c0,7.8-0.6,8.5-8.4,8.5
				c-6.3,0-12.6-0.1-18.9,0c-4.9,0.1-7.3-1.8-6.9-6.8c0.1-1.6,0-3.2,0-4.7c-0.1-3.9,1.8-5.9,5.7-5.8
				C114.9,48.4,118.7,48.4,122.6,48.4z"/>
			<path fill="#3B4552" d="M111.7,67.3c-2.8,0-4.8-0.7-6.2-2.1c-1.4-1.4-2-3.5-1.8-6.3c0.1-1.2,0.1-2.5,0-3.8l0-0.8
				c0-2.4,0.6-4.2,1.8-5.5c1.2-1.2,3-1.9,5.4-1.9c2.4,0,4.8,0,7.3,0c1.4,0,2.9,0,4.3,0c1.3,0,2.7,0,4,0c2.5,0,5,0,7.6,0
				c4.2,0,6.7,2.5,6.8,6.6c0,1.2,0,2.5,0,3.7c0,8.7-1.3,10-9.9,10c-2.2,0-4.4,0-6.6,0c-4,0-8.2-0.1-12.3,0.1
				C112.1,67.3,111.9,67.3,111.7,67.3z M111,49.9c-1.5,0-2.5,0.3-3.2,1c-0.7,0.7-1,1.8-1,3.4l0,0.8c0,1.3,0,2.7,0,4
				c-0.1,1.9,0.2,3.3,1,4.1c0.8,0.8,2.3,1.2,4.4,1.2c4.1-0.1,8.3-0.1,12.4-0.1c2.2,0,4.4,0,6.6,0c6.9,0,6.9,0,6.9-7
				c0-1.2,0-2.4,0-3.6c-0.1-2.6-1.2-3.7-3.8-3.7c-2.5,0-5,0-7.5,0c-1.3,0-2.7,0-4,0c-1.4,0-2.9,0-4.3,0
				C115.9,49.9,113.4,49.9,111,49.9C111,49.9,111,49.9,111,49.9z"/>
		</g>
		<g>
			<path fill="#FFFFFF" d="M105.6,69.4c3.9,0,7.7,0,11.6,0c3.7,0,5.5,1.9,5.5,5.6c0,1.9,0,3.9,0,5.8c0.1,4.2-2,6.1-6.1,6
				c-7.4-0.1-14.7-0.1-22.1,0c-4.2,0-6.1-2-6-6.1c0-1.8,0-3.5,0-5.3c-0.1-4.2,2-6.1,6.1-6C98.2,69.5,101.9,69.4,105.6,69.4z"/>
			<path fill="#3B4552" d="M116.7,88.3c0,0-0.1,0-0.1,0c-7.1-0.1-14.5-0.1-22.1,0c0,0-0.1,0-0.1,0c-2.5,0-4.3-0.7-5.6-1.9
				c-1.3-1.3-1.9-3.2-1.8-5.7c0-1.7,0-3.4,0-5.2c-0.1-2.5,0.6-4.4,1.8-5.6c1.3-1.3,3.2-1.9,5.8-1.9c2.4,0,4.9,0,7.3,0
				c1.2,0,2.5,0,3.7,0l4.7,0c2.3,0,4.6,0,6.9,0c4.5,0,7,2.5,7,7.1l0,1.7c0,1.4,0,2.7,0,4.1c0.1,2.4-0.6,4.3-1.8,5.6
				C121.1,87.7,119.2,88.3,116.7,88.3z M105.5,85.3c3.8,0,7.5,0,11.1,0c1.7,0,2.9-0.3,3.6-1c0.7-0.7,1-1.8,1-3.4c0-1.4,0-2.8,0-4.2
				l0-1.7c0-2.9-1.2-4-4-4.1c-2.3,0-4.6,0-6.9,0l-4.7,0c-1.2,0-2.5,0-3.7,0c-2.4,0-4.9,0-7.4,0c-1.7-0.1-2.9,0.3-3.6,1
				c-0.7,0.7-1,1.9-1,3.5c0,1.8,0,3.6,0,5.3c0,1.6,0.3,2.8,1,3.5c0.7,0.7,1.9,1,3.5,1C98.2,85.3,101.8,85.3,105.5,85.3z"/>
		</g>
		<g>
			<path fill="#FFFFFF" d="M143.4,86.8c-3.7,0-7.4,0-11,0c-4.2,0.1-6.1-2-6-6.1c0.1-1.8,0-3.5,0-5.3c-0.1-4.2,2-6,6.1-6
				c7.4,0.1,14.7,0.1,22.1,0c4.2,0,6.1,2,6,6.1c-0.1,1.8,0,3.5,0,5.3c0.1,4.2-2,6.1-6.1,6C150.7,86.7,147,86.8,143.4,86.8z"/>
			<path fill="#3B4552" d="M154.7,88.3c-0.1,0-0.2,0-0.3,0c-2.5,0-5.1,0-7.5,0c-1.2,0-2.3,0-3.5,0l0,0c-1.1,0-2.1,0-3.2,0
				c-2.6,0-5.2,0-7.8,0c-2.5,0-4.4-0.6-5.7-1.9c-1.3-1.3-1.9-3.3-1.8-5.8c0-1.6,0-3.3,0-5.2c-0.1-2.4,0.6-4.3,1.8-5.6
				c1.3-1.3,3.2-1.9,5.7-1.9c0,0,0.1,0,0.1,0c6.9,0.1,14.2,0.1,22.1,0c0,0,0.1,0,0.1,0c2.4,0,4.3,0.7,5.6,1.9
				c1.3,1.3,1.9,3.2,1.8,5.8c0,1.6,0,3.3,0,5.2c0.1,2.4-0.6,4.3-1.8,5.6C159,87.7,157.1,88.3,154.7,88.3z M150.1,85.3
				c1.4,0,2.9,0,4.3,0c1.7,0,2.9-0.3,3.6-1c0.7-0.7,1-1.8,1-3.4c0-1.9,0-3.7,0-5.3c0-1.7-0.3-2.9-1-3.6c-0.7-0.7-1.9-1-3.5-1
				c-7.9,0.1-15.2,0.1-22.1,0c-1.7,0-3,0.3-3.7,1.1c-0.7,0.7-1,1.8-1,3.4c0,1.9,0,3.7,0,5.3c0,1.7,0.3,2.9,1,3.6
				c0.7,0.7,1.8,1,3.5,1c2.6,0,5.3,0,7.9,0c1.1,0,2.3,0,3.4,0c1.1,0,2.2,0,3.3,0C147.9,85.3,149,85.3,150.1,85.3z"/>
		</g>
		<g>
			<path fill="#FFFFFF" d="M84.5,107.8c-3.9,0-7.7,0-11.6,0c-3.7,0-5.5-1.9-5.5-5.6c0-1.9,0-3.9,0-5.8c-0.1-4.2,2-6.1,6.1-6
				c7.4,0.1,14.7,0.1,22.1,0c4.2,0,6.1,2,6,6.1c0,1.8,0,3.5,0,5.3c0.1,4.2-2,6.1-6.1,6C91.8,107.8,88.1,107.8,84.5,107.8z"/>
			<path fill="#3B4552" d="M95.7,109.4c-0.1,0-0.2,0-0.3,0c-2.4,0-4.9,0-7.4,0c-1.2,0-2.4,0-3.7,0l0,0c-1.6,0-3.2,0-4.9,0
				c-2.2,0-4.5,0-6.7,0c-4.5,0-7-2.5-7-7.1l0-1.7c0-1.3,0-2.7,0-4c-0.1-2.4,0.6-4.3,1.8-5.6c1.3-1.3,3.3-2,5.8-1.9
				c7,0.1,14.4,0.1,22.1,0c0,0,0.1,0,0.1,0c2.4,0,4.3,0.7,5.6,1.9c1.3,1.3,1.9,3.2,1.8,5.7c0,1.6,0,3.4,0,5.2
				c0.1,2.5-0.6,4.4-1.8,5.6C100,108.7,98.2,109.4,95.7,109.4z M91.1,106.3c1.5,0,3,0,4.4,0c1.7,0,2.9-0.3,3.6-1
				c0.7-0.7,1-1.8,1-3.5c0-1.8,0-3.6,0-5.3c0-1.6-0.3-2.8-1-3.5c-0.7-0.7-1.8-1-3.4-1c0,0-0.1,0-0.1,0C88,92,80.5,92,73.5,92
				c-1.7,0-2.9,0.3-3.6,1c-0.7,0.7-1,1.8-1,3.4c0,1.4,0,2.7,0,4.1l0,1.7c0,2.9,1.2,4,4,4.1c2.2,0,4.5,0,6.7,0c1.6,0,3.2,0,4.9,0
				c1.2,0,2.4,0,3.7,0C89.1,106.3,90.1,106.3,91.1,106.3z"/>
		</g>
		<g>
			<path fill="#FFFFFF" d="M122.3,107.8c-3.7,0-7.4,0-11,0c-4.2,0.1-6.1-2-6-6.1c0-1.8,0-3.5,0-5.3c-0.1-4.2,2-6,6.1-6
				c7.4,0.1,14.7,0.1,22.1,0c4.2,0,6.1,2,6,6.1c0,1.8,0,3.5,0,5.3c0.1,4.2-2,6.1-6.1,6C129.7,107.8,126,107.8,122.3,107.8z"/>
			<path fill="#3B4552" d="M133.6,109.4c-0.1,0-0.2,0-0.3,0c-2.5,0-5.1,0-7.5,0c-1.2,0-2.3,0-3.5,0c-1.1,0-2.2,0-3.3,0
				c-2.5,0-5.1,0-7.7,0c-2.5,0-4.4-0.6-5.7-1.9c-1.3-1.3-1.9-3.2-1.8-5.8c0-1.6,0-3.4,0-5.2c-0.1-2.4,0.6-4.3,1.8-5.6
				c1.3-1.3,3.3-2,5.8-1.9c7.1,0.1,14.3,0.1,22.1,0c2.5,0,4.4,0.6,5.7,1.9c1.3,1.3,1.9,3.2,1.8,5.7c0,1.7,0,3.4,0,5.2
				c0.1,2.5-0.6,4.3-1.8,5.6C137.9,108.7,136,109.4,133.6,109.4z M129.1,106.3c1.4,0,2.9,0,4.3,0c1.7,0,2.9-0.3,3.6-1
				c0.7-0.7,1-1.8,1-3.4c0-1.8,0-3.6,0-5.3c0-1.7-0.3-2.8-1-3.5c-0.7-0.7-1.8-1-3.4-1c0,0-0.1,0-0.1,0c-7.8,0.1-15,0.1-22.1,0
				c-1.7,0-3,0.3-3.7,1.1c-0.7,0.7-1,1.8-1,3.4c0,1.9,0,3.6,0,5.3c0,1.7,0.3,2.9,1,3.6c0.7,0.7,1.8,1,3.5,1c2.6,0,5.2,0,7.7,0
				c1.1,0,2.2,0,3.3,0h0c1.2,0,2.3,0,3.5,0C126.9,106.3,128,106.3,129.1,106.3z"/>
		</g>
		<g>
			<path fill="#FFFFFF" d="M105.2,128.9c-3.7,0-7.4,0-11,0c-3.9,0-5.8-2-5.7-5.8c0-1.4,0-2.8,0-4.2c0.1-6.4,1-7.3,7.4-7.3
				c6.8-0.1,13.7,0.1,20.5,0c4.5-0.1,6.4,2,6.3,6.4c-0.1,1.9,0,3.9-0.1,5.8c-0.1,3.4-1.9,5.1-5.3,5.2
				C113.3,128.9,109.3,128.9,105.2,128.9z"/>
			<path fill="#3B4552" d="M94.1,130.4c-2.3,0-4.1-0.6-5.3-1.9c-1.3-1.3-1.9-3.1-1.8-5.5c0-0.7,0-1.3,0-2c0-0.7,0-1.5,0-2.2
				c0.1-7.2,1.6-8.7,8.9-8.8c3.1,0,6.1,0,9.2,0c3.7,0,7.6,0,11.3,0c2.7,0,4.6,0.6,6,2c1.3,1.4,1.9,3.3,1.8,6c0,1.1,0,2.2,0,3.2
				c0,0.8,0,1.7,0,2.5c-0.1,4.2-2.6,6.6-6.8,6.6c-2.6,0-5.3,0-7.9,0c-1.4,0-2.8,0-4.2,0l0,0c-1.4,0-2.7,0-4.1,0
				C98.8,130.4,96.5,130.4,94.1,130.4C94.2,130.4,94.1,130.4,94.1,130.4z M100,113c-1.4,0-2.7,0-4.1,0c-5.6,0-5.8,0.3-5.9,5.8
				c0,0.7,0,1.4,0,2.1c0,0.7,0,1.4,0,2.1c0,1.6,0.3,2.7,1,3.3c0.7,0.7,1.8,1,3.3,1c2.3,0,4.6,0,7,0c1.4,0,2.7,0,4.1,0l0,0
				c1.4,0,2.8,0,4.2,0c2.6,0,5.3,0,7.9,0c2.6,0,3.7-1.1,3.8-3.7c0-0.8,0-1.6,0-2.5c0-1.1,0-2.2,0-3.4c0.1-1.8-0.3-3-1-3.8
				c-0.7-0.7-2-1.1-3.8-1.1c-3.8,0.1-7.7,0-11.4,0C103.4,113,101.7,113,100,113z"/>
		</g>
		<g>
			<path fill="#FFFFFF" d="M143.7,128.9c-4,0-8.1,0-12.1,0c-3.4,0-5.2-1.8-5.2-5.2c0-1.4,0-2.8,0-4.2c0.1-7.1,0.8-7.9,7.9-7.9
				c6.7,0,13.3,0.1,20,0c4.4-0.1,6.5,1.9,6.3,6.3c-0.1,1.9,0,3.9,0,5.8c-0.1,3.4-1.8,5.2-5.2,5.2
				C151.4,128.9,147.6,128.9,143.7,128.9z"/>
			<path fill="#3B4552" d="M136.4,130.4c-1.6,0-3.2,0-4.8,0c-4.2,0-6.6-2.5-6.7-6.7c0-1.5,0-2.9,0-4.3c0.1-7.9,1.5-9.3,9.4-9.4
				c2.7,0,5.5,0,8.2,0c3.9,0,7.9,0,11.8,0c2.7,0,4.7,0.6,6,2c1.3,1.3,1.9,3.3,1.8,5.9c0,1.1,0,2.2,0,3.2c0,0.8,0,1.7,0,2.5
				c-0.1,4.2-2.5,6.6-6.7,6.7c-2.7,0-5.4,0-8.1,0l-3.5,0l-3.6,0C138.9,130.4,137.6,130.4,136.4,130.4z M137.3,113c-1,0-2,0-3.1,0
				c-6.3,0-6.4,0.1-6.4,6.4c0,1.3,0,2.7,0,4.2c0.1,2.6,1.2,3.7,3.7,3.8c2.8,0,5.7,0,8.5,0l3.6,0l3.5,0c2.7,0,5.4,0,8,0
				c2.6,0,3.7-1.2,3.7-3.8c0-0.8,0-1.6,0-2.5c0-1.1,0-2.2,0-3.3c0.1-1.7-0.3-3-1-3.7c-0.7-0.7-2-1.1-3.8-1.1c-4,0.1-8,0-11.8,0
				C140.7,113,139,113,137.3,113z"/>
		</g>
		<g>
			<path fill="#FFFFFF" d="M151.5,65.8c-7.8,0-8.4-0.7-8.4-9c0-7.8,0.7-8.4,9-8.4c7.8,0,8.4,0.7,8.4,9
				C160.5,65.2,159.9,65.8,151.5,65.8z"/>
			<path fill="#3B4552" d="M151.9,67.3c-0.1,0-0.2,0-0.3,0l0,0c-8.6,0-9.9-1.4-9.8-10.5c0-8.6,1.4-9.9,10.5-9.8
				c3.9,0,6.6,0.2,8.2,1.9c1.6,1.7,1.7,4.4,1.6,8.7C162,65.9,160.7,67.3,151.9,67.3z M151.5,64.3c7.5,0,7.5,0,7.5-6.9
				c0-3.8-0.1-5.8-0.8-6.6c-0.7-0.8-2.6-0.9-6-0.9c-7.5,0-7.5,0-7.5,6.9C144.6,64.2,144.6,64.2,151.5,64.3L151.5,64.3z"/>
		</g>
		<g>
			<path fill="#FFFFFF" d="M84.8,78.1c0,8-0.6,8.7-8.7,8.7c-8,0-8.7-0.6-8.7-8.7c0-8,0.6-8.7,8.7-8.7C84.2,69.4,84.8,70.1,84.8,78.1
				z"/>
			<path fill="#3B4552" d="M76.1,88.3C76.1,88.3,76.1,88.3,76.1,88.3c-8.9,0-10.2-1.3-10.2-10.2c0-8.8,1.3-10.2,10.2-10.2
				c0,0,0,0,0,0c8.8,0,10.2,1.3,10.2,10.2l0,0C86.3,87,85,88.3,76.1,88.3z M75.8,70.9c-6.9,0-6.9,0.1-6.9,7.2c0,7.2,0,7.2,7.2,7.2
				c0.1,0,0.2,0,0.2,0c7,0,7-0.1,7-7.2c0-7.2,0-7.2-7.2-7.2C76,70.9,75.9,70.9,75.8,70.9z"/>
		</g>
		<g>
			<path fill="#FFFFFF" d="M143.2,98.7c0-7.6,0.7-8.3,9.2-8.2c7.6,0,8.3,0.7,8.2,9.2c0,7.6-0.7,8.3-9.2,8.2
				C143.7,107.8,143.1,107.1,143.2,98.7z"/>
			<path fill="#3B4552" d="M151.9,109.4c-0.2,0-0.3,0-0.5,0c-8.5,0-9.8-1.4-9.7-10.7l0,0c0-8.5,1.4-9.7,10.7-9.7
				c8.5,0,9.8,1.4,9.7,10.7C162,108,160.7,109.4,151.9,109.4z M144.7,98.7c0,7.6,0,7.6,6.7,7.7c7.6,0,7.6,0,7.7-6.7
				c0-7.6,0-7.6-6.7-7.7C144.7,91.9,144.7,91.9,144.7,98.7L144.7,98.7z"/>
		</g>
		<g>
			<path fill="#FFFFFF" d="M84.8,120.3c0,8-0.6,8.6-8.8,8.6c-8,0-8.6-0.6-8.6-8.8c0-8,0.6-8.6,8.8-8.6
				C84.2,111.5,84.8,112.2,84.8,120.3z"/>
			<path fill="#3B4552" d="M76.1,130.4c0,0-0.1,0-0.1,0c-8.8,0-10.1-1.4-10.1-10.3c0-4.1,0.1-6.7,1.8-8.4c1.7-1.6,4.3-1.7,8.5-1.7
				c8.8,0,10.1,1.4,10.1,10.3l0,0C86.3,129.1,84.9,130.4,76.1,130.4z M76,113c-3.6,0-5.5,0.1-6.2,0.9c-0.7,0.7-0.9,2.7-0.9,6.2
				c0,7.3,0,7.3,7.1,7.3c7.3,0,7.3,0,7.3-7.1c0-7.3,0-7.3-7.1-7.3C76.2,113,76.1,113,76,113z"/>
		</g>
	</g>
</g>
<g>
	<path fill="#FFFFFF" d="M32.7,166.2v-15.8h3.7v6H39v-6h3.7v15.8H39v-6.6h-2.6v6.6H32.7z"/>
	<path fill="#FFFFFF" d="M44.8,153.3v-2.8h3.3v2.8H44.8z M44.8,166.2v-11.8h3.3v11.8H44.8z"/>
	<path fill="#FFFFFF" d="M55.8,166.2v-1.4h0c-0.3,0.6-0.7,1-1.2,1.3c-0.5,0.3-0.9,0.4-1.4,0.4c-0.6,0-1.1-0.2-1.5-0.4
		c-0.4-0.3-0.7-0.6-0.9-1c-0.2-0.4-0.4-0.9-0.4-1.4c-0.1-0.5-0.1-1-0.1-1.5v-4.1c0-0.5,0-0.9,0.1-1.4s0.2-0.9,0.5-1.3s0.5-0.7,0.9-1
		c0.4-0.2,0.8-0.4,1.4-0.4c0.4,0,0.9,0.1,1.3,0.3c0.4,0.2,0.8,0.6,1.1,1.1h0v-5.1h3.3v15.8H55.8z M53.6,162c0,0.2,0,0.4,0,0.6
		c0,0.2,0,0.4,0.1,0.6c0.1,0.2,0.2,0.3,0.3,0.5c0.1,0.1,0.3,0.2,0.6,0.2c0.4,0,0.7-0.2,0.9-0.6c0.1-0.4,0.2-0.9,0.2-1.4V159
		c0-0.3,0-0.5,0-0.8c0-0.3-0.1-0.5-0.1-0.7s-0.2-0.4-0.3-0.5s-0.3-0.2-0.5-0.2c-0.3,0-0.5,0.1-0.6,0.2c-0.1,0.1-0.2,0.3-0.3,0.5
		c-0.1,0.2-0.1,0.4-0.1,0.7c0,0.2,0,0.5,0,0.6V162z"/>
	<path fill="#FFFFFF" d="M61.1,153.3v-2.8h3.3v2.8H61.1z M61.1,166.2v-11.8h3.3v11.8H61.1z"/>
	<path fill="#FFFFFF" d="M69.8,154.4v1.5h0c0.1-0.2,0.2-0.4,0.4-0.7c0.2-0.2,0.3-0.4,0.5-0.6s0.4-0.3,0.7-0.4
		c0.2-0.1,0.5-0.2,0.8-0.2c0.4,0,0.8,0.1,1.1,0.2c0.4,0.1,0.7,0.3,1,0.5c0.3,0.2,0.5,0.5,0.7,0.8s0.2,0.7,0.2,1v9.6h-3.3v-8.4
		c0-0.3-0.1-0.5-0.2-0.7c-0.1-0.2-0.3-0.3-0.7-0.3c-0.6,0-0.9,0.3-0.9,1v8.4h-3.3v-11.8H69.8z"/>
	<path fill="#FFFFFF" d="M80.3,166.9c0,0.2,0,0.4,0,0.5c0,0.1,0.1,0.3,0.1,0.4c0.1,0.1,0.2,0.2,0.3,0.2c0.1,0,0.3,0,0.6,0
		c0.3,0,0.6-0.1,0.8-0.2c0.2-0.1,0.2-0.4,0.3-0.7v-2.4h0c-0.3,0.4-0.7,0.7-1.1,0.9c-0.4,0.2-0.8,0.3-1.3,0.3c-0.5,0-1-0.1-1.4-0.3
		s-0.7-0.5-0.9-0.9c-0.2-0.3-0.4-0.7-0.5-1.2s-0.2-0.9-0.2-1.3v-4.1c0-0.5,0-0.9,0.1-1.4c0.1-0.5,0.2-0.9,0.5-1.3
		c0.2-0.4,0.5-0.7,0.9-1c0.4-0.2,0.8-0.4,1.4-0.4c0.6,0,1.1,0.2,1.6,0.5s0.8,0.7,1.1,1.3h0v-1.4h3.1v12c0,0.7-0.1,1.3-0.3,1.7
		c-0.2,0.5-0.5,0.9-1,1.2c-0.4,0.3-0.9,0.5-1.4,0.6s-1.1,0.2-1.8,0.2s-1.2,0-1.7-0.1c-0.5-0.1-1-0.3-1.3-0.5c-0.4-0.2-0.7-0.6-0.9-1
		c-0.2-0.4-0.3-1-0.3-1.7H80.3z M80.4,161.9c0,0.3,0.1,0.6,0.2,0.9c0.1,0.3,0.4,0.4,0.8,0.4c0.2,0,0.4,0,0.5-0.1
		c0.1-0.1,0.2-0.2,0.3-0.4c0.1-0.1,0.1-0.3,0.1-0.5c0-0.2,0-0.4,0-0.5v-3.2c0-0.4-0.1-0.8-0.2-1.1c-0.1-0.3-0.4-0.5-0.9-0.5
		c-0.2,0-0.4,0.1-0.5,0.2s-0.2,0.3-0.3,0.5c-0.1,0.2-0.1,0.4-0.1,0.6c0,0.2,0,0.4,0,0.5V161.9z"/>
	<path fill="#FFFFFF" d="M92.1,166.2l3.4-15.8h4.5l3.4,15.8h-3.7l-0.5-3.1h-2.9l-0.4,3.1H92.1z M97.8,153.3L97.8,153.3l-1.1,7.1h2.1
		L97.8,153.3z"/>
	<path fill="#FFFFFF" d="M110.1,166.2v-1.4h0c-0.3,0.6-0.7,1-1.2,1.3c-0.5,0.3-0.9,0.4-1.4,0.4c-0.6,0-1.1-0.2-1.5-0.4
		c-0.4-0.3-0.7-0.6-0.9-1c-0.2-0.4-0.4-0.9-0.4-1.4c-0.1-0.5-0.1-1-0.1-1.5v-4.1c0-0.5,0-0.9,0.1-1.4s0.2-0.9,0.5-1.3s0.5-0.7,0.9-1
		c0.4-0.2,0.8-0.4,1.4-0.4c0.4,0,0.9,0.1,1.3,0.3c0.4,0.2,0.8,0.6,1.1,1.1h0v-5.1h3.3v15.8H110.1z M107.8,162c0,0.2,0,0.4,0,0.6
		c0,0.2,0,0.4,0.1,0.6c0.1,0.2,0.2,0.3,0.3,0.5c0.1,0.1,0.3,0.2,0.6,0.2c0.4,0,0.7-0.2,0.9-0.6c0.1-0.4,0.2-0.9,0.2-1.4V159
		c0-0.3,0-0.5,0-0.8c0-0.3-0.1-0.5-0.1-0.7s-0.2-0.4-0.3-0.5s-0.3-0.2-0.5-0.2c-0.3,0-0.5,0.1-0.6,0.2c-0.1,0.1-0.2,0.3-0.3,0.5
		c-0.1,0.2-0.1,0.4-0.1,0.7c0,0.2,0,0.5,0,0.6V162z"/>
	<path fill="#FFFFFF" d="M120.6,166.2v-1.4h0c-0.3,0.6-0.7,1-1.2,1.3c-0.5,0.3-0.9,0.4-1.4,0.4c-0.6,0-1.1-0.2-1.5-0.4
		c-0.4-0.3-0.7-0.6-0.9-1c-0.2-0.4-0.4-0.9-0.4-1.4c-0.1-0.5-0.1-1-0.1-1.5v-4.1c0-0.5,0-0.9,0.1-1.4s0.2-0.9,0.5-1.3s0.5-0.7,0.9-1
		c0.4-0.2,0.8-0.4,1.4-0.4c0.4,0,0.9,0.1,1.3,0.3c0.4,0.2,0.8,0.6,1.1,1.1h0v-5.1h3.3v15.8H120.6z M118.3,162c0,0.2,0,0.4,0,0.6
		c0,0.2,0,0.4,0.1,0.6c0.1,0.2,0.2,0.3,0.3,0.5c0.1,0.1,0.3,0.2,0.6,0.2c0.4,0,0.7-0.2,0.9-0.6c0.1-0.4,0.2-0.9,0.2-1.4V159
		c0-0.3,0-0.5,0-0.8c0-0.3-0.1-0.5-0.1-0.7s-0.2-0.4-0.3-0.5s-0.3-0.2-0.5-0.2c-0.3,0-0.5,0.1-0.6,0.2c-0.1,0.1-0.2,0.3-0.3,0.5
		c-0.1,0.2-0.1,0.4-0.1,0.7c0,0.2,0,0.5,0,0.6V162z"/>
	<path fill="#FFFFFF" d="M125.9,153.3v-2.8h3.3v2.8H125.9z M125.9,166.2v-11.8h3.3v11.8H125.9z"/>
	<path fill="#FFFFFF" d="M136.9,158.8l0-0.2c0-0.2,0-0.4-0.1-0.7s0-0.4-0.1-0.7c-0.1-0.2-0.2-0.4-0.3-0.5c-0.1-0.1-0.3-0.2-0.6-0.2
		c-0.4,0-0.7,0.1-0.8,0.4c-0.1,0.3-0.2,0.6-0.2,1v4.9c0,0.4,0.1,0.7,0.2,1s0.4,0.4,0.9,0.4c0.3,0,0.5-0.1,0.7-0.3
		c0.1-0.2,0.2-0.4,0.3-0.7c0-0.3,0.1-0.6,0.1-0.9s0-0.6,0-0.8h3.2c0,0.2,0,0.4,0,0.6c0,0.3,0,0.5-0.1,0.8c0,0.3,0,0.5-0.1,0.8
		c0,0.2-0.1,0.4-0.1,0.6c-0.2,0.7-0.6,1.3-1.2,1.6c-0.6,0.4-1.2,0.6-2,0.6c-0.2,0-0.3,0-0.5,0c-0.2,0-0.4,0-0.6,0
		c-0.6,0-1.2-0.1-1.7-0.2c-0.5-0.1-0.9-0.3-1.3-0.6s-0.7-0.7-0.9-1.1c-0.2-0.5-0.3-1-0.3-1.7v-4.8c0-0.8,0.1-1.4,0.3-1.9
		c0.2-0.5,0.5-0.9,0.8-1.2c0.4-0.3,0.8-0.5,1.3-0.7s1.1-0.2,1.7-0.2c1.7,0,2.8,0.4,3.5,1.2c0.7,0.7,1,1.9,0.9,3.5H136.9z"/>
	<path fill="#FFFFFF" d="M141.2,156.9v-2.4h1.3v-3.4h3.3v3.4h1.6v2.4h-1.6v6.2c0,0.3,0.1,0.6,0.2,0.7c0.1,0.1,0.3,0.2,0.5,0.2
		c0.2,0,0.3,0,0.4,0c0.1,0,0.2,0,0.4,0v2.4c-0.4,0.1-0.7,0.1-1.1,0.1c-0.4,0-0.7,0.1-1.1,0.1c-0.9,0-1.6-0.2-2.1-0.7
		c-0.5-0.5-0.7-1.1-0.7-2v-6.8H141.2z"/>
	<path fill="#FFFFFF" d="M149.2,153.3v-2.8h3.3v2.8H149.2z M149.2,166.2v-11.8h3.3v11.8H149.2z"/>
	<path fill="#FFFFFF" d="M154.7,158.1c0-0.8,0.1-1.4,0.3-1.9c0.2-0.5,0.5-0.9,0.9-1.2c0.4-0.3,0.8-0.5,1.4-0.7
		c0.5-0.1,1.1-0.2,1.8-0.2c1.5,0,2.6,0.3,3.3,1s1.1,1.7,1.1,3v4.8c-0.1,1.3-0.5,2.3-1.3,2.8s-1.8,0.8-3.1,0.8
		c-0.6,0-1.2-0.1-1.7-0.2c-0.5-0.1-1-0.3-1.4-0.6c-0.4-0.3-0.7-0.7-0.9-1.1c-0.2-0.5-0.3-1-0.3-1.7V158.1z M158,163.1
		c0,0.3,0.1,0.6,0.3,0.8c0.2,0.2,0.4,0.3,0.8,0.3c0.3,0,0.6-0.1,0.8-0.3c0.2-0.2,0.2-0.4,0.3-0.8v-5.2c0-0.4-0.1-0.7-0.2-1
		c-0.1-0.3-0.4-0.4-0.8-0.4c-0.4,0-0.7,0.1-0.8,0.4c-0.1,0.3-0.2,0.6-0.2,1V163.1z"/>
	<path fill="#FFFFFF" d="M168.4,154.4v1.5h0c0.1-0.2,0.2-0.4,0.4-0.7c0.2-0.2,0.3-0.4,0.5-0.6s0.4-0.3,0.7-0.4
		c0.2-0.1,0.5-0.2,0.8-0.2c0.4,0,0.8,0.1,1.1,0.2c0.4,0.1,0.7,0.3,1,0.5c0.3,0.2,0.5,0.5,0.7,0.8s0.2,0.7,0.2,1v9.6h-3.3v-8.4
		c0-0.3-0.1-0.5-0.2-0.7c-0.1-0.2-0.3-0.3-0.7-0.3c-0.6,0-0.9,0.3-0.9,1v8.4h-3.3v-11.8H168.4z"/>
	<path fill="#FFFFFF" d="M189.3,165.3c-1,0.9-2.2,1.3-3.5,1.3c-0.7,0-1.3-0.1-1.9-0.3s-1.1-0.5-1.5-0.9s-0.7-0.9-1-1.5
		c-0.2-0.6-0.3-1.2-0.3-1.9c0-1.1,0.3-2.1,0.8-2.9c0.5-0.8,1.2-1.5,2.2-2.1c-0.4-0.5-0.7-1-0.9-1.6c-0.2-0.6-0.3-1.2-0.3-1.9
		c0-0.5,0.1-1,0.4-1.4c0.2-0.4,0.6-0.8,1-1c0.4-0.3,0.8-0.5,1.3-0.6c0.5-0.1,1-0.2,1.4-0.2c0.5,0,1,0.1,1.5,0.2
		c0.5,0.1,0.9,0.4,1.2,0.6s0.6,0.6,0.8,1.1c0.2,0.4,0.3,0.9,0.3,1.5c0,0.9-0.3,1.7-0.8,2.3s-1.1,1.2-1.9,1.6
		c0.3,0.4,0.6,0.9,0.9,1.3s0.6,0.9,0.8,1.3h0c0.1-0.4,0.2-0.8,0.2-1.1c0.1-0.4,0.1-0.7,0.2-1.1h2.7c0,0.9-0.2,1.7-0.4,2.6
		c-0.3,0.8-0.6,1.6-1,2.4l2.2,3.4h-3.8L189.3,165.3z M185.4,159.3c-0.2,0.2-0.3,0.4-0.5,0.6c-0.1,0.2-0.2,0.4-0.3,0.5
		c-0.1,0.2-0.2,0.4-0.2,0.6s-0.1,0.5-0.1,0.7c0,0.6,0.2,1,0.6,1.4c0.4,0.4,0.8,0.6,1.4,0.6c0.3,0,0.6-0.1,0.8-0.2
		c0.3-0.1,0.5-0.3,0.8-0.5L185.4,159.3z M186.5,152.4c-0.3,0-0.5,0.1-0.7,0.3c-0.2,0.2-0.3,0.4-0.3,0.7c0,0.3,0.1,0.7,0.3,1
		c0.2,0.4,0.4,0.6,0.6,0.9c0.1-0.1,0.3-0.2,0.4-0.3c0.1-0.1,0.3-0.3,0.4-0.5c0.1-0.2,0.2-0.3,0.3-0.5c0.1-0.2,0.1-0.3,0.1-0.5
		c0-0.4-0.1-0.6-0.3-0.8C187.2,152.5,186.9,152.4,186.5,152.4z"/>
	<path fill="#FFFFFF" d="M81.4,191.4v-15.8h4.4c0.3,0,0.7,0,1.2,0c0.4,0,0.8,0.1,1.2,0.2s0.8,0.2,1.2,0.4c0.4,0.2,0.7,0.4,0.9,0.7
		c0.4,0.5,0.7,1,0.8,1.6s0.2,1.2,0.2,1.8c0,0.4,0,0.9-0.1,1.3c-0.1,0.4-0.2,0.9-0.3,1.2c-0.2,0.4-0.4,0.7-0.6,1.1
		c-0.3,0.3-0.6,0.6-1,0.8c-0.3,0.2-0.7,0.3-1,0.3c-0.3,0.1-0.7,0.1-1,0.1c-0.3,0-0.7,0-1.1,0c-0.4,0-0.7,0-1.1,0v6.1H81.4z
		 M85.1,182.4c0.3,0,0.7,0,1.1,0c0.4,0,0.7-0.1,1-0.4c0.2-0.2,0.3-0.5,0.4-0.7s0.1-0.6,0.1-0.9c0-0.2,0-0.3,0-0.5
		c0-0.2,0-0.4-0.1-0.5c0-0.2-0.1-0.3-0.2-0.5c-0.1-0.1-0.2-0.3-0.4-0.3c-0.2-0.1-0.4-0.1-0.6-0.1c-0.2,0-0.5,0-0.8,0h-0.4V182.4z"/>
	<path fill="#FFFFFF" d="M92.9,183.3c0-0.8,0.1-1.4,0.3-1.9c0.2-0.5,0.5-0.9,0.9-1.2c0.4-0.3,0.8-0.5,1.4-0.7
		c0.5-0.1,1.1-0.2,1.8-0.2c1.5,0,2.6,0.3,3.3,1s1.1,1.7,1.1,3v4.8c-0.1,1.3-0.5,2.3-1.3,2.8s-1.8,0.8-3.1,0.8
		c-0.6,0-1.2-0.1-1.7-0.2c-0.5-0.1-1-0.3-1.4-0.6c-0.4-0.3-0.7-0.7-0.9-1.1c-0.2-0.5-0.3-1-0.3-1.7V183.3z M96.2,188.3
		c0,0.3,0.1,0.6,0.3,0.8c0.2,0.2,0.4,0.3,0.8,0.3c0.3,0,0.6-0.1,0.8-0.3c0.2-0.2,0.2-0.4,0.3-0.8v-5.2c0-0.4-0.1-0.7-0.2-1
		c-0.1-0.3-0.4-0.4-0.8-0.4c-0.4,0-0.7,0.1-0.8,0.4c-0.1,0.3-0.2,0.6-0.2,1V188.3z"/>
	<path fill="#FFFFFF" d="M107.1,187.3L107.1,187.3l1.2-7.6h3.3l-2.6,11.8h-3.8l-2.6-11.8h3.4L107.1,187.3z"/>
	<path fill="#FFFFFF" d="M115.9,186.1v2.1c0,0.3,0.1,0.6,0.2,0.8c0.2,0.2,0.4,0.4,0.8,0.4c0.3,0,0.5,0,0.7-0.2
		c0.2-0.1,0.3-0.3,0.3-0.5c0.1-0.2,0.1-0.4,0.1-0.7s0-0.5,0-0.7h3.3c0.1,1.5-0.3,2.6-1,3.3c-0.8,0.7-1.9,1.1-3.3,1.1
		c-0.6,0-1.2-0.1-1.7-0.2c-0.5-0.1-1-0.3-1.4-0.6c-0.4-0.3-0.7-0.7-1-1.1c-0.2-0.5-0.4-1-0.4-1.7v-4.8c0-0.8,0.1-1.4,0.3-1.9
		c0.2-0.5,0.5-0.9,0.9-1.2c0.4-0.3,0.9-0.5,1.4-0.7c0.6-0.1,1.2-0.2,1.8-0.2c0.6,0,1.2,0.1,1.7,0.2s1,0.3,1.4,0.6
		c0.4,0.3,0.7,0.6,1,1.1c0.3,0.4,0.4,1,0.4,1.6v3.4H115.9z M118.2,183.9v-1.2c0-0.1,0-0.2-0.1-0.4s-0.1-0.3-0.2-0.4
		c-0.1-0.1-0.2-0.2-0.4-0.3c-0.1-0.1-0.3-0.1-0.5-0.1c-0.5,0-0.8,0.2-0.9,0.5c-0.2,0.3-0.2,0.7-0.2,1.1v0.8H118.2z"/>
	<path fill="#FFFFFF" d="M126.3,179.6v1.8h0c0.2-0.6,0.5-1.1,0.9-1.5c0.4-0.4,1-0.6,1.7-0.6v3.8c-0.2,0-0.3,0-0.5-0.1
		c-0.2,0-0.3,0-0.5,0c-0.5,0-0.8,0.1-1,0.2s-0.3,0.5-0.4,0.9v7.2h-3.3v-11.8H126.3z"/>
	<path fill="#FFFFFF" d="M129.5,182.1v-2.4h1.3v-3.4h3.3v3.4h1.6v2.4h-1.6v6.2c0,0.3,0.1,0.6,0.2,0.7c0.1,0.1,0.3,0.2,0.5,0.2
		c0.2,0,0.3,0,0.4,0c0.1,0,0.2,0,0.4,0v2.4c-0.4,0.1-0.7,0.1-1.1,0.1c-0.4,0-0.7,0.1-1.1,0.1c-0.9,0-1.6-0.2-2.1-0.7
		c-0.5-0.5-0.7-1.1-0.7-2v-6.8H129.5z"/>
	<path fill="#FFFFFF" d="M140.9,187.3L140.9,187.3l1.2-7.6h3.3l-2.1,10.1c-0.2,0.8-0.4,1.5-0.5,2.2c-0.1,0.7-0.4,1.3-0.6,1.8
		c-0.3,0.5-0.7,0.9-1.2,1.2s-1.2,0.4-2.1,0.4c-0.3,0-0.5,0-0.8-0.1c-0.2,0-0.4-0.1-0.6-0.1v-2.5c0.1,0,0.2,0,0.3,0
		c0.1,0,0.2,0,0.3,0.1c0.1,0,0.2,0,0.3,0c0.1,0,0.2,0,0.3-0.1c0.1,0,0.2-0.1,0.3-0.2s0.1-0.2,0.1-0.3c0-0.3,0-0.6-0.1-1
		s-0.2-0.7-0.2-1l-2.3-10.6h3.4L140.9,187.3z"/>
</g>
</svg>
