<!-- Generator: Adobe Illustrator 19.1.0, SVG Export Plug-In  -->
<svg version="1.1"
	 xmlns="http://www.w3.org/2000/svg" xmlns:xlink="http://www.w3.org/1999/xlink" xmlns:a="http://ns.adobe.com/AdobeSVGViewerExtensions/3.0/"
	 x="0px" y="0px" width="225.9px" height="225.9px" viewBox="0 0 225.9 225.9" enable-background="new 0 0 225.9 225.9"
	 xml:space="preserve">
<defs>
</defs>
<rect fill="#D71921" width="225.9" height="225.9"/>
<g opacity="0.75">
	<path fill="#FFFFFF" d="M216.2,216.2H9.7V9.7h206.5V216.2z M11.7,214.2h202.5V11.7H11.7V214.2z"/>
</g>
<g>
	<path fill="#3B4552" d="M105.6,152.2c0,0,4.1,5.5,9.4,5.5v-10.3L105.6,152.2z"/>
	<g>
		<path fill="#FFFFFF" d="M43.2,75.8c0.6,0,1.4,0,2.3,0c11.5,0,49.5,0.9,66.6,11.9v61.5c-0.9,0-1.9,0-3.1,0c-3.5,0-8.5,0-14.9,0
			c-19.5,0-47.3,0.1-56.6,0.1L43.2,75.8z"/>
		<g>
			<path fill="#3B4552" d="M45.9,78.7c6.7,0,19.4,0.3,32.4,2c13.6,1.8,24.2,4.8,30.9,8.6v57c-0.1,0-0.1,0-0.2,0c-3.5,0-8.5,0-15,0
				c-17.7,0-42.1,0.1-53.5,0.1L45.9,78.7 M45.5,72.9c-3.1,0-4.9,0.1-4.9,0.1l-6.2,79.2c0,0,35.8-0.1,59.7-0.1
				c11.9,0,20.9,0,20.9,0.1c0-0.2,0-66,0-66C98.1,74.1,59.3,72.9,45.5,72.9L45.5,72.9z M114.9,152.2L114.9,152.2L114.9,152.2
				L114.9,152.2z"/>
		</g>
	</g>
	<g>
		<g>
			<path fill="#3B4552" d="M51.4,66.4c5.4,0,16.2,0.4,27.9,3.4c12.9,3.2,23.2,8.6,30.9,15.9v61.8c-9.8-4.2-30.1-10.5-66-12.2
				l6.8-68.8C51.1,66.4,51.2,66.4,51.4,66.4L51.4,66.4 M51.4,61.6c-3,0-4.8,0.1-4.8,0.1l-7.7,78c57.6,2,76,15.5,76,15.5V83.6
				C95.6,63.6,63.5,61.6,51.4,61.6L51.4,61.6z"/>
		</g>
		<path fill="#FFFFFF" d="M112.6,151.1c-7.8-3.9-28.6-11.9-71-13.7L48.8,64c0.7,0,1.6,0,2.6,0c5.5,0,16.6,0.4,28.5,3.4
			c13.7,3.5,24.7,9.2,32.7,17.2V151.1z"/>
	</g>
	<g>
		<g>
			<path fill="#3B4552" d="M57.9,55.1C77,55.7,90.2,60.5,98,64.6c6.4,3.3,10.4,6.7,12.1,8.4v68.7c-10.5-6.3-23.3-11.1-38.4-14.3
				c-8.4-1.8-15.5-2.7-20-3.1L57.9,55.1 M53.5,50.2l-7,78.4c0,0,41.7,1.7,68.4,22.1V71.1C114.9,71.1,97.7,50.2,53.5,50.2L53.5,50.2z
				"/>
		</g>
		<path fill="#FFFFFF" d="M112.6,146c-23.2-15.6-54.3-19-63.4-19.6l6.5-73.8c12.1,0.2,28.8,2.2,43.7,10c7.5,3.9,11.7,7.9,13.1,9.4
			V146z"/>
	</g>
	<path fill="#3B4552" d="M124.3,152.2c0,0-4.1,5.5-9.4,5.5v-10.3L124.3,152.2z"/>
	<g>
		<path fill="#FFFFFF" d="M192.4,149.3c-9.3,0-37.1-0.1-56.6-0.1c-6.4,0-11.5,0-14.9,0c-1.2,0-2.2,0-3.1,0V87.7
			c17-11,55.1-11.9,66.6-11.9c0.9,0,1.6,0,2.3,0L192.4,149.3z"/>
		<g>
			<path fill="#3B4552" d="M184,78.7l5.3,67.7c-11.4,0-35.8-0.1-53.5-0.1c-6.4,0-11.5,0-15,0c-0.1,0-0.1,0-0.2,0v-57
				c6.7-3.8,17.2-6.8,30.9-8.6C164.6,79,177.3,78.7,184,78.7 M184.4,72.9c-13.7,0-52.6,1.1-69.4,13.3v66v0c0-0.1,9-0.1,20.9-0.1
				c23.9,0,59.7,0.1,59.7,0.1L189.3,73C189.3,73,187.5,72.9,184.4,72.9L184.4,72.9z"/>
		</g>
	</g>
	<g>
		<g>
			<path fill="#3B4552" d="M178.5,66.4c0.2,0,0.3,0,0.5,0l6.8,68.8c-35.9,1.7-56.1,8-66,12.2V85.6c7.6-7.3,18-12.6,30.9-15.9
				C162.2,66.8,173.1,66.4,178.5,66.4 M178.5,61.6c-12.1,0-44.2,2-63.5,22.1v71.6c0,0,18.5-13.5,76-15.5l-7.7-78
				C183.3,61.7,181.5,61.6,178.5,61.6L178.5,61.6z"/>
		</g>
		<path fill="#FFFFFF" d="M117.3,84.6c8-8,19-13.8,32.7-17.2c11.9-3,22.9-3.4,28.5-3.4c1,0,1.9,0,2.6,0l7.2,73.4
			c-42.4,1.8-63.2,9.7-71,13.7V84.6z"/>
	</g>
	<g>
		<g>
			<path fill="#3B4552" d="M172,55.1l6.1,69.2c-4.5,0.4-11.6,1.3-20,3.1c-15,3.2-27.9,8.1-38.4,14.3V73
				C123.8,69,139.5,56.2,172,55.1 M176.4,50.2c-44.1,0-61.4,20.9-61.4,20.9v79.6c26.6-20.4,68.4-22.1,68.4-22.1L176.4,50.2
				L176.4,50.2z"/>
		</g>
		<path fill="#FFFFFF" d="M117.3,72c1.4-1.5,5.6-5.5,13.1-9.4c8.4-4.4,22.7-9.7,43.7-10l6.5,73.8c-9.1,0.7-40.2,4.1-63.4,19.6V72z"
			/>
	</g>
</g>
<g>
	<path fill="#FFFFFF" d="M56.3,191.9h-3.7v-15.8H58c1.5,0,2.7,0.3,3.4,1s1.1,1.8,1.1,3.3c0,0.8-0.1,1.6-0.4,2.2
		c-0.3,0.6-0.8,1.1-1.6,1.4v0c0.5,0.1,0.9,0.3,1.3,0.7c0.3,0.4,0.5,0.8,0.5,1.3c0,0.3,0.1,0.7,0.1,1.2s0,0.9,0.1,1.4
		c0,0.5,0,0.9,0.1,1.4c0,0.4,0.1,0.8,0.1,1c0.1,0.2,0.2,0.4,0.4,0.5v0.2h-4c-0.1-0.2-0.1-0.3-0.1-0.5c0-0.1-0.1-0.3-0.1-0.5
		c0-0.7,0-1.4,0-2c0-0.6,0-1.2-0.1-1.7c-0.1-0.5-0.2-0.9-0.3-1.2c-0.2-0.3-0.5-0.5-0.9-0.5h-1.2V191.9z M56.3,182.9h1.3
		c0.3,0,0.5-0.1,0.7-0.2c0.2-0.1,0.3-0.3,0.4-0.4c0.1-0.2,0.2-0.4,0.2-0.6c0-0.2,0.1-0.5,0.1-0.7c0-0.5,0-0.8-0.1-1.1
		c-0.1-0.3-0.3-0.5-0.5-0.6c-0.2-0.1-0.5-0.2-0.8-0.2c-0.3,0-0.7,0-1.2,0V182.9z"/>
	<path fill="#FFFFFF" d="M67.5,186.6v2.1c0,0.3,0.1,0.6,0.2,0.8c0.2,0.2,0.4,0.4,0.8,0.4c0.3,0,0.5,0,0.7-0.2
		c0.2-0.1,0.3-0.3,0.3-0.5c0.1-0.2,0.1-0.4,0.1-0.7c0-0.2,0-0.5,0-0.7H73c0.1,1.5-0.3,2.6-1,3.3c-0.8,0.7-1.9,1.1-3.3,1.1
		c-0.6,0-1.2-0.1-1.7-0.2c-0.5-0.1-1-0.3-1.4-0.6c-0.4-0.3-0.7-0.7-1-1.1c-0.2-0.5-0.4-1-0.4-1.7v-4.8c0-0.8,0.1-1.4,0.3-1.9
		c0.2-0.5,0.5-0.9,0.9-1.2c0.4-0.3,0.9-0.5,1.4-0.7c0.6-0.1,1.2-0.2,1.8-0.2c0.6,0,1.2,0.1,1.7,0.2s1,0.3,1.4,0.6
		c0.4,0.3,0.7,0.6,1,1.1c0.3,0.4,0.4,1,0.4,1.6v3.4H67.5z M69.8,184.4v-1.2c0-0.1,0-0.2-0.1-0.4c0-0.1-0.1-0.3-0.2-0.4
		c-0.1-0.1-0.2-0.2-0.4-0.3s-0.3-0.1-0.5-0.1c-0.5,0-0.8,0.2-0.9,0.5c-0.2,0.3-0.2,0.7-0.2,1.1v0.8H69.8z"/>
	<path fill="#FFFFFF" d="M78.2,181.1L78.2,181.1c0.4-0.5,0.8-0.8,1.2-1c0.4-0.2,0.9-0.3,1.3-0.3c0.4,0,0.8,0.1,1.1,0.2
		c0.3,0.1,0.6,0.3,0.8,0.6s0.4,0.5,0.5,0.9s0.2,0.7,0.2,1v9.4h-3.3v-8.4c0-0.3-0.1-0.6-0.2-0.8c-0.1-0.2-0.4-0.3-0.8-0.3
		c-0.4,0-0.6,0.1-0.8,0.4c-0.1,0.3-0.2,0.5-0.2,0.8v8.1h-3.3v-15.8h3.3V181.1z"/>
	<path fill="#FFFFFF" d="M90.8,190.9c-0.4,0.5-0.8,0.8-1.3,1.1s-1,0.4-1.6,0.4c-1,0-1.7-0.3-2.2-0.9c-0.5-0.6-0.8-1.3-0.8-2.3
		c0-0.7,0.1-1.2,0.3-1.7c0.2-0.4,0.4-0.8,0.7-1.1c0.3-0.3,0.6-0.5,0.9-0.7c0.3-0.2,0.7-0.3,1.1-0.5s0.7-0.2,1.1-0.3
		c0.3-0.1,0.7-0.2,0.9-0.3c0.3-0.1,0.5-0.3,0.7-0.5c0.2-0.2,0.3-0.4,0.3-0.8s-0.1-0.6-0.3-0.9S90,182,89.6,182c-0.3,0-0.5,0-0.7,0.1
		s-0.3,0.2-0.4,0.4c-0.1,0.2-0.1,0.4-0.2,0.6s0,0.5-0.1,0.7H85c0-0.7,0-1.4,0.3-1.9c0.2-0.5,0.5-0.9,0.9-1.3
		c0.4-0.3,0.9-0.6,1.5-0.7c0.6-0.1,1.2-0.2,1.9-0.2c0.8,0,1.5,0.1,2.1,0.2c0.6,0.1,1,0.3,1.4,0.6c0.4,0.3,0.6,0.7,0.8,1.1
		c0.2,0.5,0.2,1,0.2,1.6v7.2c0,0.2,0,0.4,0.1,0.7c0.1,0.2,0.1,0.4,0.2,0.6H91L90.8,190.9z M90.7,186.2c-0.3,0.2-0.6,0.3-0.9,0.5
		c-0.3,0.1-0.5,0.3-0.7,0.4s-0.4,0.3-0.5,0.6c-0.2,0.2-0.2,0.5-0.2,0.9c0,0.4,0.1,0.7,0.3,0.9s0.5,0.4,0.9,0.4
		c0.3,0,0.5-0.1,0.6-0.2c0.2-0.1,0.3-0.3,0.4-0.4c0.1-0.2,0.2-0.4,0.2-0.6c0-0.2,0.1-0.4,0.1-0.6V186.2z"/>
	<path fill="#FFFFFF" d="M99.2,181.1L99.2,181.1c0.3-0.5,0.7-0.8,1.1-1c0.5-0.2,0.9-0.3,1.4-0.3c0.5,0,1,0.1,1.4,0.4
		c0.4,0.2,0.7,0.6,0.9,1c0.2,0.4,0.4,0.8,0.5,1.3c0.1,0.5,0.1,0.9,0.1,1.4v4.1c0,0.5,0,1-0.1,1.5c-0.1,0.5-0.2,1-0.4,1.4
		c-0.2,0.4-0.5,0.8-0.9,1c-0.4,0.3-0.9,0.4-1.5,0.4c-0.5,0-1-0.2-1.5-0.5c-0.5-0.3-0.9-0.7-1.1-1.2h0v1.3h-3.1v-15.8h3.3V181.1z
		 M101.3,184.5c0-0.2,0-0.4,0-0.6c0-0.2,0-0.4-0.1-0.6s-0.2-0.4-0.3-0.5c-0.1-0.1-0.3-0.2-0.6-0.2c-0.4,0-0.7,0.2-0.9,0.6
		c-0.1,0.4-0.2,0.9-0.2,1.5v2.8c0,0.3,0,0.5,0,0.8c0,0.3,0.1,0.5,0.2,0.7c0.1,0.2,0.2,0.4,0.3,0.5c0.1,0.1,0.3,0.2,0.5,0.2
		c0.3,0,0.5-0.1,0.6-0.2s0.2-0.3,0.3-0.5s0.1-0.4,0.1-0.7c0-0.2,0-0.4,0-0.6V184.5z"/>
	<path fill="#FFFFFF" d="M106.6,179v-2.8h3.3v2.8H106.6z M106.6,191.9v-11.8h3.3v11.8H106.6z"/>
	<path fill="#FFFFFF" d="M112.5,191.9v-15.8h3.3v15.8H112.5z"/>
	<path fill="#FFFFFF" d="M118.3,179v-2.8h3.3v2.8H118.3z M118.3,191.9v-11.8h3.3v11.8H118.3z"/>
	<path fill="#FFFFFF" d="M123.1,182.6v-2.4h1.3v-3.4h3.3v3.4h1.6v2.4h-1.6v6.2c0,0.3,0.1,0.6,0.2,0.7c0.1,0.1,0.3,0.2,0.5,0.2
		c0.2,0,0.3,0,0.4,0s0.2,0,0.4,0v2.4c-0.4,0.1-0.7,0.1-1.1,0.1c-0.4,0-0.7,0.1-1.1,0.1c-0.9,0-1.6-0.2-2.1-0.7
		c-0.5-0.5-0.7-1.1-0.7-2v-6.8H123.1z"/>
	<path fill="#FFFFFF" d="M136.3,190.9c-0.4,0.5-0.8,0.8-1.3,1.1s-1,0.4-1.6,0.4c-1,0-1.7-0.3-2.2-0.9c-0.5-0.6-0.8-1.3-0.8-2.3
		c0-0.7,0.1-1.2,0.3-1.7c0.2-0.4,0.4-0.8,0.7-1.1c0.3-0.3,0.6-0.5,0.9-0.7c0.3-0.2,0.7-0.3,1.1-0.5s0.7-0.2,1.1-0.3
		c0.3-0.1,0.7-0.2,0.9-0.3c0.3-0.1,0.5-0.3,0.7-0.5c0.2-0.2,0.3-0.4,0.3-0.8s-0.1-0.6-0.3-0.9s-0.4-0.4-0.8-0.4
		c-0.3,0-0.5,0-0.7,0.1s-0.3,0.2-0.4,0.4c-0.1,0.2-0.1,0.4-0.2,0.6s0,0.5-0.1,0.7h-3.3c0-0.7,0-1.4,0.3-1.9c0.2-0.5,0.5-0.9,0.9-1.3
		c0.4-0.3,0.9-0.6,1.5-0.7c0.6-0.1,1.2-0.2,1.9-0.2c0.8,0,1.5,0.1,2.1,0.2c0.6,0.1,1,0.3,1.4,0.6c0.4,0.3,0.6,0.7,0.8,1.1
		c0.2,0.5,0.2,1,0.2,1.6v7.2c0,0.2,0,0.4,0.1,0.7c0.1,0.2,0.1,0.4,0.2,0.6h-3.3L136.3,190.9z M136.2,186.2c-0.3,0.2-0.6,0.3-0.9,0.5
		c-0.3,0.1-0.5,0.3-0.7,0.4s-0.4,0.3-0.5,0.6c-0.2,0.2-0.2,0.5-0.2,0.9c0,0.4,0.1,0.7,0.3,0.9s0.5,0.4,0.9,0.4
		c0.3,0,0.5-0.1,0.6-0.2c0.2-0.1,0.3-0.3,0.4-0.4c0.1-0.2,0.2-0.4,0.2-0.6c0-0.2,0.1-0.4,0.1-0.6V186.2z"/>
	<path fill="#FFFFFF" d="M140.6,182.6v-2.4h1.3v-3.4h3.3v3.4h1.6v2.4h-1.6v6.2c0,0.3,0.1,0.6,0.2,0.7c0.1,0.1,0.3,0.2,0.5,0.2
		c0.2,0,0.3,0,0.4,0s0.2,0,0.4,0v2.4c-0.4,0.1-0.7,0.1-1.1,0.1c-0.4,0-0.7,0.1-1.1,0.1c-0.9,0-1.6-0.2-2.1-0.7
		c-0.5-0.5-0.7-1.1-0.7-2v-6.8H140.6z"/>
	<path fill="#FFFFFF" d="M148.6,179v-2.8h3.3v2.8H148.6z M148.6,191.9v-11.8h3.3v11.8H148.6z"/>
	<path fill="#FFFFFF" d="M154.1,183.8c0-0.8,0.1-1.4,0.3-1.9c0.2-0.5,0.5-0.9,0.9-1.2c0.4-0.3,0.8-0.5,1.4-0.7
		c0.5-0.1,1.1-0.2,1.8-0.2c1.5,0,2.6,0.3,3.3,1c0.7,0.7,1.1,1.7,1.1,3v4.8c-0.1,1.3-0.5,2.3-1.3,2.8c-0.8,0.6-1.8,0.8-3.1,0.8
		c-0.6,0-1.2-0.1-1.7-0.2s-1-0.3-1.4-0.6s-0.7-0.7-0.9-1.1c-0.2-0.5-0.3-1-0.3-1.7V183.8z M157.4,188.8c0,0.3,0.1,0.6,0.3,0.8
		c0.2,0.2,0.4,0.3,0.8,0.3c0.3,0,0.6-0.1,0.8-0.3c0.2-0.2,0.2-0.4,0.3-0.8v-5.2c0-0.4-0.1-0.7-0.2-1c-0.1-0.3-0.4-0.4-0.8-0.4
		c-0.4,0-0.7,0.1-0.8,0.4c-0.1,0.3-0.2,0.6-0.2,1V188.8z"/>
	<path fill="#FFFFFF" d="M167.8,180.1v1.5h0c0.1-0.2,0.2-0.4,0.4-0.7c0.2-0.2,0.3-0.4,0.5-0.6s0.4-0.3,0.7-0.4
		c0.2-0.1,0.5-0.2,0.8-0.2c0.4,0,0.8,0.1,1.1,0.2c0.4,0.1,0.7,0.3,1,0.5s0.5,0.5,0.7,0.8c0.2,0.3,0.2,0.7,0.2,1v9.6h-3.3v-8.4
		c0-0.3-0.1-0.5-0.2-0.7c-0.1-0.2-0.3-0.3-0.7-0.3c-0.6,0-0.9,0.3-0.9,1v8.4h-3.3v-11.8H167.8z"/>
</g>
</svg>
