<!-- Generator: Adobe Illustrator 19.1.0, SVG Export Plug-In  -->
<svg version="1.1"
	 xmlns="http://www.w3.org/2000/svg" xmlns:xlink="http://www.w3.org/1999/xlink" xmlns:a="http://ns.adobe.com/AdobeSVGViewerExtensions/3.0/"
	 x="0px" y="0px" width="225.9px" height="225.9px" viewBox="0 0 225.9 225.9" enable-background="new 0 0 225.9 225.9"
	 xml:space="preserve">
<defs>
</defs>
<rect fill="#D71921" width="225.9" height="225.9"/>
<g opacity="0.75">
	<path fill="#FFFFFF" d="M216.2,216.2H9.7V9.7h206.5V216.2z M11.7,214.2h202.5V11.7H11.7V214.2z"/>
</g>
<g>
	<g id="XMLID_1_">
		<g>
			<path fill="#3B4552" d="M159.7,136.9c-1.1,1.2-2.3,2.4-3.2,3.7c-2.2,3-5.4,4.5-8.8,5.6c-1.8,0.6-3.3,1.4-4.5,2.7
				c-2.4,2.5-4.9,4.9-7.3,7.4c-2.4,2.5-4.7,4.9-7,7.4c-1.7-1.2-3.3-2.3-4.9-3.5l-10.2-7.5c-1.2-1.6-2.6-3.1-3.7-4.8
				c-1.1-1.6-0.9-2.1,0.3-3.5c3.5-3.9,7.1-7.8,10.6-11.7c0.6-0.6,1-1.4,1.2-2.2c0.6-2.3,1-4.6,1.6-6.9c0.2-0.9,0-1.3-0.7-1.8
				c-2.1-1.4-3.8-3-5.1-4.7c0-0.1-0.1-0.1-0.1-0.2c0,0,0,0,0,0c-0.2-0.3-0.4-0.6-0.6-0.9c0,0,0,0,0,0c-0.1-0.1-0.1-0.2-0.2-0.3
				c-0.1-0.2-0.2-0.4-0.3-0.6c0,0,0,0,0,0c-0.5-1-0.8-1.9-0.8-1.9c5.7-0.4,12.9-5.6,12.9-5.6c-1.8-0.3-3.4-0.5-5-0.9
				c-0.8-0.2-1.7-0.7-2.3-1.3c-18.9-21.9-37.8-43.8-56.8-65.7c-0.5-0.5-0.9-1-1.4-1.5l-0.4-2.2c-0.1-0.9-0.1-1.7-0.2-2.6
				c-0.4-3.3-0.8-6.6-1.3-9.8l0.3-0.1c2.7,0.7,5.4,1.6,8.1,2.1c4.1,0.6,7,2.6,9.8,5.7c18.4,19.7,37,39.3,55.6,58.9
				c1.8,1.9,2.7,3.9,2.6,6.5c0,0.6,0.1,1.2,0.1,2.1c3.5-4.1,6.2-8.4,8.1-13.2c3.1,1.9,7.8,6.4,8.7,8.3c-2.7,1.9-5.4,3.7-7.8,5.5
				c1.9,1.2,3.7,2.3,5.4,3.6c0.4,0.3,0.3,1.1,0.5,1.9c3.2-0.9,3.9,2.2,5.7,3.7c0.2,0.2,0.1,1,0,1.4c-0.5,1.3-0.2,2.1,1,2.6
				c2,0.9,2.8,2.5,2.5,4.7c0,0.4,0.3,1,0.7,1.2c2.8,1.4,3.7,2.8,3.3,5.9c-0.2,1.8-0.8,3.5-1.3,5.2c-0.4,1.3,0,2.5,1.3,2.7
				c5.9,1,5.1,5.1,2.7,8.4c-0.2,0.3-0.5,0.6-0.8,0.8c-2.7,2.5-5.6,1.7-6.6-1.8C160.9,137.6,160.9,137.6,159.7,136.9z"/>
		</g>
		<g>
		</g>
	</g>
	<path d="M135.1,101.2c0,0.6-0.6,1.2-1.1,2.1c-22.6-24.6-45-49.1-67.4-73.5c-0.1,0-0.2,0.1-0.3,0.1c0.4,2.1,0.7,4.1,1.2,6.1
		c0.1,0.3,0.6,0.6,0.9,0.7c0.8,0.3,1.7,0.6,2.6,1.2c-0.8,0.1-1.5,0.2-2.6,0.3c18.5,21.3,37,42.4,55.5,63.7c0.9-0.5,1.7-0.9,2.5-1.3
		c0.1,0.1,0.1,0.1,0.2,0.2c-0.7,0.9-1.5,1.8-2.3,2.9c-0.4-0.4-0.7-0.7-1-1.1c-18.5-21.2-36.9-42.5-55.4-63.7
		c-0.5-0.6-0.9-1.5-1.1-2.3c-0.7-2.9-1.4-5.7-2.1-8.9c3.1,1,5.9,1.8,8.7,2.8c0.3,0.1,0.5,0.7,0.6,1.1c0.3,1.3,0.5,2.6,0.8,4.3
		c0.6-1.6,1.1-2.9,1.7-4.4c19.3,20.6,38.5,41,57.7,61.5c-0.6,1-1.1,1.9-1.7,2.8c0.1,0.1,0.1,0.2,0.2,0.2c0.6-0.4,1.2-0.8,1.9-1.3
		C134.8,97.1,135,99.2,135.1,101.2z"/>
	<path d="M141.5,98.4c2-3.3,3.8-6.3,5.7-9.3c1.1,0.8,2.3,1.7,3.7,2.8C147.8,94,144.8,96.1,141.5,98.4z"/>
	<path d="M149,106.4c-1.1-1-2.1-1.9-3.1-2.7c2.1-2.1,1.5-1.7,4.2,0.7C149.8,104.9,149.5,105.5,149,106.4z"/>
	<path d="M146.3,117c0.7-1.2,1.2-2.2,2.8-2.7c2.4-0.7,3.8-2.8,5.1-4.9c-0.6-0.6-1.1-1.2-1.7-1.7c0.7-0.7,1.4-0.8,2,0
		c0.4,0.5,0.9,1,1.3,1.4c0.9,1,0.9,1.9,0,2.9c-2.4,2.3-4.8,4.6-7.2,7C147.8,118.4,147.1,117.7,146.3,117z"/>
	<path d="M152.2,122.9c-0.4-0.1-0.6-0.6-0.9-0.8c-0.9-0.7-1-1.5-0.1-2.3c1.9-1.7,3.8-3.4,5.7-5c0.7-0.6,2.5,0.4,2.6,1.2
		c0,1.1,0.1,2.1,0.1,3c0,0.3-0.3,0.8-0.6,0.9c-1.8,1.1-3.5,2.2-5.3,3.2C153.3,123.2,152.7,123.1,152.2,122.9z"/>
	<path d="M160.9,125.9c-1.4,0.5-2.9,0.8-4.4,1.3c-1.3,0.4-1.4-0.7-1.8-1.3c-0.5-0.8-0.1-1.2,0.5-1.5c2.2-1,4.3-2,6.5-3
		c0.9-0.4,1.4,0.1,1.6,0.9c0.7,2.2,0.6,4.4-0.4,6.8c-0.4-1-2-1.2-1.1-2.7C162.1,126,161.6,125.6,160.9,125.9z"/>
	<path fill="#FFFFFF" d="M123.8,101.9c0.9-0.5,1.7-0.9,2.5-1.3c0.1,0.1,0.1,0.1,0.2,0.2c-0.7,0.9-1.5,1.8-2.3,2.9
		c-0.4-0.4-0.7-0.7-1-1.1c-18.5-21.2-36.9-42.5-55.4-63.7c-0.5-0.6-0.9-1.5-1.1-2.3c-0.7-2.9-1.4-5.7-2.1-8.9c3.1,1,5.9,1.8,8.7,2.8
		c0.3,0.1,0.5,0.7,0.6,1.1c0.3,1.3,0.5,2.6,0.8,4.3c0.6-1.6,1.1-2.9,1.7-4.4c19.3,20.6,38.5,41,57.7,61.5c-0.6,1-1.1,1.9-1.7,2.8
		c0.1,0.1,0.1,0.2,0.2,0.2c0.6-0.4,1.2-0.8,1.9-1.3c0.2,2.2,0.5,4.2,0.5,6.3c0,0.6-0.6,1.2-1.1,2.1c-22.6-24.6-45-49.1-67.4-73.5
		c-0.1,0-0.2,0.1-0.3,0.1c0.4,2.1,0.7,4.1,1.2,6.1c0.1,0.3,0.6,0.6,0.9,0.7c0.8,0.3,1.7,0.6,2.6,1.2c-0.8,0.1-1.5,0.2-2.6,0.3
		C86.9,59.5,105.3,80.7,123.8,101.9z"/>
	<path fill="#FFFFFF" d="M159.5,116c0,1.1,0.1,2.1,0.1,3c0,0.3-0.3,0.8-0.6,0.9c-1.8,1.1-3.5,2.2-5.3,3.2c-0.4,0.2-1,0-1.4-0.1
		c-0.4-0.1-0.6-0.6-0.9-0.8c-0.9-0.7-1-1.5-0.1-2.3c1.9-1.7,3.8-3.4,5.7-5C157.6,114.2,159.4,115.2,159.5,116z"/>
	<path fill="#FFFFFF" d="M163,129.2c-0.4-1-2-1.2-1.1-2.7c0.3-0.5-0.2-0.8-0.9-0.6c-1.4,0.5-2.9,0.8-4.4,1.3
		c-1.3,0.4-1.4-0.7-1.8-1.3c-0.5-0.8-0.1-1.2,0.5-1.5c2.2-1,4.3-2,6.5-3c0.9-0.4,1.4,0.1,1.6,0.9C164,124.6,163.9,126.8,163,129.2z"
		/>
	<path fill="#FFFFFF" d="M154.2,109.5c-0.6-0.6-1.1-1.2-1.7-1.7c0.7-0.7,1.4-0.8,2,0c0.4,0.5,0.9,1,1.3,1.4c0.9,1,0.9,1.9,0,2.9
		c-2.4,2.3-4.8,4.6-7.2,7c-0.7-0.7-1.4-1.3-2.2-2c0.7-1.2,1.2-2.2,2.8-2.7C151.5,113.7,152.9,111.6,154.2,109.5z"/>
	<path fill="#FFFFFF" d="M141.5,98.4c2-3.3,3.8-6.3,5.7-9.3c1.1,0.8,2.3,1.7,3.7,2.8C147.8,94,144.8,96.1,141.5,98.4z"/>
	<path fill="#FFFFFF" d="M146,103.7c2.1-2.1,1.5-1.7,4.2,0.7c-0.3,0.6-0.6,1.1-1.1,2C148,105.4,146.9,104.5,146,103.7z"/>
	<path fill="#FFFFFF" d="M120.3,115.9c0.3-0.2,0.6-0.4,0.8-0.6l6.9-5.3l-4.1,7.4c-0.1,0.1-0.2,0.3-0.3,0.5
		C122.4,117.2,121.4,116.5,120.3,115.9z"/>
	<path fill="#FFFFFF" d="M148.1,141.8c-0.7,0.3-1.8,0.3-2.6,0.1c-1.9-0.5-3.8-1.2-5.6-2c-1.2-0.5-1.9-0.2-2.3,0.9
		c1.2,1.3,2.4,2.5,3.6,3.7c0.7,0.7,0.7,1.4-0.3,1.8c-2.4-1.3-2.4-1.3-4.3,0.7c-4.1,4.3-8.2,8.5-12.1,12.7l-10.3-7.3
		c4-4.5,8-9,12.1-13.5c0.9-1,1.6-2.5,2.7-2.8c1.2-0.3,2.6,0.5,4,0.9c2.2,0.6,2.5,0.4,3.7-1.6c-1.1-1-2.2-2-3.1-3.1
		c-0.5-0.6-0.9-1.5-1-2.3c-0.3-2.6-0.4-5.1-0.8-7.7c-0.3-2.2-0.8-4.5-1.2-6.7l0,0l-0.5-2.6c0,0-0.7-0.7,0.6-2.6l0,0
		c0.2-0.4,0.5-0.7,0.8-0.9c2.4-1.8,4.9-3.5,7.4-5.2c0.4-0.3,1.2-0.5,1.6-0.3c3.2,1.4,6.8,2.4,8.3,6.1c0.5,1.1,1.1,0.9,1.8,0.2
		c0.2-0.2,0.4-0.6,0.8-1c0.3,0.2,0.5,0.4,0.8,0.6c-1.5,2.5-2.8,3.1-5.4,2.1c-1.4-0.5-2.8-1.3-4.2-2c-0.4-0.2-1.1-0.4-1.3-0.2
		c-1.7,1.3-3.4,2.8-5.1,4.2c0.7,1.3,1.3,2.5,1.8,3.7c2.2,4.8,3.3,9.7,1.3,14.9c-0.1,0.3,0,0.8,0.2,0.9c0.3,0.2,0.7,0.2,1.1,0.2
		c2.8-0.5,5.6-1.2,8.4-1.4c3.2-0.2,6.4,0.2,8.8,3.1C154.6,137.7,151.6,140.2,148.1,141.8z"/>
</g>
<g>
	<path fill="#FFFFFF" d="M69.1,191.9h-3.7v-15.8h5.4c1.5,0,2.7,0.3,3.4,1s1.1,1.8,1.1,3.3c0,0.8-0.1,1.6-0.4,2.2
		c-0.3,0.6-0.8,1.1-1.6,1.4v0c0.5,0.1,0.9,0.3,1.3,0.7c0.3,0.4,0.5,0.8,0.5,1.3c0,0.3,0.1,0.7,0.1,1.2s0,0.9,0.1,1.4
		c0,0.5,0,0.9,0.1,1.4c0,0.4,0.1,0.8,0.1,1c0.1,0.2,0.2,0.4,0.4,0.5v0.2h-4c-0.1-0.2-0.1-0.3-0.1-0.5c0-0.1-0.1-0.3-0.1-0.5
		c0-0.7,0-1.4,0-2c0-0.6,0-1.2-0.1-1.7c-0.1-0.5-0.2-0.9-0.3-1.2c-0.2-0.3-0.5-0.5-0.9-0.5h-1.2V191.9z M69.1,182.9h1.3
		c0.3,0,0.5-0.1,0.7-0.2c0.2-0.1,0.3-0.3,0.4-0.4c0.1-0.2,0.2-0.4,0.2-0.6c0-0.2,0.1-0.5,0.1-0.7c0-0.5,0-0.8-0.1-1.1
		c-0.1-0.3-0.3-0.5-0.5-0.6c-0.2-0.1-0.5-0.2-0.8-0.2c-0.3,0-0.7,0-1.2,0V182.9z"/>
	<path fill="#FFFFFF" d="M80.3,186.6v2.1c0,0.3,0.1,0.6,0.2,0.8c0.2,0.2,0.4,0.4,0.8,0.4c0.3,0,0.5,0,0.7-0.2
		c0.2-0.1,0.3-0.3,0.3-0.5c0.1-0.2,0.1-0.4,0.1-0.7s0-0.5,0-0.7h3.3c0.1,1.5-0.3,2.6-1,3.3c-0.8,0.7-1.9,1.1-3.3,1.1
		c-0.6,0-1.2-0.1-1.7-0.2c-0.5-0.1-1-0.3-1.4-0.6c-0.4-0.3-0.7-0.7-1-1.1c-0.2-0.5-0.4-1-0.4-1.7v-4.8c0-0.8,0.1-1.4,0.3-1.9
		c0.2-0.5,0.5-0.9,0.9-1.2c0.4-0.3,0.9-0.5,1.4-0.7c0.6-0.1,1.2-0.2,1.8-0.2c0.6,0,1.2,0.1,1.7,0.2s1,0.3,1.4,0.6
		c0.4,0.3,0.7,0.6,1,1.1c0.3,0.4,0.4,1,0.4,1.6v3.4H80.3z M82.7,184.4v-1.2c0-0.1,0-0.2-0.1-0.4s-0.1-0.3-0.2-0.4
		c-0.1-0.1-0.2-0.2-0.4-0.3c-0.1-0.1-0.3-0.1-0.5-0.1c-0.5,0-0.8,0.2-0.9,0.5c-0.2,0.3-0.2,0.7-0.2,1.1v0.8H82.7z"/>
	<path fill="#FFFFFF" d="M87,182.6v-2.4h1.3v-3.4h3.3v3.4h1.6v2.4h-1.6v6.2c0,0.3,0.1,0.6,0.2,0.7c0.1,0.1,0.3,0.2,0.5,0.2
		c0.2,0,0.3,0,0.4,0c0.1,0,0.2,0,0.4,0v2.4c-0.4,0.1-0.7,0.1-1.1,0.1c-0.4,0-0.7,0.1-1.1,0.1c-0.9,0-1.6-0.2-2.1-0.7
		c-0.5-0.5-0.7-1.1-0.7-2v-6.8H87z"/>
	<path fill="#FFFFFF" d="M97.7,180.1v1.8h0c0.2-0.6,0.5-1.1,0.9-1.5c0.4-0.4,1-0.6,1.7-0.6v3.8c-0.2,0-0.3,0-0.5-0.1
		c-0.2,0-0.3,0-0.5,0c-0.5,0-0.8,0.1-1,0.2s-0.3,0.5-0.4,0.9v7.2h-3.3v-11.8H97.7z"/>
	<path fill="#FFFFFF" d="M102,179v-2.8h3.3v2.8H102z M102,191.9v-11.8h3.3v11.8H102z"/>
	<path fill="#FFFFFF" d="M110.9,181.1L110.9,181.1c0.3-0.5,0.7-0.8,1.1-1c0.5-0.2,0.9-0.3,1.4-0.3c0.5,0,1,0.1,1.4,0.4
		c0.4,0.2,0.7,0.6,0.9,1c0.2,0.4,0.4,0.8,0.5,1.3c0.1,0.5,0.1,0.9,0.1,1.4v4.1c0,0.5,0,1-0.1,1.5s-0.2,1-0.4,1.4
		c-0.2,0.4-0.5,0.8-0.9,1c-0.4,0.3-0.9,0.4-1.5,0.4c-0.5,0-1-0.2-1.5-0.5c-0.5-0.3-0.9-0.7-1.1-1.2h0v1.3h-3.1v-15.8h3.3V181.1z
		 M112.9,184.5c0-0.2,0-0.4,0-0.6c0-0.2,0-0.4-0.1-0.6c-0.1-0.2-0.2-0.4-0.3-0.5c-0.1-0.1-0.3-0.2-0.6-0.2c-0.4,0-0.7,0.2-0.9,0.6
		c-0.1,0.4-0.2,0.9-0.2,1.5v2.8c0,0.3,0,0.5,0,0.8s0.1,0.5,0.2,0.7s0.2,0.4,0.3,0.5s0.3,0.2,0.5,0.2c0.3,0,0.5-0.1,0.6-0.2
		c0.1-0.1,0.2-0.3,0.3-0.5c0.1-0.2,0.1-0.4,0.1-0.7c0-0.2,0-0.4,0-0.6V184.5z"/>
	<path fill="#FFFFFF" d="M123.4,191.9v-1.4h0c-0.1,0.2-0.2,0.4-0.4,0.7c-0.2,0.2-0.3,0.4-0.5,0.6c-0.2,0.2-0.4,0.3-0.7,0.4
		c-0.2,0.1-0.5,0.2-0.8,0.2c-1,0-1.7-0.2-2.2-0.6c-0.5-0.4-0.8-1-0.8-1.8v-9.7h3.3v8.4c0,0.1,0,0.3,0.1,0.4c0,0.1,0.1,0.2,0.1,0.3
		c0.1,0.1,0.1,0.2,0.2,0.2c0.1,0,0.2,0.1,0.4,0.1c0.3,0,0.5-0.1,0.7-0.3s0.3-0.4,0.3-0.7v-8.4h3.3v11.8H123.4z"/>
	<path fill="#FFFFFF" d="M127.8,182.6v-2.4h1.3v-3.4h3.3v3.4h1.6v2.4h-1.6v6.2c0,0.3,0.1,0.6,0.2,0.7c0.1,0.1,0.3,0.2,0.5,0.2
		c0.2,0,0.3,0,0.4,0c0.1,0,0.2,0,0.4,0v2.4c-0.4,0.1-0.7,0.1-1.1,0.1c-0.3,0-0.7,0.1-1.1,0.1c-0.9,0-1.6-0.2-2.1-0.7
		c-0.5-0.5-0.7-1.1-0.7-2v-6.8H127.8z"/>
	<path fill="#FFFFFF" d="M135.8,179v-2.8h3.3v2.8H135.8z M135.8,191.9v-11.8h3.3v11.8H135.8z"/>
	<path fill="#FFFFFF" d="M141.2,183.8c0-0.8,0.1-1.4,0.3-1.9c0.2-0.5,0.5-0.9,0.9-1.2c0.4-0.3,0.8-0.5,1.4-0.7
		c0.5-0.1,1.1-0.2,1.8-0.2c1.5,0,2.6,0.3,3.3,1s1.1,1.7,1.1,3v4.8c-0.1,1.3-0.5,2.3-1.3,2.8s-1.8,0.8-3.1,0.8
		c-0.6,0-1.2-0.1-1.7-0.2c-0.5-0.1-1-0.3-1.4-0.6c-0.4-0.3-0.7-0.7-0.9-1.1c-0.2-0.5-0.3-1-0.3-1.7V183.8z M144.6,188.8
		c0,0.3,0.1,0.6,0.3,0.8c0.2,0.2,0.4,0.3,0.8,0.3c0.3,0,0.6-0.1,0.8-0.3c0.2-0.2,0.2-0.4,0.3-0.8v-5.2c0-0.4-0.1-0.7-0.2-1
		c-0.1-0.3-0.4-0.4-0.8-0.4c-0.4,0-0.7,0.1-0.8,0.4c-0.1,0.3-0.2,0.6-0.2,1V188.8z"/>
	<path fill="#FFFFFF" d="M155,180.1v1.5h0c0.1-0.2,0.2-0.4,0.4-0.7c0.2-0.2,0.3-0.4,0.5-0.6s0.4-0.3,0.7-0.4
		c0.2-0.1,0.5-0.2,0.8-0.2c0.4,0,0.8,0.1,1.1,0.2c0.4,0.1,0.7,0.3,1,0.5c0.3,0.2,0.5,0.5,0.7,0.8s0.2,0.7,0.2,1v9.6H157v-8.4
		c0-0.3-0.1-0.5-0.2-0.7c-0.1-0.2-0.3-0.3-0.7-0.3c-0.6,0-0.9,0.3-0.9,1v8.4h-3.3v-11.8H155z"/>
</g>
</svg>
