<!-- Generator: Adobe Illustrator 19.1.0, SVG Export Plug-In  -->
<svg version="1.1"
	 xmlns="http://www.w3.org/2000/svg" xmlns:xlink="http://www.w3.org/1999/xlink" xmlns:a="http://ns.adobe.com/AdobeSVGViewerExtensions/3.0/"
	 x="0px" y="0px" width="12.9px" height="28.1px" viewBox="0 0 12.9 28.1" enable-background="new 0 0 12.9 28.1"
	 xml:space="preserve">
<defs>
</defs>
<g>
	<path fill="#9DA2AC" d="M9.9,0c1.9,0,2.8,1.3,2.8,2.8c0,1.8-1.6,3.5-3.8,3.5c-1.8,0-2.8-1.1-2.8-2.8C6.2,2,7.4,0,9.9,0z M4.1,28.1
		c-1.5,0-2.6-0.9-1.5-5L4.3,16c0.3-1.1,0.3-1.6,0-1.6c-0.4,0-2.4,0.8-3.5,1.6L0,14.7c3.6-3.1,7.8-4.9,9.6-4.9c1.5,0,1.7,1.8,1,4.5
		l-2,7.5c-0.3,1.3-0.2,1.8,0.1,1.8c0.4,0,1.9-0.6,3.3-1.7l0.8,1.1C9.4,26.8,5.6,28.1,4.1,28.1z"/>
</g>
</svg>
