<!-- Generator: Adobe Illustrator 19.1.0, SVG Export Plug-In  -->
<svg version="1.1"
	 xmlns="http://www.w3.org/2000/svg" xmlns:xlink="http://www.w3.org/1999/xlink" xmlns:a="http://ns.adobe.com/AdobeSVGViewerExtensions/3.0/"
	 x="0px" y="0px" width="28.9px" height="29.9px" viewBox="0 0 28.9 29.9" enable-background="new 0 0 28.9 29.9"
	 xml:space="preserve">
<defs>
</defs>
<path fill="#78808C" d="M1.3,29.9c0.4,0,0.7-0.1,0.9-0.3l9.9-10.5l2.4-2.5l2.4,2.5l9.9,10.5c0.2,0.2,0.6,0.3,0.9,0.3
	c0.4,0,0.7-0.1,1-0.4c0.2-0.2,0.3-0.4,0.3-0.6c0-0.2-0.1-0.4-0.3-0.6l-0.1-0.1l-0.1-0.1l-10.4-11L16,14.9l2.1-2.2l10.4-11l0.1-0.1
	l0.1-0.1c0.2-0.2,0.3-0.4,0.3-0.6c0-0.2-0.1-0.4-0.3-0.6c-0.2-0.2-0.6-0.4-1-0.4c-0.4,0-0.7,0.1-0.9,0.3l-9.9,10.5l-2.4,2.5
	l-2.4-2.5L2.2,0.3C2,0.1,1.6,0,1.3,0c-0.4,0-0.7,0.1-1,0.4C0.1,0.5,0,0.7,0,0.9c0,0.2,0.1,0.4,0.3,0.6l0.1,0.1l0.1,0.1l10.4,11
	l2.1,2.2l-2.1,2.2l-10.4,11l-0.1,0.1l-0.1,0.1C0.1,28.5,0,28.7,0,28.9c0,0.2,0.1,0.4,0.3,0.6C0.5,29.7,0.9,29.9,1.3,29.9z"/>
</svg>
