<!-- Generator: Adobe Illustrator 19.1.0, SVG Export Plug-In  -->
<svg version="1.1"
	 xmlns="http://www.w3.org/2000/svg" xmlns:xlink="http://www.w3.org/1999/xlink" xmlns:a="http://ns.adobe.com/AdobeSVGViewerExtensions/3.0/"
	 x="0px" y="0px" width="38.3px" height="38.3px" viewBox="0 0 38.3 38.3" enable-background="new 0 0 38.3 38.3"
	 xml:space="preserve">
<defs>
</defs>
<g>
	<g>
		<g>
			<path fill="#FFFFFF" d="M29.7,18.5L20,8.9c-0.5-0.5-1.3-0.5-1.8,0l-9.6,9.6C8.1,19,8.3,19.4,9,19.4h2v7.4c0,0.5,0,1,1,1h4.7v-7.4
				h4.9v7.4h4.9c0.7,0,0.8-0.4,0.8-1v-7.4h2C30,19.4,30.2,19,29.7,18.5z"/>
		</g>
	</g>
	<g>
		<path fill="#FFFFFF" d="M19.1,38.3C8.6,38.3,0,29.7,0,19.1S8.6,0,19.1,0c10.6,0,19.1,8.6,19.1,19.1S29.7,38.3,19.1,38.3z M19.1,2
			C9.7,2,2,9.7,2,19.1c0,9.5,7.7,17.1,17.1,17.1c9.5,0,17.1-7.7,17.1-17.1C36.3,9.7,28.6,2,19.1,2z"/>
	</g>
</g>
</svg>
