<!-- Generator: Adobe Illustrator 19.1.0, SVG Export Plug-In  -->
<svg version="1.1"
	 xmlns="http://www.w3.org/2000/svg" xmlns:xlink="http://www.w3.org/1999/xlink" xmlns:a="http://ns.adobe.com/AdobeSVGViewerExtensions/3.0/"
	 x="0px" y="0px" width="26.8px" height="27px" viewBox="0 0 26.8 27" enable-background="new 0 0 26.8 27" xml:space="preserve">
<defs>
</defs>
<g>
	<path fill="#F4EAE4" d="M23.8,3v21H3V3H23.8 M26.8,0H0v27h26.8V0L26.8,0z"/>
</g>
<g>
	<g>
		<path fill="#D71920" d="M11.4,23.5c-0.6,0-1.1-0.3-1.5-0.7l-4.7-6.3c-0.6-0.8-0.5-2,0.4-2.6c0.8-0.6,2-0.5,2.6,0.4l3.1,4.1
			l7.9-12.6c0.5-0.9,1.7-1.1,2.6-0.6c0.9,0.5,1.1,1.7,0.6,2.6L13,22.6C12.6,23.1,12.1,23.5,11.4,23.5C11.4,23.5,11.4,23.5,11.4,23.5
			z"/>
	</g>
</g>
</svg>
