<?xml version="1.0" encoding="utf-8"?>
<!-- Generator: Adobe Illustrator 19.1.0, SVG Export Plug-In . SVG Version: 6.00 Build 0)  -->
<svg version="1.1" id="Layer_1" xmlns="http://www.w3.org/2000/svg" xmlns:xlink="http://www.w3.org/1999/xlink" x="0px" y="0px"
	 viewBox="-625.8 385.3 30.5 31.5" style="enable-background:new -625.8 385.3 30.5 31.5;" xml:space="preserve">
<style type="text/css">
	.st0{fill:#424242;stroke:#424242;stroke-miterlimit:10;}
</style>
<path class="st0" d="M-623.7,416c0.4,0,0.7-0.1,0.9-0.3l9.9-10.5l2.4-2.5l2.4,2.5l9.9,10.5c0.2,0.2,0.6,0.3,0.9,0.3
	c0.4,0,0.7-0.1,1-0.4c0.2-0.2,0.3-0.4,0.3-0.6s-0.1-0.4-0.3-0.6l-0.1-0.1l-0.1-0.1l-10.4-11l-2.1-2.2l2.1-2.2l10.4-11l0.1-0.1
	l0.1-0.1c0.2-0.2,0.3-0.4,0.3-0.6s-0.1-0.4-0.3-0.6c-0.2-0.2-0.6-0.4-1-0.4c-0.4,0-0.7,0.1-0.9,0.3l-9.9,10.5l-2.4,2.5l-2.4-2.5
	l-9.9-10.4c-0.2-0.2-0.6-0.3-0.9-0.3c-0.4,0-0.7,0.1-1,0.4c-0.2,0.1-0.3,0.3-0.3,0.5s0.1,0.4,0.3,0.6l0.1,0.1l0.1,0.1l10.4,11
	l2.1,2.2l-2.1,2.2l-10.4,11l-0.1,0.1l-0.1,0.1c-0.2,0.2-0.3,0.4-0.3,0.6s0.1,0.4,0.3,0.6C-624.5,415.8-624.1,416-623.7,416z"/>
</svg>
