<?xml version="1.0" encoding="utf-8"?>
<!-- Generator: Adobe Illustrator 19.1.0, SVG Export Plug-In . SVG Version: 6.00 Build 0)  -->
<svg version="1.1" id="Layer_1" xmlns="http://www.w3.org/2000/svg" xmlns:xlink="http://www.w3.org/1999/xlink" x="0px" y="0px"
	 viewBox="-154 272.1 225.9 225.9" style="enable-background:new -154 272.1 225.9 225.9;" xml:space="preserve">
<style type="text/css">
	.st0{fill:#D71921;}
	.st1{opacity:0.75;}
	.st2{fill:#FFFFFF;}
	.st3{fill:#3B4552;}
</style>
<rect x="-154" y="272.1" class="st0" width="225.9" height="225.9"/>
<g class="st1">
	<path class="st2" d="M62.2,488.3h-206.5V281.8H62.2V488.3z M-142.3,486.3H60.2V283.8h-202.5V486.3z"/>
</g>
<g>
	<path class="st2" d="M1.3,394.7c-0.6-1.1-1.3-2.1-2.2-2.9c-7.3-7.6-14.7-15.1-22-22.7c-1.8-1.9-1.8-2.1,0.1-4
		c7.4-7.6,14.8-15.1,22.3-22.7c3.3-3.4,3.4-6.6,0.2-10c-2.5-2.6-5-5.1-7.5-7.6c-2.3-2.3-5.2-2.3-7.6,0c-3.9,3.8-7.8,7.6-11.7,11.4
		c-4.4,4.3-8.8,8.6-13.2,12.9c-1,1-1.6,0.8-2.5-0.1c-2.4-2.5-4.9-5-7.4-7.5c-5.7-5.4-11.3-11-16.9-16.4c-2.5-2.4-5.6-2.7-8.1-0.5
		c-3.2,2.9-6.1,6.1-8.9,9.4c-1.6,1.8-1.4,4.2,0,6.2c0.5,0.8,1.1,1.5,1.8,2.2c7.6,7.6,15.2,15.1,22.8,22.6c1.7,1.7,1.8,1.7,0.1,3.4
		c-7.6,7.6-15.2,15.1-22.8,22.7c-1.1,1.1-1.8,2.8-2.5,4c0.4,1.4,0.5,2.4,1,3.1c3,3.6,5.9,7.3,9.3,10.4c3.4,3,5.8,2.6,9-0.7
		c7.4-7.5,14.8-15,22.2-22.5c1.7-1.7,2.1-1.7,3.9,0c7.2,7.1,14.4,14.1,21.5,21.2c1,1,2,2.1,3.2,3c2.6,2,4.8,1.9,7.2-0.4
		c2.6-2.7,5.2-5.4,7.8-8.1C2.3,399.3,2.6,397,1.3,394.7z"/>
	<path class="st3" d="M-11.1,412.6c-1.4,0-2.9-0.6-4.4-1.7c-0.9-0.7-1.7-1.5-2.4-2.3c-0.3-0.3-0.6-0.6-0.9-0.9l-8.4-8.3
		c-4.4-4.3-8.7-8.6-13.1-12.9c-0.5-0.5-0.7-0.7-0.9-0.8c-0.2,0.1-0.4,0.3-0.9,0.8c-7.4,7.5-14.8,15-22.2,22.5
		c-3.9,4-7.2,4.2-11.1,0.7c-2.8-2.5-5.2-5.4-7.5-8.2c-0.6-0.8-1.3-1.5-1.9-2.3c-0.6-0.7-0.8-1.5-1-2.4c-0.1-0.4-0.2-0.8-0.3-1.2
		l-0.2-0.7l0.4-0.6c0.2-0.4,0.4-0.7,0.6-1.1c0.5-1,1.2-2.2,2.1-3.1c5.6-5.6,11.3-11.3,16.8-16.8c2-2,4-4,6-5.9
		c0.2-0.2,0.4-0.4,0.6-0.6c-0.2-0.2-0.4-0.4-0.6-0.6l-0.2-0.1c-7.6-7.5-15.2-15.1-22.8-22.6c-0.6-0.7-1.2-1.4-1.9-2.4
		c-1.9-2.7-1.9-5.8,0.1-8c2.5-2.9,5.6-6.4,9-9.5c2.9-2.7,7-2.5,10.1,0.5c4.4,4.3,8.9,8.7,13.2,13l5,4.9c2,2,4.1,4,6.1,6.1
		c0.1,0.1,0.2,0.2,0.3,0.2l0.1-0.1c3.4-3.4,7-6.9,10.4-10.2l4.9-4.8c3.2-3.1,6.3-6.2,9.5-9.3c3-2.9,6.8-2.9,9.7,0
		c3,3,5.4,5.4,7.6,7.6c3.8,3.9,3.7,8.1-0.2,12.1l-22.3,22.7c-0.2,0.2-0.7,0.7-0.9,1c0.2,0.3,0.6,0.7,0.8,0.9l5.9,6.1
		c5.4,5.5,10.8,11,16.1,16.6c1,1,1.8,2.1,2.4,3.3l0,0c1.6,2.9,1.2,5.8-1.1,8.2c-2.1,2.2-5,5.2-7.9,8.1
		C-7.8,411.8-9.4,412.6-11.1,412.6z M-41.2,382.7c0.9,0,1.8,0.6,3,1.7c4.4,4.3,8.7,8.6,13.1,12.9l8.4,8.3c0.3,0.3,0.6,0.6,0.9,0.9
		c0.7,0.7,1.4,1.4,2.1,2c2,1.6,3.4,1.5,5.2-0.3c2.9-2.9,5.7-5.8,7.8-8c1.4-1.4,1.6-3,0.6-4.7l0,0c-0.5-0.9-1.2-1.8-1.9-2.6
		c-5.4-5.5-10.7-11.1-16.1-16.6l-5.9-6.1c-2.4-2.4-2.4-3.6,0.1-6.1l22.3-22.7c2.8-2.8,2.8-5.1,0.1-7.9c-2.1-2.2-4.5-4.6-7.5-7.6
		c-1.8-1.7-3.7-1.7-5.5,0c-3.2,3.1-6.4,6.2-9.5,9.3l-5,4.9c-3.4,3.3-6.9,6.8-10.4,10.2c-0.5,0.5-1.2,1.1-2.3,1.1l0,0
		c-1.1,0-1.8-0.7-2.4-1.3c-2-2.1-4-4.1-6-6.1l-4.9-4.9c-4.3-4.3-8.8-8.7-13.2-12.9c-2-1.9-4.2-2.1-6-0.4c-3.3,3.1-6.3,6.4-8.8,9.3
		c-1.5,1.7-0.4,3.6,0.1,4.4c0.6,0.8,1.1,1.5,1.6,2c7.6,7.6,15.2,15.1,22.8,22.6l0.1,0.1c1,1,1.7,1.7,1.7,2.7s-0.7,1.7-1.7,2.8
		c-2,2-4,4-6,6c-5.5,5.5-11.2,11.1-16.8,16.7c-0.6,0.6-1.1,1.5-1.6,2.4c-0.1,0.2-0.3,0.5-0.4,0.7c0.1,0.3,0.1,0.5,0.2,0.8
		c0.1,0.5,0.2,1,0.4,1.2c0.7,0.8,1.3,1.5,1.9,2.3c2.3,2.7,4.6,5.6,7.3,7.9c2.6,2.3,4.2,2.2,6.9-0.6c7.4-7.5,14.8-15,22.2-22.5
		C-43,383.3-42.1,382.7-41.2,382.7z"/>
</g>
<g>
	<path class="st2" d="M-114,454.6L-114,454.6l0.3,8.8h-3.5v-15.8h3.8l2.9,8.8h0.1l-0.4-8.8h3.5v15.8h-3.8L-114,454.6z"/>
	<path class="st2" d="M-105.6,455.3c0-0.8,0.1-1.4,0.3-1.9c0.2-0.5,0.5-0.9,0.9-1.2c0.4-0.3,0.8-0.5,1.4-0.7
		c0.5-0.1,1.1-0.2,1.8-0.2c1.5,0,2.6,0.3,3.3,1c0.7,0.7,1.1,1.7,1.1,3v4.8c-0.1,1.3-0.5,2.3-1.3,2.8c-0.8,0.6-1.8,0.8-3.1,0.8
		c-0.6,0-1.2-0.1-1.7-0.2s-1-0.3-1.4-0.6s-0.7-0.7-0.9-1.1s-0.3-1-0.3-1.7V455.3z M-102.2,460.3c0,0.3,0.1,0.6,0.3,0.8
		c0.2,0.2,0.4,0.3,0.8,0.3c0.3,0,0.6-0.1,0.8-0.3c0.2-0.2,0.2-0.4,0.3-0.8v-5.2c0-0.4-0.1-0.7-0.2-1s-0.4-0.4-0.8-0.4
		c-0.4,0-0.7,0.1-0.8,0.4s-0.2,0.6-0.2,1V460.3z"/>
	<path class="st2" d="M-79.8,458.4c0,0.9-0.1,1.7-0.3,2.3c-0.2,0.7-0.4,1.2-0.8,1.7c-0.4,0.4-0.9,0.8-1.5,1s-1.4,0.3-2.4,0.3
		s-1.7-0.1-2.4-0.3c-0.6-0.2-1.2-0.6-1.6-1s-0.7-1-0.9-1.7c-0.2-0.7-0.3-1.5-0.3-2.3V452c0-1.5,0.4-2.7,1.3-3.5
		c0.9-0.8,2.1-1.2,3.7-1.2s2.9,0.4,3.7,1.2c0.8,0.8,1.3,2,1.3,3.5V458.4z M-83.5,452.2c0-0.2,0-0.5,0-0.7s-0.1-0.5-0.2-0.7
		s-0.2-0.4-0.4-0.5c-0.2-0.1-0.4-0.2-0.7-0.2c-0.3,0-0.5,0.1-0.7,0.2c-0.2,0.1-0.3,0.3-0.4,0.5c-0.1,0.2-0.2,0.4-0.2,0.7
		c0,0.3,0,0.5,0,0.7v6.5c0,0.2,0,0.5,0,0.7c0,0.3,0.1,0.5,0.2,0.7c0.1,0.2,0.2,0.4,0.4,0.6c0.2,0.1,0.4,0.2,0.7,0.2s0.5-0.1,0.7-0.2
		c0.2-0.1,0.3-0.3,0.4-0.6c0.1-0.2,0.1-0.5,0.2-0.7c0-0.3,0-0.5,0-0.7V452.2z"/>
	<path class="st2" d="M-78.8,454.1v-2.4h1.3v-3.4h3.3v3.4h1.6v2.4h-1.6v6.2c0,0.3,0.1,0.6,0.2,0.7c0.1,0.1,0.3,0.2,0.5,0.2
		c0.2,0,0.3,0,0.4,0s0.2,0,0.4,0v2.4c-0.4,0.1-0.7,0.1-1.1,0.1c-0.4,0-0.7,0.1-1.1,0.1c-0.9,0-1.6-0.2-2.1-0.7
		c-0.5-0.5-0.7-1.1-0.7-2v-6.8H-78.8z"/>
	<path class="st2" d="M-67.7,452.6L-67.7,452.6c0.4-0.5,0.8-0.8,1.2-1c0.4-0.2,0.9-0.3,1.3-0.3c0.4,0,0.8,0.1,1.1,0.2
		c0.3,0.1,0.6,0.3,0.8,0.6c0.2,0.2,0.4,0.5,0.5,0.9c0.1,0.3,0.2,0.7,0.2,1v9.4h-3.3V455c0-0.3-0.1-0.6-0.2-0.8
		c-0.1-0.2-0.4-0.3-0.8-0.3c-0.4,0-0.6,0.1-0.8,0.4c-0.1,0.3-0.2,0.5-0.2,0.8v8.1h-3.3v-15.8h3.3V452.6z"/>
	<path class="st2" d="M-57.4,458.1v2.1c0,0.3,0.1,0.6,0.2,0.8c0.2,0.2,0.4,0.4,0.8,0.4c0.3,0,0.5,0,0.7-0.2c0.2-0.1,0.3-0.3,0.3-0.5
		s0.1-0.4,0.1-0.7c0-0.2,0-0.5,0-0.7h3.3c0.1,1.5-0.3,2.6-1,3.3c-0.8,0.7-1.9,1.1-3.3,1.1c-0.6,0-1.2-0.1-1.7-0.2
		c-0.5-0.1-1-0.3-1.4-0.6s-0.7-0.7-1-1.1c-0.2-0.5-0.4-1-0.4-1.7v-4.8c0-0.8,0.1-1.4,0.3-1.9c0.2-0.5,0.5-0.9,0.9-1.2
		c0.4-0.3,0.9-0.5,1.4-0.7c0.6-0.1,1.2-0.2,1.8-0.2c0.6,0,1.2,0.1,1.7,0.2c0.5,0.1,1,0.3,1.4,0.6c0.4,0.3,0.7,0.6,1,1.1
		c0.3,0.4,0.4,1,0.4,1.6v3.4H-57.4z M-55.1,455.9v-1.2c0-0.1,0-0.2-0.1-0.4c0-0.1-0.1-0.3-0.2-0.4c-0.1-0.1-0.2-0.2-0.4-0.3
		s-0.3-0.1-0.5-0.1c-0.5,0-0.8,0.2-0.9,0.5c-0.2,0.3-0.2,0.7-0.2,1.1v0.8H-55.1z"/>
	<path class="st2" d="M-47,451.6v1.8h0c0.2-0.6,0.5-1.1,0.9-1.5c0.4-0.4,1-0.6,1.7-0.6v3.8c-0.2,0-0.3,0-0.5-0.1s-0.3,0-0.5,0
		c-0.5,0-0.8,0.1-1,0.2c-0.2,0.1-0.3,0.5-0.4,0.9v7.2h-3.3v-11.8H-47z"/>
	<path class="st2" d="M-34.2,463.4h-3.7v-15.8h5.4c1.5,0,2.7,0.3,3.4,1s1.1,1.8,1.1,3.3c0,0.8-0.1,1.6-0.4,2.2
		c-0.3,0.6-0.8,1.1-1.6,1.4v0c0.5,0.1,0.9,0.3,1.3,0.7s0.5,0.8,0.5,1.3c0,0.3,0.1,0.7,0.1,1.2c0,0.5,0,0.9,0.1,1.4
		c0,0.5,0,0.9,0.1,1.4c0,0.4,0.1,0.8,0.1,1c0.1,0.2,0.2,0.4,0.4,0.5v0.2h-4c-0.1-0.2-0.1-0.3-0.1-0.5c0-0.1-0.1-0.3-0.1-0.5
		c0-0.7,0-1.4,0-2s0-1.2-0.1-1.7c-0.1-0.5-0.2-0.9-0.3-1.2c-0.2-0.3-0.5-0.5-0.9-0.5h-1.2V463.4z M-34.2,454.3h1.3
		c0.3,0,0.5-0.1,0.7-0.2c0.2-0.1,0.3-0.3,0.4-0.4s0.2-0.4,0.2-0.6s0.1-0.5,0.1-0.7c0-0.5,0-0.8-0.1-1.1c-0.1-0.3-0.3-0.5-0.5-0.6
		c-0.2-0.1-0.5-0.2-0.8-0.2c-0.3,0-0.7,0-1.2,0V454.3z"/>
	<path class="st2" d="M-23,458.1v2.1c0,0.3,0.1,0.6,0.2,0.8c0.2,0.2,0.4,0.4,0.8,0.4c0.3,0,0.5,0,0.7-0.2c0.2-0.1,0.3-0.3,0.3-0.5
		c0.1-0.2,0.1-0.4,0.1-0.7c0-0.2,0-0.5,0-0.7h3.3c0.1,1.5-0.3,2.6-1,3.3c-0.8,0.7-1.9,1.1-3.3,1.1c-0.6,0-1.2-0.1-1.7-0.2
		c-0.5-0.1-1-0.3-1.4-0.6s-0.7-0.7-1-1.1c-0.2-0.5-0.4-1-0.4-1.7v-4.8c0-0.8,0.1-1.4,0.3-1.9c0.2-0.5,0.5-0.9,0.9-1.2
		c0.4-0.3,0.9-0.5,1.4-0.7c0.6-0.1,1.2-0.2,1.8-0.2c0.6,0,1.2,0.1,1.7,0.2c0.5,0.1,1,0.3,1.4,0.6c0.4,0.3,0.7,0.6,1,1.1
		s0.4,1,0.4,1.6v3.4H-23z M-20.7,455.9v-1.2c0-0.1,0-0.2-0.1-0.4c0-0.1-0.1-0.3-0.2-0.4c-0.1-0.1-0.2-0.2-0.4-0.3
		c-0.1-0.1-0.3-0.1-0.5-0.1c-0.5,0-0.8,0.2-0.9,0.5s-0.2,0.7-0.2,1.1v0.8H-20.7z"/>
	<path class="st2" d="M-10.2,462.4c-0.4,0.5-0.8,0.8-1.3,1.1c-0.4,0.2-1,0.4-1.6,0.4c-1,0-1.7-0.3-2.2-0.9c-0.5-0.6-0.8-1.3-0.8-2.3
		c0-0.7,0.1-1.2,0.3-1.7s0.4-0.8,0.7-1.1c0.3-0.3,0.6-0.5,0.9-0.7c0.3-0.2,0.7-0.3,1.1-0.5s0.7-0.2,1.1-0.3c0.3-0.1,0.7-0.2,0.9-0.3
		c0.3-0.1,0.5-0.3,0.7-0.5s0.3-0.4,0.3-0.8s-0.1-0.6-0.3-0.9c-0.2-0.2-0.4-0.4-0.8-0.4c-0.3,0-0.5,0-0.7,0.1
		c-0.2,0.1-0.3,0.2-0.4,0.4s-0.1,0.4-0.2,0.6c0,0.2,0,0.5-0.1,0.7H-16c0-0.7,0-1.4,0.3-1.9c0.2-0.5,0.5-0.9,0.9-1.3
		c0.4-0.3,0.9-0.6,1.5-0.7c0.6-0.1,1.2-0.2,1.9-0.2c0.8,0,1.5,0.1,2.1,0.2c0.6,0.1,1,0.3,1.4,0.6c0.4,0.3,0.6,0.7,0.8,1.1
		c0.2,0.5,0.2,1,0.2,1.6v7.2c0,0.2,0,0.4,0.1,0.7s0.1,0.4,0.2,0.6h-3.3L-10.2,462.4z M-10.3,457.7c-0.3,0.2-0.6,0.3-0.9,0.5
		s-0.5,0.3-0.7,0.4c-0.2,0.2-0.4,0.3-0.5,0.6c-0.2,0.2-0.2,0.5-0.2,0.9c0,0.4,0.1,0.7,0.3,0.9c0.2,0.2,0.5,0.4,0.9,0.4
		c0.3,0,0.5-0.1,0.6-0.2s0.3-0.3,0.4-0.4c0.1-0.2,0.2-0.4,0.2-0.6s0.1-0.4,0.1-0.6V457.7z"/>
	<path class="st2" d="M-0.3,455.1c0-0.2,0-0.4-0.1-0.6s-0.1-0.4-0.1-0.5c-0.1-0.2-0.2-0.3-0.3-0.4c-0.1-0.1-0.3-0.1-0.6-0.1
		c-0.3,0-0.6,0.1-0.8,0.2s-0.3,0.4-0.3,0.8c0,0.3,0.1,0.6,0.3,0.7c0.2,0.2,0.5,0.3,0.7,0.5c0.5,0.3,1.1,0.5,1.6,0.7
		c0.5,0.2,1,0.5,1.4,0.8c0.4,0.3,0.8,0.7,1,1.1c0.3,0.4,0.4,1,0.4,1.7c0,0.7-0.1,1.2-0.3,1.7c-0.2,0.5-0.5,0.9-1,1.2
		c-0.4,0.3-0.9,0.5-1.4,0.7c-0.5,0.1-1.1,0.2-1.7,0.2c-0.7,0-1.3-0.1-1.8-0.2c-0.6-0.1-1-0.4-1.4-0.7s-0.7-0.7-0.9-1.2
		s-0.3-1.1-0.3-1.8h3.2c0,0.2,0,0.4,0,0.6c0,0.2,0.1,0.4,0.2,0.6s0.2,0.3,0.4,0.4c0.2,0.1,0.4,0.2,0.6,0.2c0.4,0,0.7-0.1,0.9-0.3
		c0.2-0.2,0.3-0.5,0.3-0.8s-0.1-0.7-0.4-0.9c-0.3-0.2-0.7-0.4-1.1-0.5s-0.8-0.3-1.2-0.5c-0.4-0.2-0.8-0.4-1.1-0.6
		c-0.4-0.2-0.7-0.5-0.9-0.8c-0.6-0.6-0.8-1.4-0.8-2.2c0-0.6,0.1-1.2,0.3-1.6c0.2-0.5,0.5-0.8,0.9-1.1c0.4-0.3,0.9-0.5,1.4-0.7
		c0.5-0.1,1.1-0.2,1.7-0.2c0.6,0,1.2,0.1,1.7,0.2s1,0.4,1.4,0.7c0.4,0.3,0.7,0.7,0.9,1.2c0.2,0.5,0.3,1,0.3,1.7H-0.3z"/>
	<path class="st2" d="M4.1,455.3c0-0.8,0.1-1.4,0.3-1.9c0.2-0.5,0.5-0.9,0.9-1.2c0.4-0.3,0.8-0.5,1.4-0.7c0.5-0.1,1.1-0.2,1.8-0.2
		c1.5,0,2.6,0.3,3.3,1c0.7,0.7,1.1,1.7,1.1,3v4.8c-0.1,1.3-0.5,2.3-1.3,2.8c-0.8,0.6-1.8,0.8-3.1,0.8c-0.6,0-1.2-0.1-1.7-0.2
		c-0.5-0.1-1-0.3-1.4-0.6c-0.4-0.3-0.7-0.7-0.9-1.1c-0.2-0.5-0.3-1-0.3-1.7V455.3z M7.4,460.3c0,0.3,0.1,0.6,0.3,0.8
		c0.2,0.2,0.4,0.3,0.8,0.3c0.3,0,0.6-0.1,0.8-0.3c0.2-0.2,0.2-0.4,0.3-0.8v-5.2c0-0.4-0.1-0.7-0.2-1c-0.1-0.3-0.4-0.4-0.8-0.4
		c-0.4,0-0.7,0.1-0.8,0.4c-0.1,0.3-0.2,0.6-0.2,1V460.3z"/>
	<path class="st2" d="M17.8,451.6v1.5h0c0.1-0.2,0.2-0.4,0.4-0.7c0.2-0.2,0.3-0.4,0.5-0.6c0.2-0.2,0.4-0.3,0.7-0.4s0.5-0.2,0.8-0.2
		c0.4,0,0.8,0.1,1.1,0.2c0.4,0.1,0.7,0.3,1,0.5c0.3,0.2,0.5,0.5,0.7,0.8c0.2,0.3,0.2,0.7,0.2,1v9.6h-3.3V455c0-0.3-0.1-0.5-0.2-0.7
		c-0.1-0.2-0.3-0.3-0.7-0.3c-0.6,0-0.9,0.3-0.9,1v8.4h-3.3v-11.8H17.8z"/>
	<path class="st2" d="M30,455.1c0-0.2,0-0.4-0.1-0.6c0-0.2-0.1-0.4-0.1-0.5c-0.1-0.2-0.2-0.3-0.3-0.4c-0.1-0.1-0.3-0.1-0.6-0.1
		c-0.3,0-0.6,0.1-0.8,0.2c-0.2,0.2-0.3,0.4-0.3,0.8c0,0.3,0.1,0.6,0.3,0.7c0.2,0.2,0.5,0.3,0.7,0.5c0.5,0.3,1.1,0.5,1.6,0.7
		c0.5,0.2,1,0.5,1.4,0.8c0.4,0.3,0.8,0.7,1,1.1c0.3,0.4,0.4,1,0.4,1.7c0,0.7-0.1,1.2-0.3,1.7c-0.2,0.5-0.5,0.9-1,1.2
		c-0.4,0.3-0.9,0.5-1.4,0.7c-0.5,0.1-1.1,0.2-1.7,0.2c-0.7,0-1.3-0.1-1.8-0.2c-0.6-0.1-1-0.4-1.4-0.7c-0.4-0.3-0.7-0.7-0.9-1.2
		c-0.2-0.5-0.3-1.1-0.3-1.8h3.2c0,0.2,0,0.4,0,0.6c0,0.2,0.1,0.4,0.2,0.6c0.1,0.2,0.2,0.3,0.4,0.4c0.2,0.1,0.4,0.2,0.6,0.2
		c0.4,0,0.7-0.1,0.9-0.3c0.2-0.2,0.3-0.5,0.3-0.8s-0.1-0.7-0.4-0.9c-0.3-0.2-0.7-0.4-1.1-0.5c-0.4-0.2-0.8-0.3-1.2-0.5
		s-0.8-0.4-1.1-0.6c-0.3-0.2-0.7-0.5-0.9-0.8c-0.6-0.6-0.8-1.4-0.8-2.2c0-0.6,0.1-1.2,0.3-1.6c0.2-0.5,0.5-0.8,0.9-1.1
		c0.4-0.3,0.9-0.5,1.4-0.7c0.5-0.1,1.1-0.2,1.7-0.2c0.6,0,1.2,0.1,1.7,0.2s1,0.4,1.4,0.7c0.4,0.3,0.7,0.7,0.9,1.2
		c0.2,0.5,0.3,1,0.3,1.7H30z"/>
</g>
</svg>
