<!-- Generator: Adobe Illustrator 19.1.0, SVG Export Plug-In  -->
<svg version="1.1"
	 xmlns="http://www.w3.org/2000/svg" xmlns:xlink="http://www.w3.org/1999/xlink" xmlns:a="http://ns.adobe.com/AdobeSVGViewerExtensions/3.0/"
	 x="0px" y="0px" width="225.9px" height="225.9px" viewBox="0 0 225.9 225.9" enable-background="new 0 0 225.9 225.9"
	 xml:space="preserve">
<defs>
</defs>
<rect fill="#D71921" width="225.9" height="225.9"/>
<g opacity="0.75">
	<path fill="#FFFFFF" d="M216.2,216.2H9.7V9.7h206.5V216.2z M11.7,214.2h202.5V11.7H11.7V214.2z"/>
</g>
<g>
	<polygon fill="#FFFFFF" points="102.9,38.6 87.8,48.2 88.1,68 87.4,84.7 94.9,96.9 98.3,111 93.3,122.2 65.1,134.9 58,151.3 
		81.6,157.2 111.7,157.2 111.7,38.6 	"/>
	<path fill="#3B4552" d="M169,154.5c-0.1-11.4-4.7-19.7-14.5-24.9c-5.4-2.8-11-5.4-16.8-7.5c-7-2.6-10.5-7-9.4-14.6
		c0.2-1.1,0.3-2.1,0.7-3.1c1.6-3.6,3.2-7.2,4.9-10.8c0.4-0.9,0.8-1.9,1.5-2.5c4-3.1,5.6-9.5,3.6-14.1c-0.5-1.2-0.6-2.8-0.4-4.1
		c0.6-5.3,1.8-10.6,1.8-16c0-6.6-2-12.7-8.1-16.5c-3.4-2.1-7-4-10.6-5.8c-4.9-2.4-10.1-2.2-15.3-1.7c-12.1,1.1-20.5,8.5-22.5,20
		C82.7,59.8,83.7,66.4,85,73c0.2,1.1,0.1,2.4-0.4,3.4c-2.3,4.7-1.6,9.7,1.6,13c2.4,2.6,3.2,5.3,4.4,8.2c0.6,1.5,1.2,3.3,2.2,4.4
		c2.4,2.5,1.9,5.5,2.2,8.6c0.5,5.3-2.2,8.2-6.5,10.1c-4.3,1.9-8.7,3.7-13,5.6c-6,2.6-11.8,5.6-15.9,10.9c-3.9,5.1-5.2,10.8-5.2,17.2
		l0,0v0c0,3.7,25.7,6.7,57.3,6.7C143.3,161.2,169,158.2,169,154.5L169,154.5L169,154.5z M91.3,154.5c-0.4,0-0.7,0-1.1-0.1
		c-0.2,0-0.4,0-0.6,0c-0.3,0-0.7,0-1-0.1c-0.2,0-0.4,0-0.6,0c-0.3,0-0.7,0-1-0.1c-0.2,0-0.4,0-0.6,0c-0.3,0-0.7-0.1-1-0.1
		c-0.2,0-0.4,0-0.6,0c-0.3,0-0.6-0.1-1-0.1c-0.2,0-0.4,0-0.5,0c-0.3,0-0.6-0.1-0.9-0.1c-0.2,0-0.3,0-0.5-0.1c-0.3,0-0.6-0.1-0.9-0.1
		c-0.2,0-0.3,0-0.5,0c-1.1-0.1-2.2-0.2-3.2-0.4c-0.1,0-0.3,0-0.4-0.1c-0.3,0-0.5-0.1-0.7-0.1c-0.2,0-0.4,0-0.6-0.1
		c-0.2,0-0.4-0.1-0.7-0.1c-0.2,0-0.4-0.1-0.6-0.1c-0.2,0-0.4-0.1-0.6-0.1c-0.2,0-0.4-0.1-0.6-0.1c-0.2,0-0.4-0.1-0.6-0.1
		c-0.2,0-0.4-0.1-0.6-0.1c-0.2,0-0.4-0.1-0.5-0.1c-0.2,0-0.4-0.1-0.5-0.1c-0.2,0-0.3-0.1-0.5-0.1c-0.2,0-0.4-0.1-0.5-0.1
		c-0.2,0-0.3-0.1-0.5-0.1c-0.2,0-0.3-0.1-0.5-0.1c-0.2,0-0.3-0.1-0.5-0.1c-0.2,0-0.3-0.1-0.5-0.1c-0.1,0-0.3-0.1-0.4-0.1
		c-0.2,0-0.3-0.1-0.5-0.1c-0.1,0-0.3-0.1-0.4-0.1c-0.2,0-0.3-0.1-0.5-0.1c-0.1,0-0.2-0.1-0.3-0.1c-0.2,0-0.3-0.1-0.5-0.1
		c-0.1,0-0.2-0.1-0.3-0.1c-0.2-0.1-0.4-0.1-0.6-0.2c-1.9-0.7-3-1.4-3.2-2.1c-0.1,0-0.1,0-0.2,0c0.5-4.1,2-7.7,5.2-10
		c3.9-2.8,8.2-5.1,12.4-7.3c5.3-2.8,11-4.9,16.3-7.8c3.9-2.2,5.8-5.9,5.7-10.5c0-1.3,0.1-2.6,0.1-3.9c0-3.3,0-6.2-2.6-9.3
		c-2.6-3.2-3.4-7.8-5.2-12.2c-1.9,0-3-1.5-3.5-4c-0.6-2.6-0.7-4.8,1.8-5.8c-0.8-6.5-1.8-12.6-2.1-18.8c-0.1-3.3,0.7-6.9,2-10
		c3.1-7.4,9.7-9.6,17-10.1c3.4-0.2,7.2-0.2,10.1,1.1c3.6,1.7,7.3,3.6,10.9,5.5c4.4,2.4,5.5,7.1,5.2,11.6c-0.3,5.9-1.4,11.7-2.4,17.6
		c-0.3,1.6-0.5,2.5,0.9,4c1.1,1.2,0.8,4,0.3,5.9c-0.3,1.3-2,2.3-3.4,3.8c-1.5,3.7-3.1,7.8-4.8,11.9c-0.6,1.3-2.3,2.5-2.2,3.7
		c0.1,5.1-1.3,10.5,1.5,15.3c2.2,3.8,5.9,5.9,9.7,7.6c5.8,2.6,11.8,5,17.5,7.8c5.7,2.8,9.6,7.2,10.6,13.9c-0.1,0-0.1,0-0.2,0
		c-0.2,0.8-1.3,1.5-3.2,2.1c-0.2,0.1-0.4,0.1-0.6,0.2c-0.1,0-0.2,0.1-0.3,0.1c-0.2,0-0.3,0.1-0.5,0.1c-0.1,0-0.2,0.1-0.3,0.1
		c-0.2,0-0.3,0.1-0.5,0.1c-0.1,0-0.3,0.1-0.4,0.1c-0.2,0-0.3,0.1-0.5,0.1c-0.1,0-0.3,0.1-0.4,0.1c-0.2,0-0.3,0.1-0.5,0.1
		c-0.1,0-0.3,0.1-0.5,0.1c-0.2,0-0.3,0.1-0.5,0.1c-0.2,0-0.3,0.1-0.5,0.1c-0.2,0-0.3,0.1-0.5,0.1c-0.2,0-0.3,0.1-0.5,0.1
		c-0.2,0-0.4,0.1-0.5,0.1c-0.2,0-0.4,0.1-0.5,0.1c-0.2,0-0.4,0.1-0.6,0.1c-0.2,0-0.4,0.1-0.6,0.1c-0.2,0-0.4,0.1-0.6,0.1
		c-0.2,0-0.4,0.1-0.6,0.1c-0.2,0-0.4,0.1-0.6,0.1c-0.2,0-0.4,0.1-0.7,0.1c-0.2,0-0.4,0-0.6,0.1c-0.2,0-0.5,0.1-0.7,0.1
		c-0.1,0-0.3,0-0.4,0c-1,0.1-2.1,0.2-3.2,0.4c-0.2,0-0.3,0-0.5,0c-0.3,0-0.6,0.1-0.9,0.1c-0.2,0-0.3,0-0.5,0.1
		c-0.3,0-0.6,0.1-0.9,0.1c-0.2,0-0.4,0-0.5,0c-0.3,0-0.6,0.1-1,0.1c-0.2,0-0.4,0-0.6,0c-0.3,0-0.6,0.1-1,0.1c-0.2,0-0.4,0-0.6,0
		c-0.3,0-0.7,0-1,0.1c-0.2,0-0.4,0-0.6,0c-0.3,0-0.7,0-1,0.1c-0.2,0-0.4,0-0.6,0c-0.4,0-0.7,0-1.1,0.1c-6.2,0.4-13.1,0.6-20.4,0.6
		S97.5,154.9,91.3,154.5z M111.7,38.6v118.5h30.1l23.5-5.9l-7.1-16.4L130,122.2l-5-11.1l3.4-14.2l7.4-12.2L135.3,68l0.3-19.7
		l-15.2-9.6H111.7z"/>
</g>
<g>
	<path fill="#FFFFFF" d="M56,191.2h-3.7v-15.8h5.4c1.5,0,2.7,0.3,3.4,1s1.1,1.8,1.1,3.3c0,0.8-0.1,1.6-0.4,2.2
		c-0.3,0.6-0.8,1.1-1.6,1.4v0c0.5,0.1,0.9,0.3,1.3,0.7c0.3,0.4,0.5,0.8,0.5,1.3c0,0.3,0.1,0.7,0.1,1.2s0,0.9,0.1,1.4
		c0,0.5,0,0.9,0.1,1.4c0,0.4,0.1,0.8,0.1,1c0.1,0.2,0.2,0.4,0.4,0.5v0.2h-4c-0.1-0.2-0.1-0.3-0.1-0.5c0-0.1-0.1-0.3-0.1-0.5
		c0-0.7,0-1.4,0-2c0-0.6,0-1.2-0.1-1.7c-0.1-0.5-0.2-0.9-0.3-1.2c-0.2-0.3-0.5-0.5-0.9-0.5H56V191.2z M56,182.2h1.3
		c0.3,0,0.5-0.1,0.7-0.2c0.2-0.1,0.3-0.3,0.4-0.4c0.1-0.2,0.2-0.4,0.2-0.6c0-0.2,0.1-0.5,0.1-0.7c0-0.5,0-0.8-0.1-1.1
		c-0.1-0.3-0.3-0.5-0.5-0.6c-0.2-0.1-0.5-0.2-0.8-0.2c-0.3,0-0.7,0-1.2,0V182.2z"/>
	<path fill="#FFFFFF" d="M69.5,190.2c-0.4,0.5-0.8,0.8-1.3,1.1s-1,0.4-1.6,0.4c-1,0-1.7-0.3-2.2-0.9c-0.5-0.6-0.8-1.3-0.8-2.3
		c0-0.7,0.1-1.2,0.3-1.7c0.2-0.4,0.4-0.8,0.7-1.1c0.3-0.3,0.6-0.5,0.9-0.7c0.3-0.2,0.7-0.3,1.1-0.5s0.7-0.2,1.1-0.3
		c0.3-0.1,0.7-0.2,0.9-0.3c0.3-0.1,0.5-0.3,0.7-0.5c0.2-0.2,0.3-0.4,0.3-0.8s-0.1-0.6-0.3-0.9s-0.4-0.4-0.8-0.4
		c-0.3,0-0.5,0-0.7,0.1s-0.3,0.2-0.4,0.4c-0.1,0.2-0.1,0.4-0.2,0.6s0,0.5-0.1,0.7h-3.3c0-0.7,0-1.4,0.3-1.9c0.2-0.5,0.5-0.9,0.9-1.3
		c0.4-0.3,0.9-0.6,1.5-0.7c0.6-0.1,1.2-0.2,1.9-0.2c0.8,0,1.5,0.1,2.1,0.2c0.6,0.1,1,0.3,1.4,0.6c0.4,0.3,0.6,0.7,0.8,1.1
		c0.2,0.5,0.2,1,0.2,1.6v7.2c0,0.2,0,0.4,0.1,0.7c0.1,0.2,0.1,0.4,0.2,0.6h-3.3L69.5,190.2z M69.4,185.5c-0.3,0.2-0.6,0.3-0.9,0.5
		c-0.3,0.1-0.5,0.3-0.7,0.4s-0.4,0.3-0.5,0.6c-0.2,0.2-0.2,0.5-0.2,0.9c0,0.4,0.1,0.7,0.3,0.9s0.5,0.4,0.9,0.4
		c0.3,0,0.5-0.1,0.6-0.2c0.2-0.1,0.3-0.3,0.4-0.4c0.1-0.2,0.2-0.4,0.2-0.6c0-0.2,0.1-0.4,0.1-0.6V185.5z"/>
	<path fill="#FFFFFF" d="M80,183.8l0-0.2c0-0.2,0-0.4-0.1-0.7s0-0.4-0.1-0.7c-0.1-0.2-0.2-0.4-0.3-0.5c-0.1-0.1-0.3-0.2-0.6-0.2
		c-0.4,0-0.7,0.1-0.8,0.4c-0.1,0.3-0.2,0.6-0.2,1v4.9c0,0.4,0.1,0.7,0.2,1s0.4,0.4,0.9,0.4c0.3,0,0.5-0.1,0.7-0.3
		c0.1-0.2,0.2-0.4,0.3-0.7c0-0.3,0.1-0.6,0.1-0.9s0-0.6,0-0.8h3.2c0,0.2,0,0.4,0,0.6c0,0.3,0,0.5-0.1,0.8c0,0.3,0,0.5-0.1,0.8
		c0,0.2-0.1,0.4-0.1,0.6c-0.2,0.7-0.6,1.3-1.2,1.6c-0.6,0.4-1.2,0.6-2,0.6c-0.2,0-0.3,0-0.5,0c-0.2,0-0.4,0-0.6,0
		c-0.6,0-1.2-0.1-1.7-0.2c-0.5-0.1-0.9-0.3-1.3-0.6s-0.7-0.7-0.9-1.1c-0.2-0.5-0.3-1-0.3-1.7v-4.8c0-0.8,0.1-1.4,0.3-1.9
		c0.2-0.5,0.5-0.9,0.8-1.2c0.4-0.3,0.8-0.5,1.3-0.7s1.1-0.2,1.7-0.2c1.7,0,2.8,0.4,3.5,1.2c0.7,0.7,1,1.9,0.9,3.5H80z"/>
	<path fill="#FFFFFF" d="M85.3,178.3v-2.8h3.3v2.8H85.3z M85.3,191.2v-11.8h3.3v11.8H85.3z"/>
	<path fill="#FFFFFF" d="M96.4,190.2c-0.4,0.5-0.8,0.8-1.3,1.1s-1,0.4-1.6,0.4c-1,0-1.7-0.3-2.2-0.9c-0.5-0.6-0.8-1.3-0.8-2.3
		c0-0.7,0.1-1.2,0.3-1.7c0.2-0.4,0.4-0.8,0.7-1.1c0.3-0.3,0.6-0.5,0.9-0.7c0.3-0.2,0.7-0.3,1.1-0.5s0.7-0.2,1.1-0.3
		c0.3-0.1,0.7-0.2,0.9-0.3s0.5-0.3,0.7-0.5c0.2-0.2,0.3-0.4,0.3-0.8s-0.1-0.6-0.3-0.9c-0.2-0.2-0.4-0.4-0.8-0.4
		c-0.3,0-0.5,0-0.7,0.1s-0.3,0.2-0.4,0.4c-0.1,0.2-0.1,0.4-0.2,0.6c0,0.2,0,0.5-0.1,0.7h-3.3c0-0.7,0-1.4,0.3-1.9
		c0.2-0.5,0.5-0.9,0.9-1.3c0.4-0.3,0.9-0.6,1.5-0.7c0.6-0.1,1.2-0.2,1.9-0.2c0.8,0,1.5,0.1,2.1,0.2c0.6,0.1,1,0.3,1.4,0.6
		c0.4,0.3,0.6,0.7,0.8,1.1s0.2,1,0.2,1.6v7.2c0,0.2,0,0.4,0.1,0.7c0.1,0.2,0.1,0.4,0.2,0.6h-3.3L96.4,190.2z M96.2,185.5
		c-0.3,0.2-0.6,0.3-0.9,0.5c-0.3,0.1-0.5,0.3-0.7,0.4s-0.4,0.3-0.5,0.6c-0.2,0.2-0.2,0.5-0.2,0.9c0,0.4,0.1,0.7,0.3,0.9
		s0.5,0.4,0.9,0.4c0.3,0,0.5-0.1,0.6-0.2c0.2-0.1,0.3-0.3,0.4-0.4s0.2-0.4,0.2-0.6c0-0.2,0.1-0.4,0.1-0.6V185.5z"/>
	<path fill="#FFFFFF" d="M101.7,191.2v-15.8h3.3v15.8H101.7z"/>
	<path fill="#FFFFFF" d="M118.6,181v-1c0-0.7-0.1-1.2-0.3-1.5c-0.2-0.3-0.5-0.5-0.9-0.5c-0.6,0-1,0.1-1.1,0.4
		c-0.2,0.3-0.3,0.7-0.3,1.2l0,7.8c0,0.4,0.1,0.8,0.3,1c0.2,0.2,0.5,0.4,1,0.4c0.3,0,0.6-0.1,0.7-0.2c0.2-0.1,0.3-0.3,0.4-0.6
		c0.1-0.2,0.2-0.5,0.2-0.7c0-0.3,0-0.5,0-0.8v-1.4h3.7v1.9c0,0.7-0.1,1.3-0.3,1.9s-0.5,1.1-0.9,1.5s-1,0.7-1.7,0.9
		c-0.7,0.2-1.5,0.3-2.4,0.3c-0.9,0-1.6-0.1-2.2-0.3s-1.1-0.5-1.5-1c-0.4-0.4-0.7-1-0.8-1.6s-0.3-1.3-0.3-2.1v-6.5
		c0-1.7,0.4-3,1.2-3.8c0.8-0.8,2.1-1.2,3.7-1.2c0.8,0,1.5,0.1,2.1,0.3c0.6,0.2,1.2,0.4,1.6,0.8s0.8,0.8,1,1.4
		c0.2,0.6,0.3,1.3,0.3,2.1v1.3H118.6z"/>
	<path fill="#FFFFFF" d="M124.1,183.1c0-0.8,0.1-1.4,0.3-1.9c0.2-0.5,0.5-0.9,0.9-1.2c0.4-0.3,0.8-0.5,1.4-0.7
		c0.5-0.1,1.1-0.2,1.8-0.2c1.5,0,2.6,0.3,3.3,1s1.1,1.7,1.1,3v4.8c-0.1,1.3-0.5,2.3-1.3,2.8s-1.8,0.8-3.1,0.8
		c-0.6,0-1.2-0.1-1.7-0.2c-0.5-0.1-1-0.3-1.4-0.6c-0.4-0.3-0.7-0.7-0.9-1.1c-0.2-0.5-0.3-1-0.3-1.7V183.1z M127.4,188.1
		c0,0.3,0.1,0.6,0.3,0.8c0.2,0.2,0.4,0.3,0.8,0.3c0.3,0,0.6-0.1,0.8-0.3c0.2-0.2,0.2-0.4,0.3-0.8v-5.2c0-0.4-0.1-0.7-0.2-1
		c-0.1-0.3-0.4-0.4-0.8-0.4c-0.4,0-0.7,0.1-0.8,0.4c-0.1,0.3-0.2,0.6-0.2,1V188.1z"/>
	<path fill="#FFFFFF" d="M137.8,179.4v1.5h0c0.1-0.2,0.2-0.4,0.4-0.7c0.2-0.2,0.3-0.4,0.5-0.6s0.4-0.3,0.7-0.4
		c0.2-0.1,0.5-0.2,0.8-0.2c0.4,0,0.8,0.1,1.1,0.2c0.4,0.1,0.7,0.3,1,0.5c0.3,0.2,0.5,0.5,0.7,0.8s0.2,0.7,0.2,1v9.6h-3.3v-8.4
		c0-0.3-0.1-0.5-0.2-0.7c-0.1-0.2-0.3-0.3-0.7-0.3c-0.6,0-0.9,0.3-0.9,1v8.4h-3.3v-11.8H137.8z"/>
	<path fill="#FFFFFF" d="M144.4,181.9v-2.4h1.3v-3.4h3.3v3.4h1.6v2.4h-1.6v6.2c0,0.3,0.1,0.6,0.2,0.7c0.1,0.1,0.3,0.2,0.5,0.2
		c0.2,0,0.3,0,0.4,0c0.1,0,0.2,0,0.4,0v2.4c-0.4,0.1-0.7,0.1-1.1,0.1c-0.3,0-0.7,0.1-1.1,0.1c-0.9,0-1.6-0.2-2.1-0.7
		c-0.5-0.5-0.7-1.1-0.7-2v-6.8H144.4z"/>
	<path fill="#FFFFFF" d="M155.2,179.4v1.8h0c0.2-0.6,0.5-1.1,0.9-1.5c0.4-0.4,1-0.6,1.7-0.6v3.8c-0.2,0-0.3,0-0.5-0.1
		c-0.2,0-0.3,0-0.5,0c-0.5,0-0.8,0.1-1,0.2s-0.3,0.5-0.4,0.9v7.2h-3.3v-11.8H155.2z"/>
	<path fill="#FFFFFF" d="M159,183.1c0-0.8,0.1-1.4,0.3-1.9c0.2-0.5,0.5-0.9,0.9-1.2c0.4-0.3,0.8-0.5,1.4-0.7s1.1-0.2,1.8-0.2
		c1.5,0,2.6,0.3,3.3,1c0.7,0.7,1.1,1.7,1.1,3v4.8c-0.1,1.3-0.5,2.3-1.3,2.8c-0.8,0.6-1.8,0.8-3.1,0.8c-0.6,0-1.2-0.1-1.7-0.2
		c-0.5-0.1-1-0.3-1.4-0.6c-0.4-0.3-0.7-0.7-0.9-1.1c-0.2-0.5-0.3-1-0.3-1.7V183.1z M162.4,188.1c0,0.3,0.1,0.6,0.3,0.8
		c0.2,0.2,0.4,0.3,0.8,0.3s0.6-0.1,0.8-0.3c0.2-0.2,0.2-0.4,0.3-0.8v-5.2c0-0.4-0.1-0.7-0.2-1c-0.1-0.3-0.4-0.4-0.8-0.4
		s-0.7,0.1-0.8,0.4c-0.1,0.3-0.2,0.6-0.2,1V188.1z"/>
	<path fill="#FFFFFF" d="M169.9,191.2v-15.8h3.3v15.8H169.9z"/>
</g>
</svg>
