<!-- Generator: Adobe Illustrator 19.1.0, SVG Export Plug-In  -->
<svg version="1.1"
	 xmlns="http://www.w3.org/2000/svg" xmlns:xlink="http://www.w3.org/1999/xlink" xmlns:a="http://ns.adobe.com/AdobeSVGViewerExtensions/3.0/"
	 x="0px" y="0px" width="225.9px" height="225.9px" viewBox="0 0 225.9 225.9" enable-background="new 0 0 225.9 225.9"
	 xml:space="preserve">
<defs>
</defs>
<rect fill="#D71921" width="225.9" height="225.9"/>
<g opacity="0.75">
	<path fill="#FFFFFF" d="M216.2,216.2H9.7V9.7h206.5V216.2z M11.7,214.2h202.5V11.7H11.7V214.2z"/>
</g>
<g>
	<path fill="#FFFFFF" d="M50.5,185.9v1.1c0,0.2,0,0.4,0.1,0.6c0,0.2,0.1,0.4,0.2,0.5c0.1,0.2,0.3,0.3,0.5,0.4
		c0.2,0.1,0.4,0.1,0.7,0.1c0.4,0,0.7-0.2,0.9-0.5s0.3-0.7,0.3-1.1c0-0.3-0.1-0.6-0.2-0.9s-0.3-0.4-0.5-0.6s-0.4-0.3-0.7-0.5
		c-0.2-0.1-0.5-0.3-0.7-0.4c-0.6-0.3-1.1-0.6-1.6-1c-0.5-0.3-0.9-0.7-1.2-1.1c-0.3-0.4-0.6-0.9-0.8-1.4c-0.2-0.5-0.3-1.1-0.3-1.8
		c0-1.5,0.4-2.6,1.2-3.3s2-1.1,3.4-1.1c0.8,0,1.5,0.1,2.1,0.4s1.1,0.6,1.5,1.1c0.4,0.5,0.7,1,0.9,1.6s0.3,1.3,0.2,2h-3.4
		c0-0.2,0-0.5,0-0.7c0-0.3-0.1-0.5-0.1-0.7c-0.1-0.2-0.2-0.4-0.3-0.6c-0.2-0.1-0.4-0.2-0.7-0.3c-0.4,0-0.7,0.1-0.9,0.2
		c-0.2,0.2-0.3,0.5-0.4,0.8c-0.1,0.5,0,0.9,0.2,1.1c0.2,0.3,0.5,0.5,0.9,0.8c0.7,0.4,1.3,0.8,1.9,1.1c0.6,0.3,1.1,0.7,1.5,1.1
		c0.4,0.4,0.8,0.9,1,1.5c0.2,0.6,0.4,1.3,0.4,2.3c0,1.5-0.4,2.7-1.2,3.5c-0.8,0.8-2,1.2-3.5,1.2c-0.8,0-1.6-0.1-2.2-0.3
		s-1.1-0.5-1.5-0.9c-0.4-0.4-0.7-0.8-0.9-1.3c-0.2-0.5-0.3-1-0.3-1.5v-1.7H50.5z"/>
	<path fill="#FFFFFF" d="M58.1,183.1c0-0.8,0.1-1.4,0.3-1.9c0.2-0.5,0.5-0.9,0.9-1.2c0.4-0.3,0.8-0.5,1.4-0.7s1.1-0.2,1.8-0.2
		c1.5,0,2.6,0.3,3.3,1c0.7,0.7,1.1,1.7,1.1,3v4.8c-0.1,1.3-0.5,2.3-1.3,2.8c-0.8,0.6-1.8,0.8-3.1,0.8c-0.6,0-1.2-0.1-1.7-0.2
		c-0.5-0.1-1-0.3-1.4-0.6c-0.4-0.3-0.7-0.7-0.9-1.1c-0.2-0.5-0.3-1-0.3-1.7V183.1z M61.5,188.1c0,0.3,0.1,0.6,0.3,0.8
		c0.2,0.2,0.4,0.3,0.8,0.3s0.6-0.1,0.8-0.3c0.2-0.2,0.2-0.4,0.3-0.8v-5.2c0-0.4-0.1-0.7-0.2-1c-0.1-0.3-0.4-0.4-0.8-0.4
		s-0.7,0.1-0.8,0.4c-0.1,0.3-0.2,0.6-0.2,1V188.1z"/>
	<path fill="#FFFFFF" d="M71.7,179.4v1.4h0c0.3-0.5,0.7-0.9,1.1-1.2c0.5-0.3,0.9-0.4,1.4-0.5c0.5,0,1,0.1,1.5,0.4s0.8,0.7,1,1.2h0
		c0.3-0.5,0.7-0.9,1.1-1.2s0.9-0.4,1.3-0.4c0.4,0,0.8,0.1,1.1,0.2c0.4,0.1,0.7,0.3,1,0.5c0.3,0.2,0.5,0.5,0.7,0.8s0.2,0.7,0.2,1v9.6
		h-3.3v-8.4c0-0.3-0.1-0.5-0.2-0.7c-0.1-0.2-0.3-0.3-0.7-0.3c-0.6,0-0.9,0.4-0.9,1v8.4h-3.3v-8.4c-0.1-0.3-0.1-0.5-0.2-0.7
		c-0.1-0.2-0.3-0.3-0.6-0.3c-0.3,0-0.6,0.1-0.7,0.2c-0.1,0.2-0.2,0.4-0.3,0.7v8.4h-3.3v-11.8H71.7z"/>
	<path fill="#FFFFFF" d="M87,185.9v2.1c0,0.3,0.1,0.6,0.2,0.8s0.4,0.4,0.8,0.4c0.3,0,0.5,0,0.7-0.2s0.3-0.3,0.3-0.5
		c0.1-0.2,0.1-0.4,0.1-0.7c0-0.2,0-0.5,0-0.7h3.3c0.1,1.5-0.3,2.6-1,3.3c-0.8,0.7-1.9,1.1-3.3,1.1c-0.6,0-1.2-0.1-1.7-0.2
		s-1-0.3-1.4-0.6c-0.4-0.3-0.7-0.7-1-1.1c-0.2-0.5-0.4-1-0.4-1.7v-4.8c0-0.8,0.1-1.4,0.3-1.9c0.2-0.5,0.5-0.9,0.9-1.2
		c0.4-0.3,0.9-0.5,1.4-0.7s1.2-0.2,1.8-0.2c0.6,0,1.2,0.1,1.7,0.2s1,0.3,1.4,0.6c0.4,0.3,0.7,0.6,1,1.1c0.3,0.4,0.4,1,0.4,1.6v3.4
		H87z M89.4,183.7v-1.2c0-0.1,0-0.2-0.1-0.4c0-0.1-0.1-0.3-0.2-0.4s-0.2-0.2-0.4-0.3c-0.1-0.1-0.3-0.1-0.5-0.1
		c-0.5,0-0.8,0.2-0.9,0.5c-0.2,0.3-0.2,0.7-0.2,1.1v0.8H89.4z"/>
	<path fill="#FFFFFF" d="M93.7,181.9v-2.4H95v-3.4h3.3v3.4h1.6v2.4h-1.6v6.2c0,0.3,0.1,0.6,0.2,0.7c0.1,0.1,0.3,0.2,0.5,0.2
		c0.2,0,0.3,0,0.4,0c0.1,0,0.2,0,0.4,0v2.4c-0.4,0.1-0.7,0.1-1.1,0.1c-0.3,0-0.7,0.1-1.1,0.1c-0.9,0-1.6-0.2-2.1-0.7
		c-0.5-0.5-0.7-1.1-0.7-2v-6.8H93.7z"/>
	<path fill="#FFFFFF" d="M104.7,180.4L104.7,180.4c0.4-0.5,0.8-0.8,1.2-1s0.9-0.3,1.3-0.3c0.4,0,0.8,0.1,1.1,0.2
		c0.3,0.1,0.6,0.3,0.8,0.6c0.2,0.2,0.4,0.5,0.5,0.9s0.2,0.7,0.2,1v9.4h-3.3v-8.4c0-0.3-0.1-0.6-0.2-0.8c-0.1-0.2-0.4-0.3-0.8-0.3
		c-0.4,0-0.6,0.1-0.8,0.4c-0.1,0.3-0.2,0.5-0.2,0.8v8.1h-3.3v-15.8h3.3V180.4z"/>
	<path fill="#FFFFFF" d="M112.2,178.3v-2.8h3.3v2.8H112.2z M112.2,191.2v-11.8h3.3v11.8H112.2z"/>
	<path fill="#FFFFFF" d="M120.9,179.4v1.5h0c0.1-0.2,0.2-0.4,0.4-0.7c0.2-0.2,0.3-0.4,0.5-0.6s0.4-0.3,0.7-0.4
		c0.2-0.1,0.5-0.2,0.8-0.2c0.4,0,0.8,0.1,1.1,0.2c0.4,0.1,0.7,0.3,1,0.5c0.3,0.2,0.5,0.5,0.7,0.8s0.2,0.7,0.2,1v9.6h-3.3v-8.4
		c0-0.3-0.1-0.5-0.2-0.7c-0.1-0.2-0.3-0.3-0.7-0.3c-0.6,0-0.9,0.3-0.9,1v8.4h-3.3v-11.8H120.9z"/>
	<path fill="#FFFFFF" d="M131.3,191.9c0,0.2,0,0.4,0,0.5c0,0.1,0.1,0.3,0.1,0.4c0.1,0.1,0.2,0.2,0.3,0.2c0.1,0,0.3,0,0.6,0
		c0.3,0,0.6-0.1,0.8-0.2c0.2-0.1,0.2-0.4,0.3-0.7v-2.4h0c-0.3,0.4-0.7,0.7-1.1,0.9c-0.4,0.2-0.8,0.3-1.3,0.3c-0.5,0-1-0.1-1.4-0.3
		s-0.7-0.5-0.9-0.9c-0.2-0.3-0.4-0.7-0.5-1.2s-0.2-0.9-0.2-1.3v-4.1c0-0.5,0-0.9,0.1-1.4c0.1-0.5,0.2-0.9,0.5-1.3
		c0.2-0.4,0.5-0.7,0.9-1c0.4-0.2,0.8-0.4,1.4-0.4c0.6,0,1.1,0.2,1.6,0.5s0.8,0.7,1.1,1.3h0v-1.4h3.1v12c0,0.7-0.1,1.3-0.3,1.7
		c-0.2,0.5-0.5,0.9-1,1.2c-0.4,0.3-0.9,0.5-1.4,0.6s-1.1,0.2-1.8,0.2s-1.2,0-1.7-0.1c-0.5-0.1-1-0.3-1.3-0.5c-0.4-0.2-0.7-0.6-0.9-1
		c-0.2-0.4-0.3-1-0.3-1.7H131.3z M131.4,186.9c0,0.3,0.1,0.6,0.2,0.9c0.1,0.3,0.4,0.4,0.8,0.4c0.2,0,0.4,0,0.5-0.1
		c0.1-0.1,0.2-0.2,0.3-0.4c0.1-0.1,0.1-0.3,0.1-0.5c0-0.2,0-0.4,0-0.5v-3.2c0-0.4-0.1-0.8-0.2-1.1c-0.1-0.3-0.4-0.5-0.9-0.5
		c-0.2,0-0.4,0.1-0.5,0.2s-0.2,0.3-0.3,0.5c-0.1,0.2-0.1,0.4-0.1,0.6c0,0.2,0,0.4,0,0.5V186.9z"/>
	<path fill="#FFFFFF" d="M144,191.2v-15.8h8.5v3.2h-4.8v2.9h4.6v3.2h-4.6v3.4h5v3.1H144z"/>
	<path fill="#FFFFFF" d="M154.7,191.2v-15.8h3.3v15.8H154.7z"/>
	<path fill="#FFFFFF" d="M165.1,182.9c0-0.2,0-0.4-0.1-0.6c0-0.2-0.1-0.4-0.1-0.5c-0.1-0.2-0.2-0.3-0.3-0.4s-0.3-0.1-0.6-0.1
		c-0.3,0-0.6,0.1-0.8,0.2c-0.2,0.2-0.3,0.4-0.3,0.8c0,0.3,0.1,0.6,0.3,0.7s0.5,0.3,0.7,0.5c0.5,0.3,1.1,0.5,1.6,0.7s1,0.5,1.4,0.8
		c0.4,0.3,0.8,0.7,1,1.1c0.3,0.4,0.4,1,0.4,1.7c0,0.7-0.1,1.2-0.3,1.7c-0.2,0.5-0.5,0.9-1,1.2c-0.4,0.3-0.9,0.5-1.4,0.7
		c-0.5,0.1-1.1,0.2-1.7,0.2c-0.7,0-1.3-0.1-1.8-0.2c-0.6-0.1-1-0.4-1.4-0.7c-0.4-0.3-0.7-0.7-0.9-1.2c-0.2-0.5-0.3-1.1-0.3-1.8h3.2
		c0,0.2,0,0.4,0,0.6c0,0.2,0.1,0.4,0.2,0.6c0.1,0.2,0.2,0.3,0.4,0.4c0.2,0.1,0.4,0.2,0.6,0.2c0.4,0,0.7-0.1,0.9-0.3
		c0.2-0.2,0.3-0.5,0.3-0.8s-0.1-0.7-0.4-0.9c-0.3-0.2-0.7-0.4-1.1-0.5c-0.4-0.2-0.8-0.3-1.2-0.5c-0.4-0.2-0.8-0.4-1.1-0.6
		s-0.7-0.5-0.9-0.8c-0.6-0.6-0.8-1.4-0.8-2.2c0-0.6,0.1-1.2,0.3-1.6c0.2-0.5,0.5-0.8,0.9-1.1c0.4-0.3,0.9-0.5,1.4-0.7
		c0.5-0.1,1.1-0.2,1.7-0.2c0.6,0,1.2,0.1,1.7,0.2c0.5,0.2,1,0.4,1.4,0.7c0.4,0.3,0.7,0.7,0.9,1.2c0.2,0.5,0.3,1,0.3,1.7H165.1z"/>
	<path fill="#FFFFFF" d="M172.8,185.9v2.1c0,0.3,0.1,0.6,0.2,0.8c0.2,0.2,0.4,0.4,0.8,0.4c0.3,0,0.5,0,0.7-0.2
		c0.2-0.1,0.3-0.3,0.3-0.5c0.1-0.2,0.1-0.4,0.1-0.7s0-0.5,0-0.7h3.3c0.1,1.5-0.3,2.6-1,3.3c-0.8,0.7-1.9,1.1-3.3,1.1
		c-0.6,0-1.2-0.1-1.7-0.2c-0.5-0.1-1-0.3-1.4-0.6c-0.4-0.3-0.7-0.7-1-1.1c-0.2-0.5-0.4-1-0.4-1.7v-4.8c0-0.8,0.1-1.4,0.3-1.9
		c0.2-0.5,0.5-0.9,0.9-1.2c0.4-0.3,0.9-0.5,1.4-0.7c0.6-0.1,1.2-0.2,1.8-0.2c0.6,0,1.2,0.1,1.7,0.2s1,0.3,1.4,0.6
		c0.4,0.3,0.7,0.6,1,1.1c0.3,0.4,0.4,1,0.4,1.6v3.4H172.8z M175.1,183.7v-1.2c0-0.1,0-0.2-0.1-0.4s-0.1-0.3-0.2-0.4
		c-0.1-0.1-0.2-0.2-0.4-0.3c-0.1-0.1-0.3-0.1-0.5-0.1c-0.5,0-0.8,0.2-0.9,0.5c-0.2,0.3-0.2,0.7-0.2,1.1v0.8H175.1z"/>
</g>
<g id="JrM6WB_1_">
	<g>
		<g>
			<path fill="#FFFFFF" d="M106.8,115.2c-0.3-6.7-0.1-13.1,2.9-19.1c2-4,3.9-8,5.9-12c1.9-3.9,3.1-8,3.2-12.3
				c0.1-5.1,0.5-10.2-1.4-15.1c-1.9-4.7-4.9-8.1-10.1-9.1c-3.3-0.6-6.5,0.1-9.2,2.3c-2,1.6-2.3,3-1.3,5.3c1.1,2.4,2.3,4.8,3.3,7.3
				c0.9,2.2,1.2,4.6,0.6,6.9c-0.9,4.2-4.9,6.8-9.4,6.7c-6.2-0.2-9.6-6.1-9.6-10.2c-0.1-9.6,4.9-15.9,12.8-20.3
				c3.8-2.1,8-3.1,12.3-3.3c5.9-0.3,11.9-0.4,17.6,1.4c8.8,2.7,15.1,8.1,17.3,17.2c2,8.1,0.1,15.6-5.4,22
				c-3.9,4.5-8.7,7.8-13.5,11.2c-2,1.4-3.9,2.9-5.8,4.3c-4,3.1-6.1,7.3-6.8,12.3c-0.1,1.1-0.3,2.2-0.4,3.3c-0.1,1-0.5,1.4-1.5,1.3
				C108,115.2,107.5,115.2,106.8,115.2z"/>
			<path fill="#3B4552" d="M108.8,116.8c-0.2,0-0.3,0-0.5,0c-0.2,0-0.5,0-0.9,0c-0.2,0-0.4,0-0.6,0h-1.4l-0.1-1.4
				c-0.4-7.6,0-13.8,3.1-19.8c1.6-3.1,3.1-6.3,4.7-9.4l1.2-2.5c2-4.1,3-7.9,3.1-11.7l0-1.6c0.2-4.6,0.3-8.9-1.3-13
				c-1.9-4.7-4.8-7.4-9-8.2c-3-0.6-5.6,0.1-8,2c-1.4,1.1-1.6,1.8-0.8,3.5c0.4,0.9,0.8,1.9,1.3,2.8c0.7,1.5,1.4,3,2,4.6
				c1,2.7,1.3,5.3,0.7,7.8c-1.1,4.8-5.6,8.1-10.9,7.8c-7.1-0.3-11-6.9-11.1-11.7c-0.1-9.3,4.3-16.4,13.6-21.6
				c3.7-2.1,7.9-3.2,12.9-3.5c5.8-0.3,12.1-0.4,18.1,1.4c9.9,3,16.1,9.2,18.3,18.2c2.1,8.4,0.1,16.5-5.7,23.3
				c-4,4.7-9.2,8.3-13.8,11.4c-1.9,1.3-3.8,2.8-5.8,4.3c-3.6,2.8-5.6,6.5-6.2,11.3c-0.1,0.4-0.1,0.8-0.2,1.2c-0.1,0.7-0.2,1.3-0.3,2
				c0,0.4-0.1,1.4-1,2.1C110,116.6,109.5,116.8,108.8,116.8z M108.3,113.7c0.1,0,0.2,0,0.2,0c0.1-0.7,0.2-1.4,0.3-2.1
				c0.1-0.4,0.1-0.8,0.2-1.2c0.7-5.6,3.2-10.1,7.4-13.3c2-1.5,3.9-3,5.9-4.4c4.6-3.2,9.4-6.5,13.2-10.9c5.2-6.1,6.9-13.1,5.1-20.6
				c-2-8-7.5-13.4-16.3-16.1c-5.6-1.7-11.6-1.7-17.1-1.3c-4.5,0.3-8.3,1.3-11.6,3.2c-8.3,4.7-12.2,10.7-12,19c0,3.4,3,8.5,8.2,8.7
				c3.9,0.2,7.1-2.1,7.9-5.5c0.4-1.9,0.2-4-0.6-6.1c-0.6-1.5-1.3-3-1.9-4.4c-0.4-0.9-0.9-1.9-1.3-2.9c-1.3-2.9-0.7-5.1,1.7-7.1
				c3-2.4,6.6-3.3,10.4-2.6c5.2,1,8.9,4.3,11.2,10c1.9,4.7,1.7,9.5,1.5,14.2l0,1.5c-0.1,4.2-1.2,8.5-3.4,12.9l-1.2,2.5
				c-1.5,3.1-3.1,6.4-4.7,9.5C108.5,101.9,108.1,107.3,108.3,113.7z"/>
		</g>
		<g>
			<path fill="#FFFFFF" d="M108.9,151.4c-5.6,0.7-12.5-5-12.4-12.3c0.1-6.8,5.5-12.4,12-12.6c7.9-0.2,13,6.6,12.9,12.7
				C121.4,145.3,115.7,152.1,108.9,151.4z"/>
			<path fill="#3B4552" d="M108,153c-2.8,0-5.8-1.2-8.2-3.4c-3.1-2.8-4.8-6.6-4.8-10.4c0.1-7.5,6.1-13.8,13.5-14.1
				c3.8-0.1,7.4,1.3,10.1,3.9c2.8,2.7,4.4,6.6,4.4,10.2c0,3.7-1.9,7.7-5,10.5c-2.7,2.4-5.9,3.5-9.1,3.3C108.6,153,108.3,153,108,153
				z M109,128c-0.1,0-0.2,0-0.4,0c-5.8,0.2-10.5,5.2-10.6,11.1c0,3,1.3,6,3.8,8.2c2.1,1.9,4.7,2.9,7,2.6l0.2,0l0.2,0
				c2.4,0.2,4.9-0.6,7-2.5c2.4-2.2,4-5.3,4-8.3c0-2.9-1.3-5.9-3.5-8.1C115,129.7,112.6,128,109,128z"/>
		</g>
	</g>
</g>
</svg>
