<!-- Generator: Adobe Illustrator 19.1.0, SVG Export Plug-In  -->
<svg version="1.1"
	 xmlns="http://www.w3.org/2000/svg" xmlns:xlink="http://www.w3.org/1999/xlink" xmlns:a="http://ns.adobe.com/AdobeSVGViewerExtensions/3.0/"
	 x="0px" y="0px" width="225.9px" height="225.9px" viewBox="0 0 225.9 225.9" enable-background="new 0 0 225.9 225.9"
	 xml:space="preserve">
<defs>
</defs>
<rect fill="#D71921" width="225.9" height="225.9"/>
<g opacity="0.75">
	<path fill="#FFFFFF" d="M216.2,216.2H9.7V9.7h206.5V216.2z M11.7,214.2h202.5V11.7H11.7V214.2z"/>
</g>
<g>
	<path fill="#FFFFFF" d="M141.4,116.8c0.3-0.3,0.5-0.4,0.7-0.6c0.8-1.2,1.6-2.4,2.5-3.6c1.6-2.3,3.3-4.7,4.9-7
		c1.5-2.2,3-4.4,4.6-6.5c1-1.4,2.4-2.1,4.1-2.4c3.1-0.5,5.5,0.7,7.2,3.2c1,1.4,1.2,3.1,0.9,4.9c-0.3,1.7-1.3,3-2.2,4.3
		c-0.8,1.2-1.6,2.3-2.4,3.4c-1.3,1.8-2.5,3.7-3.8,5.5c-1.5,2.1-3,4.2-4.4,6.3c-1.4,2-2.8,4.1-4.2,6.1c-1,1.4-2,2.8-3,4.2
		c-1.6,2.3-3.2,4.6-4.8,6.9c-1.2,1.7-2.4,3.4-3.6,5.1c-1.4,1.9-3.2,3.5-5.1,4.9c-1.3,0.9-2.7,1.7-4,2.5c-1.4,0.8-2.8,1.4-4.2,2
		c-0.9,0.4-2,0.6-2.9,0.9c-0.8,0.2-1.5,0.5-2.3,0.7c0,0-0.1,0-0.1,0c-2.8,0.4-5.6,1-8.5,0.8c-0.4,0-0.8,0-1.2,0
		c-1.1-0.1-2.3-0.2-3.4-0.3c-1.1-0.1-2.1-0.2-3.2-0.4c-1.1-0.2-2.1-0.6-3.1-0.9c-1-0.3-2.1-0.6-3.1-1c-1.1-0.5-2.2-1-3.3-1.6
		c-1.9-1-3.6-2.2-5.2-3.7c-1.6-1.4-3-3-4.1-4.8c-0.7-1.2-1.3-2.5-2-3.7c-0.2-0.4-0.3-0.8-0.4-1.2c-0.2-1.1-0.5-2.1-0.6-3.2
		c-1.8-23.7-3.6-47.4-5.4-71c-0.2-2.1,0.6-3.8,2.1-5.2c1.4-1.4,3.2-2.1,5.2-2c2.6,0.2,4.5,1.5,5.8,3.7c0.5,0.9,0.8,1.9,0.9,3
		c0.7,8.7,1.3,17.3,2,26c0.1,0.7,0.4,1.2,1.1,1.1c0.6,0,1.1-0.5,1-1.2c-0.8-10.2-1.6-20.4-2.3-30.7c-0.3-3.8-0.6-7.5-0.8-11.3
		c-0.1-1.9,0.8-3.5,2-4.8c1-1,2.2-1.7,3.7-1.9c1.5-0.3,2.9,0,4.3,0.6c1.6,0.7,2.7,1.9,3.4,3.4c0.4,0.8,0.5,1.8,0.6,2.7
		c1.1,13.6,2.1,27.2,3.1,40.8c0.1,0.7,0.5,1.2,1.1,1.1c0.6,0,1-0.5,0.9-1.1c-0.6-7.7-1.2-15.5-1.8-23.2c-0.7-9.1-1.4-18.2-2.1-27.4
		c-0.2-2.7,1.1-4.9,3.3-6.3c1.4-0.9,3.1-1.2,4.7-0.9c2.2,0.3,4,1.4,5.1,3.4c0.4,0.8,0.7,1.7,0.8,2.6c1.3,16.7,2.6,33.5,3.8,50.2
		c0,0.5,0,1.1,0.5,1.3c0.3,0.1,0.7,0.2,1,0.1c0.4-0.1,0.6-0.5,0.5-1c-0.6-7.6-1.2-15.3-1.8-22.9c-0.4-5-0.8-9.9-1.1-14.9
		c-0.1-1.1,0.2-2.1,0.7-3c0.5-0.8,1-1.6,1.7-2.2c0.6-0.6,1.3-1,2-1.3c0.7-0.3,1.6-0.5,2.3-0.5c2.2,0,4.1,0.8,5.6,2.6
		c1.1,1.3,1.5,2.7,1.6,4.3c0.8,11.1,1.7,22.1,2.5,33.2c0,0.2-0.1,0.5-0.1,0.8c0,0.2,0,0.5,0.1,0.7c0,0.1,0.1,0.2,0.1,0.3
		c0.1,2,0.3,3.9,0.5,5.9c0.1,2,0.3,4,0.4,6c0.2,2,0.3,3.9,0.4,5.9c0.2,2,0.3,4,0.5,6c0.2,2,0.3,4,0.4,6
		C141.4,116.5,141.4,116.6,141.4,116.8z"/>
	<path fill="#3B4552" d="M111.5,160.1c-0.4,0-0.7,0-1.1,0c-0.2,0-0.3,0-0.5,0c-0.2,0-0.5,0-0.7,0l-0.5,0c-1-0.1-2-0.2-3-0.3l-0.3,0
		c-1-0.1-2-0.2-3-0.4c-1-0.2-1.9-0.5-2.8-0.8l-0.8-0.3c-0.9-0.3-1.9-0.6-2.8-0.9c-1.2-0.5-2.4-1-3.4-1.6c-2.1-1.2-3.9-2.4-5.5-3.9
		c-1.4-1.2-3.1-3-4.4-5.2c-0.7-1.3-1.4-2.6-2-3.8c-0.2-0.4-0.4-1-0.5-1.6c-0.1-0.2-0.1-0.5-0.2-0.7c-0.2-0.8-0.4-1.7-0.5-2.6
		c-1.4-17.6-2.7-35.2-4.1-52.9L74,66.8c-0.2-2.4,0.7-4.6,2.5-6.4c1.8-1.7,4-2.6,6.4-2.4c2.9,0.3,5.3,1.7,6.8,4.1l-0.3-3.4
		c-0.2-2.8-0.4-5.6-0.6-8.5c-0.1-2.1,0.7-4.1,2.5-5.9c1.2-1.2,2.7-2,4.5-2.3c1.7-0.3,3.4-0.1,5.2,0.7c1.5,0.7,2.7,1.7,3.5,3.1
		c-0.1-1.8-0.3-3.6-0.4-5.3c-0.2-3.1,1.2-5.8,4-7.7c1.6-1.1,3.6-1.5,5.7-1.2c2.8,0.4,4.9,1.9,6.2,4.2c0.5,1,0.9,2.1,0.9,3.2
		c0.2,3.2,0.5,6.4,0.7,9.6c0.1-0.1,0.1-0.3,0.2-0.4c0.5-0.9,1.2-1.8,2-2.6c0.7-0.7,1.6-1.2,2.5-1.6c0.7-0.3,1.7-0.6,2.9-0.6
		c0,0,0,0,0,0c2.7,0,5,1,6.7,3.1c1.2,1.4,1.8,3.1,2,5.2l2.5,33.2c0,0.3,0,0.6,0,0.7c0,0,0,0.1,0,0.1c0,0.1,0,0.2,0,0.3
		c0.1,0.2,0.1,0.4,0.2,0.7c0,1.1,0.1,2.1,0.2,3.2c0.1,0.9,0.2,1.8,0.2,2.7c0.1,1.4,0.2,2.8,0.3,4.2l1.2,16c0.2-0.4,0.5-0.7,0.7-1.1
		c1-1.4,2-2.8,3-4.2l2-2.8c0.5-0.7,1-1.4,1.5-2.1c1-1.5,2.1-3,3.1-4.4c1.2-1.6,2.9-2.6,5.1-3c3.6-0.6,6.6,0.7,8.7,3.8
		c1.1,1.7,1.5,3.7,1.1,6c-0.3,1.9-1.3,3.3-2.2,4.5l-0.3,0.5c-0.4,0.6-0.8,1.2-1.3,1.8c-0.4,0.5-0.8,1.1-1.2,1.6
		c-0.6,0.9-1.2,1.7-1.8,2.6c-0.7,1-1.3,1.9-2,2.9c-0.7,1-1.4,1.9-2,2.9c-0.8,1.1-1.6,2.3-2.4,3.4c-0.7,1-1.3,1.9-2,2.9
		c-0.7,1.1-1.5,2.2-2.2,3.3c-0.5,0.8-1.1,1.5-1.6,2.3c-0.5,0.6-0.9,1.3-1.4,1.9c-0.8,1.2-1.7,2.4-2.5,3.6c-0.8,1.1-1.6,2.2-2.3,3.3
		l-0.8,1.2c-0.9,1.3-1.9,2.7-2.8,4c-1.4,1.9-3.2,3.6-5.4,5.2c-1.4,1-2.9,1.9-4.2,2.6c-1.4,0.8-2.9,1.5-4.4,2.1
		c-0.7,0.3-1.5,0.5-2.2,0.7c-0.3,0.1-0.6,0.2-0.9,0.2l-2.2,0.7c-0.1,0-0.2,0.1-0.4,0.1c-0.6,0.1-1.2,0.2-1.8,0.3
		C115.5,159.8,113.5,160.1,111.5,160.1z M82.2,61c-1.7,0-2.9,0.8-3.6,1.6c-1.2,1.2-1.7,2.5-1.6,4l1.4,18.2
		c1.3,17.6,2.7,35.2,4.1,52.9c0.1,0.7,0.2,1.4,0.4,2.2c0.1,0.3,0.1,0.5,0.2,0.8c0.1,0.4,0.2,0.6,0.3,0.8c0.6,1.1,1.2,2.4,2,3.7
		c0.8,1.5,2,2.8,3.8,4.5c1.4,1.3,3,2.4,4.9,3.5c1,0.5,2,1,3.1,1.5c0.8,0.3,1.6,0.6,2.5,0.9l0.9,0.3c0.9,0.3,1.7,0.5,2.5,0.7
		c0.9,0.2,1.7,0.3,2.7,0.4l0.3,0c1,0.1,1.9,0.2,2.9,0.3l0.5,0c0.2,0,0.4,0,0.6,0c0.2,0,0.4,0,0.6,0c2.1,0.1,4.2-0.2,6.4-0.5
		c0.6-0.1,1.1-0.2,1.7-0.3c0,0,0,0,0,0l2.3-0.7c0.3-0.1,0.6-0.2,1-0.3c0.7-0.2,1.3-0.3,1.8-0.6c1.4-0.6,2.8-1.2,4.1-2
		c1.2-0.7,2.6-1.5,3.9-2.4c2-1.5,3.6-3,4.8-4.6c1-1.3,1.9-2.6,2.8-3.9l0.8-1.2c0.8-1.1,1.6-2.2,2.3-3.3c0.8-1.2,1.7-2.4,2.5-3.6
		c0.5-0.6,0.9-1.3,1.4-1.9c0.5-0.8,1.1-1.5,1.6-2.3c0.8-1.1,1.5-2.2,2.2-3.2c0.7-1,1.3-1.9,2-2.9c0.8-1.1,1.6-2.3,2.4-3.4
		c0.7-1,1.4-1.9,2-2.9c0.7-1,1.3-1.9,2-2.9c0.6-0.9,1.2-1.8,1.8-2.6c0.4-0.6,0.8-1.1,1.2-1.7c0.4-0.6,0.8-1.2,1.3-1.8l0.3-0.5
		c0.8-1.1,1.5-2.1,1.7-3.3c0.3-1.5,0-2.8-0.7-3.8c-1.5-2.1-3.3-3-5.7-2.5c-1.4,0.2-2.4,0.8-3.2,1.8c-1.1,1.4-2.1,2.9-3.1,4.4
		c-0.5,0.7-1,1.4-1.5,2.1l-2,2.8c-1,1.4-2,2.8-3,4.2c-0.4,0.6-0.8,1.2-1.3,1.8c-0.4,0.6-0.8,1.2-1.2,1.8c-0.2,0.3-0.5,0.5-0.7,0.7
		c-0.1,0.1-0.1,0.1-0.2,0.2l-2.1,1.9l-0.4-3c0-0.2,0-0.2,0-0.3L138.4,97c-0.1-1.4-0.2-2.8-0.3-4.2c-0.1-0.9-0.1-1.7-0.2-2.6
		c-0.1-1-0.2-2.1-0.2-3.1c0-0.1-0.1-0.2-0.1-0.4c0-0.3-0.1-0.6-0.1-0.9c0-0.2,0-0.4,0-0.5c0,0,0-0.1,0-0.1L135,52
		c-0.1-1.5-0.5-2.6-1.3-3.5c-1.1-1.4-2.6-2-4.4-2c0,0,0,0,0,0c-0.5,0-1.2,0.1-1.8,0.4c-0.6,0.2-1.2,0.6-1.6,1
		c-0.6,0.5-1.1,1.2-1.4,1.9c-0.4,0.7-0.6,1.5-0.5,2.2c0.3,4,0.6,8,0.9,12.1l0.3,3.8c0.6,7.3,1.1,14.7,1.7,22
		c0.1,1.2-0.5,2.2-1.5,2.5c-0.9,0.3-1.9,0-2.1-0.1c-1.3-0.6-1.4-1.9-1.4-2.4l0-0.2c-1.3-16.7-2.6-33.5-3.8-50.2
		c-0.1-0.7-0.2-1.3-0.6-2c-0.8-1.5-2.1-2.4-4-2.7c-1-0.1-2.4-0.1-3.6,0.7c-1.9,1.3-2.8,2.9-2.7,5c0.5,6.6,1,13.2,1.5,19.8l2.4,30.8
		c0.1,0.9-0.3,1.6-0.6,1.9c-0.4,0.5-1,0.8-1.7,0.8c-1.4,0.1-2.6-0.9-2.7-2.5l-0.6-7.5c-0.8-11.1-1.7-22.2-2.6-33.3
		c-0.1-0.7-0.2-1.6-0.5-2.2c-0.6-1.3-1.4-2.1-2.6-2.7c-1.2-0.5-2.2-0.7-3.4-0.5c-1.2,0.2-2.1,0.7-2.9,1.5c-1.2,1.2-1.7,2.4-1.6,3.7
		c0.2,2.8,0.4,5.6,0.6,8.4l2.6,33.5c0.1,0.7-0.2,1.4-0.6,2c-0.5,0.5-1.1,0.8-1.8,0.8c-1.4,0.1-2.5-1-2.6-2.5l-2-26
		c-0.1-0.9-0.3-1.7-0.7-2.4c-1-1.8-2.5-2.8-4.6-3C82.5,61,82.4,61,82.2,61z"/>
</g>
<g>
	<path fill="#FFFFFF" d="M66.1,191.9v-15.8h4c0.7,0,1.4,0,2.1,0.1s1.4,0.3,2,0.6c0.3,0.2,0.6,0.5,0.9,0.7c0.2,0.3,0.4,0.6,0.5,0.9
		c0.1,0.3,0.2,0.7,0.2,1.1s0.1,0.7,0.1,1.1v7c0,0.8-0.1,1.5-0.4,2c-0.3,0.6-0.6,1-1.2,1.4c-0.5,0.3-1,0.5-1.6,0.6s-1.1,0.1-1.7,0.1
		H66.1z M69.8,189.1c0.6,0,1.1,0,1.4-0.1c0.3-0.1,0.6-0.3,0.7-0.5c0.2-0.2,0.2-0.6,0.3-0.9c0-0.4,0-0.8,0-1.4V181
		c0-0.5,0-0.8-0.1-1.1s-0.2-0.5-0.4-0.6c-0.2-0.1-0.4-0.2-0.7-0.3c-0.3,0-0.7-0.1-1.1-0.1V189.1z"/>
	<path fill="#FFFFFF" d="M80.9,186.6v2.1c0,0.3,0.1,0.6,0.2,0.8s0.4,0.4,0.8,0.4c0.3,0,0.5,0,0.7-0.2s0.3-0.3,0.3-0.5
		c0.1-0.2,0.1-0.4,0.1-0.7c0-0.2,0-0.5,0-0.7h3.3c0.1,1.5-0.3,2.6-1,3.3c-0.8,0.7-1.9,1.1-3.3,1.1c-0.6,0-1.2-0.1-1.7-0.2
		s-1-0.3-1.4-0.6c-0.4-0.3-0.7-0.7-1-1.1c-0.2-0.5-0.4-1-0.4-1.7v-4.8c0-0.8,0.1-1.4,0.3-1.9c0.2-0.5,0.5-0.9,0.9-1.2
		c0.4-0.3,0.9-0.5,1.4-0.7s1.2-0.2,1.8-0.2c0.6,0,1.2,0.1,1.7,0.2s1,0.3,1.4,0.6c0.4,0.3,0.7,0.6,1,1.1c0.3,0.4,0.4,1,0.4,1.6v3.4
		H80.9z M83.2,184.4v-1.2c0-0.1,0-0.2-0.1-0.4c0-0.1-0.1-0.3-0.2-0.4s-0.2-0.2-0.4-0.3c-0.1-0.1-0.3-0.1-0.5-0.1
		c-0.5,0-0.8,0.2-0.9,0.5c-0.2,0.3-0.2,0.7-0.2,1.1v0.8H83.2z"/>
	<path fill="#FFFFFF" d="M87.6,182.6v-2.4h1.3v-3.4h3.3v3.4h1.6v2.4h-1.6v6.2c0,0.3,0.1,0.6,0.2,0.7c0.1,0.1,0.3,0.2,0.5,0.2
		c0.2,0,0.3,0,0.4,0c0.1,0,0.2,0,0.4,0v2.4c-0.4,0.1-0.7,0.1-1.1,0.1c-0.3,0-0.7,0.1-1.1,0.1c-0.9,0-1.6-0.2-2.1-0.7
		c-0.5-0.5-0.7-1.1-0.7-2v-6.8H87.6z"/>
	<path fill="#FFFFFF" d="M98.4,186.6v2.1c0,0.3,0.1,0.6,0.2,0.8s0.4,0.4,0.8,0.4c0.3,0,0.5,0,0.7-0.2s0.3-0.3,0.3-0.5
		c0.1-0.2,0.1-0.4,0.1-0.7c0-0.2,0-0.5,0-0.7h3.3c0.1,1.5-0.3,2.6-1,3.3c-0.8,0.7-1.9,1.1-3.3,1.1c-0.6,0-1.2-0.1-1.7-0.2
		s-1-0.3-1.4-0.6c-0.4-0.3-0.7-0.7-1-1.1c-0.2-0.5-0.4-1-0.4-1.7v-4.8c0-0.8,0.1-1.4,0.3-1.9c0.2-0.5,0.5-0.9,0.9-1.2
		c0.4-0.3,0.9-0.5,1.4-0.7s1.2-0.2,1.8-0.2c0.6,0,1.2,0.1,1.7,0.2s1,0.3,1.4,0.6c0.4,0.3,0.7,0.6,1,1.1c0.3,0.4,0.4,1,0.4,1.6v3.4
		H98.4z M100.7,184.4v-1.2c0-0.1,0-0.2-0.1-0.4c0-0.1-0.1-0.3-0.2-0.4s-0.2-0.2-0.4-0.3c-0.1-0.1-0.3-0.1-0.5-0.1
		c-0.5,0-0.8,0.2-0.9,0.5c-0.2,0.3-0.2,0.7-0.2,1.1v0.8H100.7z"/>
	<path fill="#FFFFFF" d="M108.8,180.1v1.8h0c0.2-0.6,0.5-1.1,0.9-1.5c0.4-0.4,1-0.6,1.7-0.6v3.8c-0.2,0-0.3,0-0.5-0.1
		c-0.2,0-0.3,0-0.5,0c-0.5,0-0.8,0.1-1,0.2s-0.3,0.5-0.4,0.9v7.2h-3.3v-11.8H108.8z"/>
	<path fill="#FFFFFF" d="M115.8,180.1v1.8h0c0.2-0.6,0.5-1.1,0.9-1.5c0.4-0.4,1-0.6,1.7-0.6v3.8c-0.2,0-0.3,0-0.5-0.1
		c-0.2,0-0.3,0-0.5,0c-0.5,0-0.8,0.1-1,0.2s-0.3,0.5-0.4,0.9v7.2h-3.3v-11.8H115.8z"/>
	<path fill="#FFFFFF" d="M122.9,186.6v2.1c0,0.3,0.1,0.6,0.2,0.8s0.4,0.4,0.8,0.4c0.3,0,0.5,0,0.7-0.2s0.3-0.3,0.3-0.5
		c0.1-0.2,0.1-0.4,0.1-0.7c0-0.2,0-0.5,0-0.7h3.3c0.1,1.5-0.3,2.6-1,3.3c-0.8,0.7-1.9,1.1-3.3,1.1c-0.6,0-1.2-0.1-1.7-0.2
		s-1-0.3-1.4-0.6c-0.4-0.3-0.7-0.7-1-1.1c-0.2-0.5-0.4-1-0.4-1.7v-4.8c0-0.8,0.1-1.4,0.3-1.9c0.2-0.5,0.5-0.9,0.9-1.2
		c0.4-0.3,0.9-0.5,1.4-0.7s1.2-0.2,1.8-0.2c0.6,0,1.2,0.1,1.7,0.2s1,0.3,1.4,0.6c0.4,0.3,0.7,0.6,1,1.1c0.3,0.4,0.4,1,0.4,1.6v3.4
		H122.9z M125.2,184.4v-1.2c0-0.1,0-0.2-0.1-0.4c0-0.1-0.1-0.3-0.2-0.4s-0.2-0.2-0.4-0.3c-0.1-0.1-0.3-0.1-0.5-0.1
		c-0.5,0-0.8,0.2-0.9,0.5c-0.2,0.3-0.2,0.7-0.2,1.1v0.8H125.2z"/>
	<path fill="#FFFFFF" d="M133.4,180.1v1.5h0c0.1-0.2,0.2-0.4,0.4-0.7c0.2-0.2,0.3-0.4,0.5-0.6s0.4-0.3,0.7-0.4
		c0.2-0.1,0.5-0.2,0.8-0.2c0.4,0,0.8,0.1,1.1,0.2c0.4,0.1,0.7,0.3,1,0.5c0.3,0.2,0.5,0.5,0.7,0.8s0.2,0.7,0.2,1v9.6h-3.3v-8.4
		c0-0.3-0.1-0.5-0.2-0.7c-0.1-0.2-0.3-0.3-0.7-0.3c-0.6,0-0.9,0.3-0.9,1v8.4h-3.3v-11.8H133.4z"/>
	<path fill="#FFFFFF" d="M146.2,184.5l0-0.2c0-0.2,0-0.4-0.1-0.7c0-0.2,0-0.4-0.1-0.7c-0.1-0.2-0.2-0.4-0.3-0.5
		c-0.1-0.1-0.3-0.2-0.6-0.2c-0.4,0-0.7,0.1-0.8,0.4s-0.2,0.6-0.2,1v4.9c0,0.4,0.1,0.7,0.2,1c0.1,0.3,0.4,0.4,0.9,0.4
		c0.3,0,0.5-0.1,0.7-0.3c0.1-0.2,0.2-0.4,0.3-0.7s0.1-0.6,0.1-0.9c0-0.3,0-0.6,0-0.8h3.2c0,0.2,0,0.4,0,0.6s0,0.5-0.1,0.8
		c0,0.3,0,0.5-0.1,0.8s-0.1,0.4-0.1,0.6c-0.2,0.7-0.6,1.3-1.2,1.6s-1.2,0.6-2,0.6c-0.2,0-0.3,0-0.5,0c-0.2,0-0.4,0-0.6,0
		c-0.6,0-1.2-0.1-1.7-0.2s-0.9-0.3-1.3-0.6s-0.7-0.7-0.9-1.1c-0.2-0.5-0.3-1-0.3-1.7v-4.8c0-0.8,0.1-1.4,0.3-1.9
		c0.2-0.5,0.5-0.9,0.8-1.2c0.4-0.3,0.8-0.5,1.3-0.7c0.5-0.1,1.1-0.2,1.7-0.2c1.7,0,2.8,0.4,3.5,1.2c0.7,0.7,1,1.9,0.9,3.5H146.2z"/>
	<path fill="#FFFFFF" d="M154.4,186.6v2.1c0,0.3,0.1,0.6,0.2,0.8s0.4,0.4,0.8,0.4c0.3,0,0.5,0,0.7-0.2s0.3-0.3,0.3-0.5
		c0.1-0.2,0.1-0.4,0.1-0.7c0-0.2,0-0.5,0-0.7h3.3c0.1,1.5-0.3,2.6-1,3.3c-0.8,0.7-1.9,1.1-3.3,1.1c-0.6,0-1.2-0.1-1.7-0.2
		s-1-0.3-1.4-0.6c-0.4-0.3-0.7-0.7-1-1.1c-0.2-0.5-0.4-1-0.4-1.7v-4.8c0-0.8,0.1-1.4,0.3-1.9c0.2-0.5,0.5-0.9,0.9-1.2
		c0.4-0.3,0.9-0.5,1.4-0.7s1.2-0.2,1.8-0.2c0.6,0,1.2,0.1,1.7,0.2s1,0.3,1.4,0.6c0.4,0.3,0.7,0.6,1,1.1c0.3,0.4,0.4,1,0.4,1.6v3.4
		H154.4z M156.7,184.4v-1.2c0-0.1,0-0.2-0.1-0.4c0-0.1-0.1-0.3-0.2-0.4s-0.2-0.2-0.4-0.3c-0.1-0.1-0.3-0.1-0.5-0.1
		c-0.5,0-0.8,0.2-0.9,0.5c-0.2,0.3-0.2,0.7-0.2,1.1v0.8H156.7z"/>
</g>
</svg>
