<!-- Generator: Adobe Illustrator 19.1.0, SVG Export Plug-In  -->
<svg version="1.1"
	 xmlns="http://www.w3.org/2000/svg" xmlns:xlink="http://www.w3.org/1999/xlink" xmlns:a="http://ns.adobe.com/AdobeSVGViewerExtensions/3.0/"
	 x="0px" y="0px" width="225.9px" height="225.9px" viewBox="0 0 225.9 225.9" enable-background="new 0 0 225.9 225.9"
	 xml:space="preserve">
<defs>
</defs>
<rect fill="#D71921" width="225.9" height="225.9"/>
<g opacity="0.75">
	<path fill="#FFFFFF" d="M216.2,216.2H9.7V9.7h206.5V216.2z M11.7,214.2h202.5V11.7H11.7V214.2z"/>
</g>
<g>
	<path fill="#FFFFFF" d="M31.9,182.4L31.9,182.4l0.3,8.8h-3.5v-15.8h3.8l2.9,8.8h0.1l-0.4-8.8h3.5v15.8h-3.8L31.9,182.4z"/>
	<path fill="#FFFFFF" d="M40.3,183.1c0-0.8,0.1-1.4,0.3-1.9c0.2-0.5,0.5-0.9,0.9-1.2c0.4-0.3,0.8-0.5,1.4-0.7s1.1-0.2,1.8-0.2
		c1.5,0,2.6,0.3,3.3,1c0.7,0.7,1.1,1.7,1.1,3v4.8c-0.1,1.3-0.5,2.3-1.3,2.8c-0.8,0.6-1.8,0.8-3.1,0.8c-0.6,0-1.2-0.1-1.7-0.2
		c-0.5-0.1-1-0.3-1.4-0.6c-0.4-0.3-0.7-0.7-0.9-1.1c-0.2-0.5-0.3-1-0.3-1.7V183.1z M43.7,188.1c0,0.3,0.1,0.6,0.3,0.8
		c0.2,0.2,0.4,0.3,0.8,0.3s0.6-0.1,0.8-0.3c0.2-0.2,0.2-0.4,0.3-0.8v-5.2c0-0.4-0.1-0.7-0.2-1c-0.1-0.3-0.4-0.4-0.8-0.4
		s-0.7,0.1-0.8,0.4c-0.1,0.3-0.2,0.6-0.2,1V188.1z"/>
	<path fill="#FFFFFF" d="M66.1,186.2c0,0.9-0.1,1.7-0.3,2.3c-0.2,0.7-0.4,1.2-0.8,1.7c-0.4,0.4-0.9,0.8-1.5,1
		c-0.6,0.2-1.4,0.3-2.4,0.3c-0.9,0-1.7-0.1-2.4-0.3c-0.6-0.2-1.2-0.6-1.6-1c-0.4-0.4-0.7-1-0.9-1.7c-0.2-0.7-0.3-1.5-0.3-2.3v-6.4
		c0-1.5,0.4-2.7,1.3-3.5c0.9-0.8,2.1-1.2,3.7-1.2s2.9,0.4,3.7,1.2c0.8,0.8,1.3,2,1.3,3.5V186.2z M62.4,180c0-0.2,0-0.5,0-0.7
		c0-0.3-0.1-0.5-0.2-0.7s-0.2-0.4-0.4-0.5c-0.2-0.1-0.4-0.2-0.7-0.2c-0.3,0-0.5,0.1-0.7,0.2c-0.2,0.1-0.3,0.3-0.4,0.5
		c-0.1,0.2-0.2,0.4-0.2,0.7c0,0.3,0,0.5,0,0.7v6.5c0,0.2,0,0.5,0,0.7s0.1,0.5,0.2,0.7c0.1,0.2,0.2,0.4,0.4,0.6
		c0.2,0.1,0.4,0.2,0.7,0.2s0.5-0.1,0.7-0.2c0.2-0.1,0.3-0.3,0.4-0.6c0.1-0.2,0.1-0.5,0.2-0.7c0-0.3,0-0.5,0-0.7V180z"/>
	<path fill="#FFFFFF" d="M67.1,181.9v-2.4h1.3v-3.4h3.3v3.4h1.6v2.4h-1.6v6.2c0,0.3,0.1,0.6,0.2,0.7c0.1,0.1,0.3,0.2,0.5,0.2
		c0.2,0,0.3,0,0.4,0c0.1,0,0.2,0,0.4,0v2.4c-0.4,0.1-0.7,0.1-1.1,0.1c-0.3,0-0.7,0.1-1.1,0.1c-0.9,0-1.6-0.2-2.1-0.7
		c-0.5-0.5-0.7-1.1-0.7-2v-6.8H67.1z"/>
	<path fill="#FFFFFF" d="M78.2,180.4L78.2,180.4c0.4-0.5,0.8-0.8,1.2-1s0.9-0.3,1.3-0.3c0.4,0,0.8,0.1,1.1,0.2
		c0.3,0.1,0.6,0.3,0.8,0.6c0.2,0.2,0.4,0.5,0.5,0.9s0.2,0.7,0.2,1v9.4h-3.3v-8.4c0-0.3-0.1-0.6-0.2-0.8c-0.1-0.2-0.4-0.3-0.8-0.3
		c-0.4,0-0.6,0.1-0.8,0.4c-0.1,0.3-0.2,0.5-0.2,0.8v8.1h-3.3v-15.8h3.3V180.4z"/>
	<path fill="#FFFFFF" d="M88.5,185.9v2.1c0,0.3,0.1,0.6,0.2,0.8c0.2,0.2,0.4,0.4,0.8,0.4c0.3,0,0.5,0,0.7-0.2
		c0.2-0.1,0.3-0.3,0.3-0.5c0.1-0.2,0.1-0.4,0.1-0.7s0-0.5,0-0.7H94c0.1,1.5-0.3,2.6-1,3.3c-0.8,0.7-1.9,1.1-3.3,1.1
		c-0.6,0-1.2-0.1-1.7-0.2c-0.5-0.1-1-0.3-1.4-0.6c-0.4-0.3-0.7-0.7-1-1.1c-0.2-0.5-0.4-1-0.4-1.7v-4.8c0-0.8,0.1-1.4,0.3-1.9
		c0.2-0.5,0.5-0.9,0.9-1.2c0.4-0.3,0.9-0.5,1.4-0.7c0.6-0.1,1.2-0.2,1.8-0.2c0.6,0,1.2,0.1,1.7,0.2s1,0.3,1.4,0.6
		c0.4,0.3,0.7,0.6,1,1.1c0.3,0.4,0.4,1,0.4,1.6v3.4H88.5z M90.8,183.7v-1.2c0-0.1,0-0.2-0.1-0.4s-0.1-0.3-0.2-0.4
		c-0.1-0.1-0.2-0.2-0.4-0.3c-0.1-0.1-0.3-0.1-0.5-0.1c-0.5,0-0.8,0.2-0.9,0.5c-0.2,0.3-0.2,0.7-0.2,1.1v0.8H90.8z"/>
	<path fill="#FFFFFF" d="M98.9,179.4v1.8h0c0.2-0.6,0.5-1.1,0.9-1.5c0.4-0.4,1-0.6,1.7-0.6v3.8c-0.2,0-0.3,0-0.5-0.1
		c-0.2,0-0.3,0-0.5,0c-0.5,0-0.8,0.1-1,0.2s-0.3,0.5-0.4,0.9v7.2h-3.3v-11.8H98.9z"/>
	<path fill="#FFFFFF" d="M118,186.2c0,0.9-0.1,1.7-0.3,2.3c-0.2,0.7-0.4,1.2-0.8,1.7c-0.4,0.4-0.9,0.8-1.5,1
		c-0.6,0.2-1.4,0.3-2.4,0.3c-0.9,0-1.7-0.1-2.4-0.3c-0.6-0.2-1.2-0.6-1.6-1c-0.4-0.4-0.7-1-0.9-1.7c-0.2-0.7-0.3-1.5-0.3-2.3v-6.4
		c0-1.5,0.4-2.7,1.3-3.5c0.9-0.8,2.1-1.2,3.7-1.2s2.9,0.4,3.7,1.2c0.8,0.8,1.3,2,1.3,3.5V186.2z M114.3,180c0-0.2,0-0.5,0-0.7
		c0-0.3-0.1-0.5-0.2-0.7s-0.2-0.4-0.4-0.5c-0.2-0.1-0.4-0.2-0.7-0.2c-0.3,0-0.5,0.1-0.7,0.2c-0.2,0.1-0.3,0.3-0.4,0.5
		c-0.1,0.2-0.2,0.4-0.2,0.7c0,0.3,0,0.5,0,0.7v6.5c0,0.2,0,0.5,0,0.7s0.1,0.5,0.2,0.7c0.1,0.2,0.2,0.4,0.4,0.6
		c0.2,0.1,0.4,0.2,0.7,0.2s0.5-0.1,0.7-0.2c0.2-0.1,0.3-0.3,0.4-0.6c0.1-0.2,0.1-0.5,0.2-0.7c0-0.3,0-0.5,0-0.7V180z"/>
	<path fill="#FFFFFF" d="M123.1,180.4L123.1,180.4c0.3-0.5,0.7-0.8,1.1-1c0.5-0.2,0.9-0.3,1.4-0.3c0.5,0,1,0.1,1.4,0.4
		c0.4,0.2,0.7,0.6,0.9,1s0.4,0.8,0.5,1.3s0.1,0.9,0.1,1.4v4.1c0,0.5,0,1-0.1,1.5c-0.1,0.5-0.2,1-0.4,1.4s-0.5,0.8-0.9,1
		c-0.4,0.3-0.9,0.4-1.5,0.4c-0.5,0-1-0.2-1.5-0.5c-0.5-0.3-0.9-0.7-1.1-1.2h0v1.3h-3.1v-15.8h3.3V180.4z M125.2,183.8
		c0-0.2,0-0.4,0-0.6s0-0.4-0.1-0.6c-0.1-0.2-0.2-0.4-0.3-0.5c-0.1-0.1-0.3-0.2-0.6-0.2c-0.4,0-0.7,0.2-0.9,0.6
		c-0.1,0.4-0.2,0.9-0.2,1.5v2.8c0,0.3,0,0.5,0,0.8c0,0.3,0.1,0.5,0.2,0.7c0.1,0.2,0.2,0.4,0.3,0.5c0.1,0.1,0.3,0.2,0.5,0.2
		c0.3,0,0.5-0.1,0.6-0.2c0.1-0.1,0.2-0.3,0.3-0.5c0.1-0.2,0.1-0.4,0.1-0.7c0-0.2,0-0.4,0-0.6V183.8z"/>
	<path fill="#FFFFFF" d="M129.6,192.8h0.4c0.3,0,0.5-0.2,0.5-0.4c0.1-0.2,0.1-0.5,0.1-0.7v-12.2h3.3v12.1c0,0.5,0,1-0.1,1.5
		c-0.1,0.4-0.2,0.8-0.4,1.1c-0.2,0.3-0.5,0.6-0.9,0.8c-0.4,0.2-0.8,0.3-1.4,0.3h-1.6V192.8z M130.6,178.3v-2.8h3.3v2.8H130.6z"/>
	<path fill="#FFFFFF" d="M139.3,185.9v2.1c0,0.3,0.1,0.6,0.2,0.8c0.2,0.2,0.4,0.4,0.8,0.4c0.3,0,0.5,0,0.7-0.2
		c0.2-0.1,0.3-0.3,0.3-0.5c0.1-0.2,0.1-0.4,0.1-0.7s0-0.5,0-0.7h3.3c0.1,1.5-0.3,2.6-1,3.3c-0.8,0.7-1.9,1.1-3.3,1.1
		c-0.6,0-1.2-0.1-1.7-0.2c-0.5-0.1-1-0.3-1.4-0.6c-0.4-0.3-0.7-0.7-1-1.1c-0.2-0.5-0.4-1-0.4-1.7v-4.8c0-0.8,0.1-1.4,0.3-1.9
		c0.2-0.5,0.5-0.9,0.9-1.2c0.4-0.3,0.9-0.5,1.4-0.7c0.6-0.1,1.2-0.2,1.8-0.2c0.6,0,1.2,0.1,1.7,0.2s1,0.3,1.4,0.6
		c0.4,0.3,0.7,0.6,1,1.1c0.3,0.4,0.4,1,0.4,1.6v3.4H139.3z M141.6,183.7v-1.2c0-0.1,0-0.2-0.1-0.4s-0.1-0.3-0.2-0.4
		c-0.1-0.1-0.2-0.2-0.4-0.3c-0.1-0.1-0.3-0.1-0.5-0.1c-0.5,0-0.8,0.2-0.9,0.5c-0.2,0.3-0.2,0.7-0.2,1.1v0.8H141.6z"/>
	<path fill="#FFFFFF" d="M152.1,183.8l0-0.2c0-0.2,0-0.4-0.1-0.7s0-0.4-0.1-0.7c-0.1-0.2-0.2-0.4-0.3-0.5c-0.1-0.1-0.3-0.2-0.6-0.2
		c-0.4,0-0.7,0.1-0.8,0.4c-0.1,0.3-0.2,0.6-0.2,1v4.9c0,0.4,0.1,0.7,0.2,1s0.4,0.4,0.9,0.4c0.3,0,0.5-0.1,0.7-0.3
		c0.1-0.2,0.2-0.4,0.3-0.7c0-0.3,0.1-0.6,0.1-0.9s0-0.6,0-0.8h3.2c0,0.2,0,0.4,0,0.6c0,0.3,0,0.5-0.1,0.8c0,0.3,0,0.5-0.1,0.8
		c0,0.2-0.1,0.4-0.1,0.6c-0.2,0.7-0.6,1.3-1.2,1.6c-0.6,0.4-1.2,0.6-2,0.6c-0.2,0-0.3,0-0.5,0c-0.2,0-0.4,0-0.6,0
		c-0.6,0-1.2-0.1-1.7-0.2c-0.5-0.1-0.9-0.3-1.3-0.6s-0.7-0.7-0.9-1.1c-0.2-0.5-0.3-1-0.3-1.7v-4.8c0-0.8,0.1-1.4,0.3-1.9
		c0.2-0.5,0.5-0.9,0.8-1.2c0.4-0.3,0.8-0.5,1.3-0.7s1.1-0.2,1.7-0.2c1.7,0,2.8,0.4,3.5,1.2c0.7,0.7,1,1.9,0.9,3.5H152.1z"/>
	<path fill="#FFFFFF" d="M156.4,181.9v-2.4h1.3v-3.4h3.3v3.4h1.6v2.4H161v6.2c0,0.3,0.1,0.6,0.2,0.7c0.1,0.1,0.3,0.2,0.5,0.2
		c0.2,0,0.3,0,0.4,0c0.1,0,0.2,0,0.4,0v2.4c-0.4,0.1-0.7,0.1-1.1,0.1c-0.4,0-0.7,0.1-1.1,0.1c-0.9,0-1.6-0.2-2.1-0.7
		c-0.5-0.5-0.7-1.1-0.7-2v-6.8H156.4z"/>
	<path fill="#FFFFFF" d="M164.4,178.3v-2.8h3.3v2.8H164.4z M164.4,191.2v-11.8h3.3v11.8H164.4z"/>
	<path fill="#FFFFFF" d="M173.6,187.1L173.6,187.1l1.2-7.6h3.3l-2.6,11.8h-3.8l-2.6-11.8h3.4L173.6,187.1z"/>
	<path fill="#FFFFFF" d="M182.4,185.9v2.1c0,0.3,0.1,0.6,0.2,0.8s0.4,0.4,0.8,0.4c0.3,0,0.5,0,0.7-0.2s0.3-0.3,0.3-0.5
		c0.1-0.2,0.1-0.4,0.1-0.7c0-0.2,0-0.5,0-0.7h3.3c0.1,1.5-0.3,2.6-1,3.3c-0.8,0.7-1.9,1.1-3.3,1.1c-0.6,0-1.2-0.1-1.7-0.2
		s-1-0.3-1.4-0.6c-0.4-0.3-0.7-0.7-1-1.1c-0.2-0.5-0.4-1-0.4-1.7v-4.8c0-0.8,0.1-1.4,0.3-1.9c0.2-0.5,0.5-0.9,0.9-1.2
		c0.4-0.3,0.9-0.5,1.4-0.7s1.2-0.2,1.8-0.2c0.6,0,1.2,0.1,1.7,0.2s1,0.3,1.4,0.6c0.4,0.3,0.7,0.6,1,1.1c0.3,0.4,0.4,1,0.4,1.6v3.4
		H182.4z M184.7,183.7v-1.2c0-0.1,0-0.2-0.1-0.4c0-0.1-0.1-0.3-0.2-0.4s-0.2-0.2-0.4-0.3c-0.1-0.1-0.3-0.1-0.5-0.1
		c-0.5,0-0.8,0.2-0.9,0.5c-0.2,0.3-0.2,0.7-0.2,1.1v0.8H184.7z"/>
	<path fill="#FFFFFF" d="M194.6,182.9c0-0.2,0-0.4-0.1-0.6c0-0.2-0.1-0.4-0.1-0.5c-0.1-0.2-0.2-0.3-0.3-0.4s-0.3-0.1-0.6-0.1
		c-0.3,0-0.6,0.1-0.8,0.2c-0.2,0.2-0.3,0.4-0.3,0.8c0,0.3,0.1,0.6,0.3,0.7s0.5,0.3,0.7,0.5c0.5,0.3,1.1,0.5,1.6,0.7s1,0.5,1.4,0.8
		c0.4,0.3,0.8,0.7,1,1.1c0.3,0.4,0.4,1,0.4,1.7c0,0.7-0.1,1.2-0.3,1.7c-0.2,0.5-0.5,0.9-1,1.2c-0.4,0.3-0.9,0.5-1.4,0.7
		c-0.5,0.1-1.1,0.2-1.7,0.2c-0.7,0-1.3-0.1-1.8-0.2c-0.6-0.1-1-0.4-1.4-0.7c-0.4-0.3-0.7-0.7-0.9-1.2c-0.2-0.5-0.3-1.1-0.3-1.8h3.2
		c0,0.2,0,0.4,0,0.6c0,0.2,0.1,0.4,0.2,0.6c0.1,0.2,0.2,0.3,0.4,0.4c0.2,0.1,0.4,0.2,0.6,0.2c0.4,0,0.7-0.1,0.9-0.3
		c0.2-0.2,0.3-0.5,0.3-0.8s-0.1-0.7-0.4-0.9c-0.3-0.2-0.7-0.4-1.1-0.5c-0.4-0.2-0.8-0.3-1.2-0.5c-0.4-0.2-0.8-0.4-1.1-0.6
		s-0.7-0.5-0.9-0.8c-0.6-0.6-0.8-1.4-0.8-2.2c0-0.6,0.1-1.2,0.3-1.6c0.2-0.5,0.5-0.8,0.9-1.1c0.4-0.3,0.9-0.5,1.4-0.7
		c0.5-0.1,1.1-0.2,1.7-0.2c0.6,0,1.2,0.1,1.7,0.2c0.5,0.2,1,0.4,1.4,0.7c0.4,0.3,0.7,0.7,0.9,1.2c0.2,0.5,0.3,1,0.3,1.7H194.6z"/>
</g>
<g>
	<path fill="#FFFFFF" d="M155.3,122.6c-0.6-1.1-1.3-2.1-2.2-2.9c-7.3-7.6-14.7-15.1-22-22.7c-1.8-1.9-1.8-2.1,0.1-4
		c7.4-7.6,14.8-15.1,22.3-22.7c3.3-3.4,3.4-6.6,0.2-10c-2.5-2.6-5-5.1-7.5-7.6c-2.3-2.3-5.2-2.3-7.6,0c-3.9,3.8-7.8,7.6-11.7,11.4
		c-4.4,4.3-8.8,8.6-13.2,12.9c-1,1-1.6,0.8-2.5-0.1c-2.4-2.5-4.9-5-7.4-7.5C98.1,64,92.5,58.4,86.9,53c-2.5-2.4-5.6-2.7-8.1-0.5
		c-3.2,2.9-6.1,6.1-8.9,9.4c-1.6,1.8-1.4,4.2,0,6.2c0.5,0.8,1.1,1.5,1.8,2.2c7.6,7.6,15.2,15.1,22.8,22.6c1.7,1.7,1.8,1.7,0.1,3.4
		c-7.6,7.6-15.2,15.1-22.8,22.7c-1.1,1.1-1.8,2.8-2.5,4c0.4,1.4,0.5,2.4,1,3.1c3,3.6,5.9,7.3,9.3,10.4c3.4,3,5.8,2.6,9-0.7
		c7.4-7.5,14.8-15,22.2-22.5c1.7-1.7,2.1-1.7,3.9,0c7.2,7.1,14.4,14.1,21.5,21.2c1,1,2,2.1,3.2,3c2.6,2,4.8,1.9,7.2-0.4
		c2.6-2.7,5.2-5.4,7.8-8.1C156.3,127.2,156.6,124.9,155.3,122.6z"/>
	<path fill="#3B4552" d="M142.9,140.5c-1.4,0-2.9-0.6-4.4-1.7c-0.9-0.7-1.7-1.5-2.4-2.3c-0.3-0.3-0.6-0.6-0.9-0.9l-8.4-8.3
		c-4.4-4.3-8.7-8.6-13.1-12.9c-0.5-0.5-0.7-0.7-0.9-0.8c-0.2,0.1-0.4,0.3-0.9,0.8c-7.4,7.5-14.8,15-22.2,22.5
		c-3.9,4-7.2,4.2-11.1,0.7c-2.8-2.5-5.2-5.4-7.5-8.2c-0.6-0.8-1.3-1.5-1.9-2.3c-0.6-0.7-0.8-1.5-1-2.4c-0.1-0.4-0.2-0.8-0.3-1.2
		l-0.2-0.7l0.4-0.6c0.2-0.4,0.4-0.7,0.6-1.1c0.5-1,1.2-2.2,2.1-3.1c5.6-5.6,11.3-11.3,16.8-16.8c2-2,4-4,6-5.9
		c0.2-0.2,0.4-0.4,0.6-0.6c-0.2-0.2-0.4-0.4-0.6-0.6L93.4,94c-7.6-7.5-15.2-15.1-22.8-22.6C70,70.7,69.4,70,68.7,69
		c-1.9-2.7-1.9-5.8,0.1-8c2.5-2.9,5.6-6.4,9-9.5c2.9-2.7,7-2.5,10.1,0.5c4.4,4.3,8.9,8.7,13.2,13l5,4.9c2,2,4.1,4,6.1,6.1
		c0.1,0.1,0.2,0.2,0.3,0.2c0,0,0.1-0.1,0.1-0.1c3.4-3.4,7-6.9,10.4-10.2l4.9-4.8c3.2-3.1,6.3-6.2,9.5-9.3c3-2.9,6.8-2.9,9.7,0
		c3,3,5.4,5.4,7.6,7.6c3.8,3.9,3.7,8.1-0.2,12.1l-22.3,22.7c-0.2,0.2-0.7,0.7-0.9,1c0.2,0.3,0.6,0.7,0.8,0.9l5.9,6.1
		c5.4,5.5,10.8,11,16.1,16.6c1,1,1.8,2.1,2.4,3.3v0c1.6,2.9,1.2,5.8-1.1,8.2c-2.1,2.2-5,5.2-7.9,8.1
		C146.2,139.7,144.6,140.5,142.9,140.5z M112.8,110.6c0.9,0,1.8,0.6,3,1.7c4.4,4.3,8.7,8.6,13.1,12.9l8.4,8.3
		c0.3,0.3,0.6,0.6,0.9,0.9c0.7,0.7,1.4,1.4,2.1,2c2,1.6,3.4,1.5,5.2-0.3c2.9-2.9,5.7-5.8,7.8-8c1.4-1.4,1.6-3,0.6-4.7l0,0
		c-0.5-0.9-1.2-1.8-1.9-2.6c-5.4-5.5-10.7-11.1-16.1-16.6l-5.9-6.1c-2.4-2.4-2.4-3.6,0.1-6.1l22.3-22.7c2.8-2.8,2.8-5.1,0.1-7.9
		c-2.1-2.2-4.5-4.6-7.5-7.6c-1.8-1.7-3.7-1.7-5.5,0c-3.2,3.1-6.4,6.2-9.5,9.3L125,68c-3.4,3.3-6.9,6.8-10.4,10.2
		c-0.5,0.5-1.2,1.1-2.3,1.1c0,0,0,0,0,0c-1.1,0-1.8-0.7-2.4-1.3c-2-2.1-4-4.1-6-6.1L99,67c-4.3-4.3-8.8-8.7-13.2-12.9
		c-2-1.9-4.2-2.1-6-0.4c-3.3,3.1-6.3,6.4-8.8,9.3c-1.5,1.7-0.4,3.6,0.1,4.4c0.6,0.8,1.1,1.5,1.6,2c7.6,7.6,15.2,15.1,22.8,22.6
		l0.1,0.1c1,1,1.7,1.7,1.7,2.7c0,1-0.7,1.7-1.7,2.8c-2,2-4,4-6,6c-5.5,5.5-11.2,11.1-16.8,16.7c-0.6,0.6-1.1,1.5-1.6,2.4
		c-0.1,0.2-0.3,0.5-0.4,0.7c0.1,0.3,0.1,0.5,0.2,0.8c0.1,0.5,0.2,1,0.4,1.2c0.7,0.8,1.3,1.5,1.9,2.3c2.3,2.7,4.6,5.6,7.3,7.9
		c2.6,2.3,4.2,2.2,6.9-0.6c7.4-7.5,14.8-15,22.2-22.5C111,111.2,111.9,110.6,112.8,110.6z"/>
</g>
</svg>
