<!-- Generator: Adobe Illustrator 19.1.0, SVG Export Plug-In  -->
<svg version="1.1"
	 xmlns="http://www.w3.org/2000/svg" xmlns:xlink="http://www.w3.org/1999/xlink" xmlns:a="http://ns.adobe.com/AdobeSVGViewerExtensions/3.0/"
	 x="0px" y="0px" width="225.9px" height="225.9px" viewBox="0 0 225.9 225.9" enable-background="new 0 0 225.9 225.9"
	 xml:space="preserve">
<defs>
</defs>
<rect fill="#D71921" width="225.9" height="225.9"/>
<g opacity="0.75">
	<path fill="#FFFFFF" d="M216.2,216.2H9.7V9.7h206.5V216.2z M11.7,214.2h202.5V11.7H11.7V214.2z"/>
</g>
<g>
	<g id="XMLID_1_">
		<g>
			<path fill="#FFFFFF" d="M136.2,49.8c1.4,0.7,1.6,1.3,0.4,2.5c-1.7,1.6-3.5,3.1-5.3,4.7c-1,0.9-2,1.7-3,2.6l-2.2-2.6
				c0.1-0.1,0.2-0.1,0.2-0.2c1.9-3,3.8-6,5.7-9.1c0.1-0.1,0.1-0.2,0.2-0.2C133.6,48.3,134.8,49.1,136.2,49.8z"/>
			<path fill="#FFFFFF" d="M122.3,43.4c1.2-0.5,2-0.8,3.1-1.3c0.1,0.8,0.2,1.5,0.1,2.2c0,0.2-0.8,0.6-1,0.5
				C123.7,44.5,123.1,44,122.3,43.4z"/>
			<path fill="#FFFFFF" d="M122.7,55.5c1.2-3,2.5-5.9,3.7-8.9c1.4-3.5,1.4-3.5-0.8-6.7c1.4-1.6,5.3-2.5,7.2-1.6
				c1.3,0.6,1.6,2,0.6,3.5c-1.9,3.2-3.8,6.3-5.6,9.5c-0.9,1.6-1.8,3.1-2.6,4.8c0,0.1,0,0.1-0.1,0.2L122.7,55.5z"/>
			<path fill="#FFFFFF" d="M122.7,55.5l2.4,0.8c-0.1,0.3,0,0.7,0,1.1c0.3-0.2,0.7-0.3,0.9-0.4l2.2,2.6c-1.2,1-2.3,2.1-3.5,3.1
				c-0.6,0.5-1.1,1.1-1.6,1.7c-1.3,1.7-1.8,1.9-4.4,1.2c0.9-2.4,1.7-4.8,2.7-7C121.9,57.5,122.3,56.5,122.7,55.5z"/>
			<path fill="#FFFFFF" d="M119.7,121.2c2.1,0.8,3.1,2.1,3,3.9c-0.1,1.7-1.2,3-3.4,3.6c-2,0.6-2.4,0.2-2.3-1.9c0.1-2,0-4.1,0-6.4
				C118.2,120.7,119,120.9,119.7,121.2z"/>
			<path fill="#3B4552" d="M114.8,91.6c0.7-0.1,1.4,0,2.1-0.1c0.8,0,1.1,0.4,1.1,1.2c-0.1,2.4-0.3,2.5,2.5,2.4
				c4.8,0,10.3,4.1,11.2,9.1c0.1,0.8,0.2,1.5,0.4,2.7c-1.1,0-2.1,0-3,0c-1.7,0-3.3,0-5,0c-0.9,0-1.4-0.2-1.5-1.3
				c-0.4-2.6-1.9-3.7-4.4-3.5c0,2.7,0,5.5,0,8.3c1.4,0.4,2.9,0.8,4.3,1.3c2,0.8,4.1,1.6,5.9,2.8c4.1,2.7,5.6,8,3.9,12.6
				c-0.6,1.5-1.1,3.3-2.2,4.4c-2.6,2.7-6,4-9.8,4.2c-0.2,0-0.5,0-0.7,0c-2,0.1-2.3,0.4-2,2.4c0.1,0.9,0.2,1.7,0.2,2.7
				c-1.6,0-2.9,0-4.3,0c0-1.6,0-3.1,0-4.6c-1.7-0.3-3.2-0.7-4.8-0.9c-3.1-0.5-5.6-2.2-7.5-4.4c-1.9-2.2-2.7-5.1-2.8-8.3
				c3.4,0,6.7,0,9.9,0c0.6,1.5,1.1,3,1.7,4.4c0.2,0.4,0.6,0.9,1,1c0.7,0.3,1.5,0.3,2.2,0.4c0.1-0.7,0.3-1.4,0.3-2.1c0-2-0.2-4-0.2-6
				c0-0.9-0.3-1.2-1.1-1.5c-2.6-0.9-5.4-1.7-7.8-2.9c-5.7-3-6.7-10.8-3.4-15.4c2.2-3,5.4-4.6,9-5.2c0.4-0.1,0.8-0.1,1.2-0.2
				c0.9-0.1,2.1,0,2.6-0.5c0.5-0.4,0.2-1.6,0.4-2.5C114,92,114.4,91.6,114.8,91.6z M122.7,125.1c0.1-1.8-0.9-3-3-3.9
				c-0.7-0.3-1.5-0.5-2.7-0.9c0,2.4,0.1,4.4,0,6.4c-0.1,2,0.3,2.5,2.3,1.9C121.4,128,122.6,126.8,122.7,125.1z M114.2,102.9
				c0-0.9-0.4-1.4-1.3-1.2c-0.9,0.2-1.9,0.3-2.6,0.8c-2.3,1.3-2.2,4.7,0.1,5.9c1,0.5,2.2,0.8,3.4,1.3
				C113.9,107.2,114,105.1,114.2,102.9z"/>
			<path fill="#FFFFFF" d="M112.9,101.7c0.9-0.2,1.3,0.3,1.3,1.2c-0.1,2.1-0.2,4.3-0.3,6.7c-1.3-0.5-2.4-0.7-3.4-1.3
				c-2.3-1.2-2.4-4.6-0.1-5.9C111,102,112,101.9,112.9,101.7z"/>
			<path fill="#FFFFFF" d="M122.4,70.6c-6.7-0.1-13.4-0.2-20.1-0.3c-1,0-1.9-0.3-2-1.4c-0.1-1.3,0.9-1.6,2-1.6c1.9,0,3.7,0,5.6,0
				c0-0.1,0-0.2,0-0.3c4.8,0,9.7,0,14.5,0c2.1,0,3,0.6,3,1.8S124.5,70.7,122.4,70.6z"/>
			<path fill="#FFFFFF" d="M106.9,59.9c0.2,0.3,0.6,0.3,0.9,0.5c0.1-0.4,0.5-0.8,0.4-1.1c-0.2-0.6-0.6-1.1-0.8-1.7
				c-2-4.7-3.9-9.4-5.9-14.1c-0.6-1.6-0.2-2.3,1.4-2.9c0.4-0.1,0.8-0.3,1.1-0.3c4.5,0,9-0.1,13.5,0c1.6,0,2.7,1.1,3.1,2.7
				c0.6,1.8,1.6,3.2,3.8,3.6c-0.6,1.5-1.2,2.9-1.7,4.4c-1.7,4.6-3.3,9.3-5.1,13.9c-0.2,0.4-1,0.9-1.5,0.9c-2.8,0-5.6-0.1-8.3-0.2
				c-0.3,0-0.8,0-0.9-0.2c-1-1.6-2.1-3.1-3.3-4.6l3.1-1.3C106.8,59.7,106.9,59.8,106.9,59.9z"/>
			<path fill="#FFFFFF" d="M106.8,59.5l-3.1,1.3c-2.6-3.2-5.5-6.2-8-9.5c-0.1-0.1-0.1-0.2-0.1-0.3c1.9-1.1,3.8-2.2,5.7-3.3
				c1.5,3.4,3.2,7.1,4.9,10.8C106.4,58.8,106.6,59.2,106.8,59.5z"/>
			<path fill="#FFFFFF" d="M102.5,72.2c6.8-0.1,13.6-0.1,20.4-0.2c0.2,0,0.5,0,0.7,0c1,0.1,1.7,0.6,1.8,1.6c0,1.1-0.7,1.7-1.8,1.8
				c-2,0.1-4,0-6,0c0,0,0-0.1,0-0.2c-5,0-10.1,0-15.1,0c-1.1,0-2.2-0.2-2.2-1.6C100.3,72.4,101.5,72.2,102.5,72.2z"/>
			<path fill="#FFFFFF" d="M102.8,64.8c-0.6-0.9-1.4-1.6-2.3-2.2c-4.6-3.2-9.2-6.3-13.9-9.3c-0.9-0.6-1.1-1.1-0.6-2
				c0.2-0.3,0.3-0.7,0.5-1c1.5-2.4,2.5-2.7,4.8-1.1c1,0.7,2,1.5,2.9,2.5c3.3,3.9,6.5,7.8,9.8,11.7c0.5,0.6,0.8,1.3,1.2,2
				C104,66.1,103.4,65.8,102.8,64.8z"/>
			<path fill="#FFFFFF" d="M100,45.2c-0.8,2.7-3,3.4-5.2,4.1c-0.3,0.1-0.8-0.2-1.5-0.4C95.7,47.6,97.8,46.5,100,45.2z"/>
			<path fill="#FFFFFF" d="M94.2,60c-0.1,0.2-0.2,0.3-0.2,0.5c-2-0.8-4-1.5-5.9-2.4c-0.5-0.3-0.6-1.3-0.8-2c0.2-0.1,0.4-0.2,0.6-0.3
				C90,57.2,92.1,58.6,94.2,60z"/>
			<path fill="#3B4552" d="M125.5,44.3c0.1-0.7-0.1-1.4-0.1-2.2c-1.1,0.5-1.9,0.8-3.1,1.3c0.8,0.6,1.5,1.1,2.2,1.5
				C124.7,44.9,125.4,44.6,125.5,44.3z M121.5,58.5c-0.9,2.3-1.8,4.6-2.7,7c2.6,0.7,3.1,0.5,4.4-1.2c0.5-0.6,1-1.2,1.6-1.7
				c1.2-1,2.3-2.1,3.5-3.1c1-0.9,2-1.7,3-2.6c1.8-1.6,3.6-3.1,5.3-4.7c1.2-1.2,1.1-1.8-0.4-2.5c-1.4-0.7-2.7-1.5-4.1-2.3
				c0,0-0.1,0.1-0.2,0.2c-1.9,3-3.7,6.1-5.7,9.1c0,0.1-0.1,0.1-0.2,0.2c-0.3,0.2-0.6,0.3-0.9,0.4c0-0.4-0.1-0.8,0-1.1
				c0-0.1,0-0.1,0.1-0.2c0.8-1.6,1.7-3.2,2.6-4.8c1.9-3.2,3.7-6.3,5.6-9.5c0.9-1.6,0.6-2.9-0.6-3.5c-1.8-0.9-5.8,0-7.2,1.6
				c2.2,3.1,2.2,3.1,0.8,6.7c-1.2,3-2.5,6-3.7,8.9C122.3,56.5,121.9,57.5,121.5,58.5z M102.3,67.4c-1.1,0-2.1,0.3-2,1.6
				c0,1.2,1,1.4,2,1.4c6.7,0.1,13.4,0.2,20.1,0.3c2.1,0,3-0.6,3-1.8s-1-1.8-3-1.8c-4.8,0-9.7,0-14.5,0c0,0.1,0,0.2,0,0.3
				C106.1,67.4,104.2,67.4,102.3,67.4z M102.5,72.2c-1.1,0-2.2,0.2-2.2,1.6c0,1.3,1.1,1.6,2.2,1.6c5,0,10.1,0,15.1,0
				c0,0,0,0.1,0,0.2c2,0,4,0,6,0c1,0,1.8-0.6,1.8-1.8c0-1.1-0.8-1.5-1.8-1.6c-0.2,0-0.5,0-0.7,0C116.1,72.1,109.3,72.1,102.5,72.2z
				 M87.9,55.8c-0.2,0.1-0.4,0.2-0.6,0.3c0.3,0.7,0.3,1.7,0.8,2c1.9,1,3.9,1.6,5.9,2.4c0.1-0.2,0.2-0.3,0.2-0.5
				C92.1,58.6,90,57.2,87.9,55.8z M100,45.2c-2.2,1.2-4.3,2.4-6.7,3.7c0.6,0.2,1.1,0.6,1.5,0.4C97,48.6,99.2,47.9,100,45.2z
				 M86.7,53.3c4.6,3.1,9.3,6.2,13.9,9.3c0.9,0.6,1.7,1.3,2.3,2.2c0.6,0.9,1.2,1.2,2.4,0.5c-0.4-0.7-0.7-1.4-1.2-2
				c-3.2-3.9-6.5-7.9-9.8-11.7c-0.8-1-1.8-1.8-2.9-2.5c-2.3-1.6-3.3-1.3-4.8,1.1c-0.2,0.3-0.3,0.7-0.5,1
				C85.5,52.2,85.8,52.7,86.7,53.3z M101.4,47.7c-2,1.1-3.8,2.2-5.7,3.3c0,0.1,0,0.2,0.1,0.3c2.5,3.3,5.4,6.3,8,9.5
				c1.2,1.5,2.3,3,3.3,4.6c0.1,0.2,0.6,0.2,0.9,0.2c2.8,0.1,5.6,0.2,8.3,0.2c0.5,0,1.3-0.5,1.5-0.9c1.8-4.6,3.4-9.3,5.1-13.9
				c0.5-1.4,1.1-2.9,1.7-4.4c-2.2-0.4-3.3-1.8-3.8-3.6c-0.5-1.6-1.5-2.6-3.1-2.7c-4.5-0.1-9,0-13.5,0c-0.4,0-0.8,0.1-1.1,0.3
				c-1.6,0.5-2,1.3-1.4,2.9c1.9,4.7,3.9,9.4,5.9,14.1c0.2,0.6,0.7,1.1,0.8,1.7c0.1,0.3-0.2,0.7-0.4,1.1c-0.3-0.2-0.7-0.3-0.9-0.5
				c-0.1-0.1-0.1-0.2-0.2-0.3c-0.2-0.4-0.3-0.8-0.5-1.1C104.6,54.7,102.9,51.1,101.4,47.7z M70.6,144.6c-0.4-0.4-0.5-1-0.7-1.2
				c-0.9,1.5-1.8,3-2.6,4.6c-0.3,0.6-0.6,1.5-0.3,2c0.2,0.5,1.2,0.8,1.8,0.9c2.4,0.3,4.8,0.4,6.9,0.6c-0.1-0.5-0.3-1.2-0.4-1.8
				c0.7,0.2,1.4,0.3,2,0.6c2.6,1.3,5.1,2.9,7.9,3.8c7.6,2.6,15.4,2.9,23.4,2.8c13.6-0.2,27-2.3,40.3-4.9c4.2-0.8,8.3-1.8,11.7-4.8
				c0.2-0.2,0.8,0,1.2,0.1c0,0.4,0.1,0.9-0.1,1.2c-0.6,0.6-1.3,1.2-2,1.8c0,0.2,0.1,0.3,0.1,0.5c1.6,0,3.1,0.2,4.6,0
				c2.9-0.4,3.9-3,2.3-5.3c-0.5-0.7-1.2-1.3-1.9-1.8c-1.8-1.4-2.8-3.2-3.1-5.5c-0.9-6.1-1.2-12.3-3.4-18.2c-1.1-3-1.9-6.1-3-9
				c-1.8-4.6-4.3-8.7-7.1-12.8c-3.5-5-7.3-9.6-12.2-13.2c-3.3-2.5-6.9-4.4-10.3-6.7c-1.7-1.1-3.4-1.3-5.3-1.3
				c-5.7,0.1-11.5,0.1-17.2,0.2c-0.6,0-1.2,0.2-1.7,0.4C92,82.9,83.9,90,77.2,98.7c-3.1,4-5.2,8.6-6.6,13.5
				c-1.9,6.5-2.1,13-1.5,19.6c0.3,3.5,0.4,7,2.1,10.2c0.3,0.6,0.6,1.2,0.8,1.9c0.1,0.3-0.1,0.9-0.3,1
				C71.4,145,70.8,144.8,70.6,144.6z M168.9,140.1c2.8,2.2,4.2,5.2,3.6,8.8c-0.7,4-4.1,6.8-8.3,7c-1.4,0.1-2.9-0.1-4.4-0.3
				c-3.3-0.5-6.4,0.8-9.5,1.4c-15.3,3-30.6,5.3-46.2,5.1c-5.9-0.1-11.8-0.7-17.6-2.2c-4.6-1.2-9.2-2.4-13.8-3.5
				c-1.3-0.3-2.6-0.2-4-0.3c-2.8-0.1-5.1-1.1-6.4-3.6c-1.4-2.6-1-5.1,0.6-7.3c2.3-3,1.9-6.2,1.5-9.6c-0.4-3.2-0.5-6.5-0.6-9.7
				c-0.1-2.4-0.1-4.9,0.2-7.3c0.6-7.9,4.1-14.7,8.2-21.2c5.6-8.8,13.2-15.5,21.8-21.3c0.8-0.6,1.2-1,1.1-2.2
				c-0.2-2.4,0.1-4.9,0.2-7.5c-2.3-0.8-4.5-1.6-6.8-2.4c-3.2-1.1-5.6-3-5.9-6.7c0-0.3-0.2-0.7-0.4-0.9c-2.1-1.7-2-4-1.1-6
				c0.8-2,2.1-3.9,3.5-5.5c1.8-2,4.3-2.4,6.9-1.6c1.3,0.4,4.3-1,4.6-2.3c0.9-3.4,3.4-4.9,6.6-5.4c2-0.3,4-0.2,6-0.3
				c2.5,0,5.1,0,7.6,0c0.8,0,1.8,0,2.5,0.3c1.8,0.8,3.1,0.5,4.8-0.6c2.8-1.8,6-2.6,9.4-1.8c4.5,1,6.8,4.6,5.7,9.1
				c-0.2,0.8-0.5,1.7-0.7,2.5c0.1,0.1,0.2,0.3,0.3,0.3c5.3,2.4,4.5,8.3,1.1,11.2c-2.2,1.9-4.4,3.9-6.6,5.8c-1,0.9-2,1.7-3,2.6
				c-0.3,0.3-0.5,1.1-0.3,1.4c0.7,1.6,1.1,3.1,0.5,4.9c-0.3,0.9,0.3,2,0.3,3c0,1.4,1.2,1.4,1.9,1.8c9.2,5.6,16.5,13.2,22,22.4
				c2.1,3.6,3.8,7.5,5.6,11.3c3.8,8,5.7,16.5,6.4,25.3C166.5,137,167.1,138.7,168.9,140.1z"/>
			<path fill="#FFFFFF" d="M67.3,148c0.8-1.6,1.7-3.1,2.6-4.6c0.1,0.2,0.3,0.8,0.7,1.2c0.2,0.2,0.8,0.4,1.1,0.3c0.2,0,0.4-0.7,0.3-1
				c-0.2-0.6-0.5-1.3-0.8-1.9c-1.8-3.2-1.8-6.8-2.1-10.2c-0.6-6.6-0.4-13.1,1.5-19.6c1.4-4.9,3.5-9.4,6.6-13.5
				C83.9,90,92,82.9,101.5,77.4c0.5-0.3,1.1-0.4,1.7-0.4c5.7-0.1,11.4-0.1,17.2-0.2c1.9,0,3.6,0.1,5.3,1.3c3.4,2.3,7,4.3,10.3,6.7
				c4.8,3.6,8.7,8.3,12.2,13.2c2.8,4,5.4,8.2,7.1,12.8c1.1,3,1.9,6,3,9c2.2,5.9,2.5,12.1,3.4,18.2c0.3,2.2,1.3,4,3.1,5.5
				c0.7,0.5,1.4,1.1,1.9,1.8c1.6,2.4,0.6,4.9-2.3,5.3c-1.5,0.2-3.1,0-4.6,0c0-0.2-0.1-0.3-0.1-0.5c0.7-0.6,1.4-1.1,2-1.8
				c0.2-0.2,0.1-0.8,0.1-1.2c-0.4,0-1-0.2-1.2-0.1c-3.3,3-7.5,3.9-11.7,4.8c-13.3,2.7-26.7,4.8-40.3,4.9c-7.9,0.1-15.8-0.2-23.4-2.8
				c-2.7-0.9-5.2-2.6-7.9-3.8c-0.6-0.3-1.3-0.4-2-0.6c0.1,0.6,0.3,1.3,0.4,1.8c-2.1-0.2-4.5-0.3-6.9-0.6c-0.7-0.1-1.6-0.4-1.8-0.9
				C66.8,149.5,67,148.6,67.3,148z M132.1,127.2c1.8-4.6,0.2-9.9-3.9-12.6c-1.8-1.2-3.9-2-5.9-2.8c-1.4-0.6-2.9-0.9-4.3-1.3
				c0-2.9,0-5.6,0-8.3c2.5-0.2,4,1,4.4,3.5c0.2,1.1,0.6,1.3,1.5,1.3c1.7,0,3.3,0,5,0c1,0,2,0,3,0c-0.2-1.1-0.3-1.9-0.4-2.7
				c-0.8-5-6.4-9.2-11.2-9.1c-2.9,0-2.6,0-2.5-2.4c0-0.8-0.2-1.2-1.1-1.2c-0.7,0-1.4-0.1-2.1,0.1c-0.3,0-0.8,0.4-0.8,0.7
				c-0.2,0.8,0.1,2.1-0.4,2.5c-0.6,0.5-1.7,0.4-2.6,0.5c-0.4,0.1-0.8,0.1-1.2,0.2c-3.6,0.6-6.8,2.2-9,5.2
				c-3.3,4.6-2.4,12.4,3.4,15.4c2.4,1.3,5.2,2.1,7.8,2.9c0.9,0.3,1.1,0.6,1.1,1.5c0,2,0.1,4,0.2,6c0,0.7-0.2,1.4-0.3,2.1
				c-0.8-0.1-1.5-0.2-2.2-0.4c-0.4-0.2-0.8-0.6-1-1c-0.6-1.4-1.1-2.9-1.7-4.4c-3.2,0-6.5,0-9.9,0c0,3.2,0.8,6,2.8,8.3
				c1.9,2.3,4.4,4,7.5,4.4c1.6,0.2,3.1,0.6,4.8,0.9c0,1.5,0,3,0,4.6c1.4,0,2.7,0,4.3,0c-0.1-1-0.1-1.9-0.2-2.7c-0.2-2,0-2.3,2-2.4
				c0.2,0,0.5,0,0.7,0c3.8-0.2,7.2-1.5,9.8-4.2C131,130.5,131.5,128.8,132.1,127.2z"/>
		</g>
		<g>
		</g>
	</g>
</g>
<g>
	<path fill="#FFFFFF" d="M53.1,191.2v-15.8h4.4c0.3,0,0.7,0,1.2,0c0.4,0,0.8,0.1,1.2,0.2c0.4,0.1,0.8,0.2,1.2,0.4
		c0.4,0.2,0.7,0.4,0.9,0.7c0.4,0.5,0.7,1,0.8,1.6s0.2,1.2,0.2,1.8c0,0.4,0,0.9-0.1,1.3c-0.1,0.4-0.2,0.9-0.3,1.2
		c-0.2,0.4-0.4,0.7-0.6,1.1c-0.3,0.3-0.6,0.6-1,0.8c-0.3,0.2-0.7,0.3-1,0.3c-0.3,0.1-0.7,0.1-1,0.1c-0.4,0-0.7,0-1.1,0
		c-0.4,0-0.7,0-1.1,0v6.1H53.1z M56.8,182.2c0.3,0,0.7,0,1.1,0c0.4,0,0.7-0.1,1-0.4c0.2-0.2,0.3-0.5,0.4-0.7
		c0.1-0.3,0.1-0.6,0.1-0.9c0-0.2,0-0.3,0-0.5c0-0.2,0-0.4-0.1-0.5c0-0.2-0.1-0.3-0.2-0.5c-0.1-0.1-0.2-0.3-0.4-0.3
		c-0.2-0.1-0.4-0.1-0.6-0.1c-0.2,0-0.5,0-0.8,0h-0.4V182.2z"/>
	<path fill="#FFFFFF" d="M67.7,179.4v1.8h0c0.2-0.6,0.5-1.1,0.9-1.5c0.4-0.4,1-0.6,1.7-0.6v3.8c-0.2,0-0.3,0-0.5-0.1
		c-0.2,0-0.3,0-0.5,0c-0.5,0-0.8,0.1-1,0.2s-0.3,0.5-0.4,0.9v7.2h-3.3v-11.8H67.7z"/>
	<path fill="#FFFFFF" d="M71.5,183.1c0-0.8,0.1-1.4,0.3-1.9c0.2-0.5,0.5-0.9,0.9-1.2c0.4-0.3,0.8-0.5,1.4-0.7
		c0.5-0.1,1.1-0.2,1.8-0.2c1.5,0,2.6,0.3,3.3,1c0.7,0.7,1.1,1.7,1.1,3v4.8c-0.1,1.3-0.5,2.3-1.3,2.8c-0.8,0.6-1.8,0.8-3.1,0.8
		c-0.6,0-1.2-0.1-1.7-0.2s-1-0.3-1.4-0.6s-0.7-0.7-0.9-1.1c-0.2-0.5-0.3-1-0.3-1.7V183.1z M74.9,188.1c0,0.3,0.1,0.6,0.3,0.8
		c0.2,0.2,0.4,0.3,0.8,0.3c0.3,0,0.6-0.1,0.8-0.3c0.2-0.2,0.2-0.4,0.3-0.8v-5.2c0-0.4-0.1-0.7-0.2-1c-0.1-0.3-0.4-0.4-0.8-0.4
		c-0.4,0-0.7,0.1-0.8,0.4c-0.1,0.3-0.2,0.6-0.2,1V188.1z"/>
	<path fill="#FFFFFF" d="M87.7,175.5v2.4H87c-0.2,0-0.4,0-0.5,0.1c-0.1,0.1-0.2,0.2-0.2,0.3v1.2h1.4v2.4h-1.4v9.3h-3.3v-9.3h-1.3
		v-2.4h1.3v-1c0-1.1,0.3-1.9,0.9-2.3c0.6-0.4,1.4-0.7,2.5-0.7H87.7z M88.4,178.3v-2.8h3.3v2.8H88.4z M88.4,191.2v-11.8h3.3v11.8
		H88.4z"/>
	<path fill="#FFFFFF" d="M93.1,181.9v-2.4h1.3v-3.4h3.3v3.4h1.6v2.4h-1.6v6.2c0,0.3,0.1,0.6,0.2,0.7c0.1,0.1,0.3,0.2,0.5,0.2
		c0.2,0,0.3,0,0.4,0s0.2,0,0.4,0v2.4c-0.4,0.1-0.7,0.1-1.1,0.1c-0.4,0-0.7,0.1-1.1,0.1c-0.9,0-1.6-0.2-2.1-0.7
		c-0.5-0.5-0.7-1.1-0.7-2v-6.8H93.1z"/>
	<path fill="#FFFFFF" d="M106.1,191.2v-15.8h5.2l1.9,9.3h0l2-9.3h5.2v15.8h-3.5l0.4-12.3h0l-2.6,12.3h-2.8l-2.5-12.3h0l0.3,12.3
		H106.1z"/>
	<path fill="#FFFFFF" d="M122.3,183.1c0-0.8,0.1-1.4,0.3-1.9c0.2-0.5,0.5-0.9,0.9-1.2c0.4-0.3,0.8-0.5,1.4-0.7
		c0.5-0.1,1.1-0.2,1.8-0.2c1.5,0,2.6,0.3,3.3,1c0.7,0.7,1.1,1.7,1.1,3v4.8c-0.1,1.3-0.5,2.3-1.3,2.8c-0.8,0.6-1.8,0.8-3.1,0.8
		c-0.6,0-1.2-0.1-1.7-0.2s-1-0.3-1.4-0.6s-0.7-0.7-0.9-1.1c-0.2-0.5-0.3-1-0.3-1.7V183.1z M125.6,188.1c0,0.3,0.1,0.6,0.3,0.8
		c0.2,0.2,0.4,0.3,0.8,0.3c0.3,0,0.6-0.1,0.8-0.3c0.2-0.2,0.2-0.4,0.3-0.8v-5.2c0-0.4-0.1-0.7-0.2-1c-0.1-0.3-0.4-0.4-0.8-0.4
		c-0.4,0-0.7,0.1-0.8,0.4c-0.1,0.3-0.2,0.6-0.2,1V188.1z"/>
	<path fill="#FFFFFF" d="M132.2,181.9v-2.4h1.3v-3.4h3.3v3.4h1.6v2.4h-1.6v6.2c0,0.3,0.1,0.6,0.2,0.7c0.1,0.1,0.3,0.2,0.5,0.2
		c0.2,0,0.3,0,0.4,0s0.2,0,0.4,0v2.4c-0.4,0.1-0.7,0.1-1.1,0.1c-0.4,0-0.7,0.1-1.1,0.1c-0.9,0-1.6-0.2-2.1-0.7
		c-0.5-0.5-0.7-1.1-0.7-2v-6.8H132.2z"/>
	<path fill="#FFFFFF" d="M140.2,178.3v-2.8h3.3v2.8H140.2z M140.2,191.2v-11.8h3.3v11.8H140.2z"/>
	<path fill="#FFFFFF" d="M149.4,187.1L149.4,187.1l1.2-7.6h3.3l-2.6,11.8h-3.8l-2.6-11.8h3.4L149.4,187.1z"/>
	<path fill="#FFFFFF" d="M158.2,185.9v2.1c0,0.3,0.1,0.6,0.2,0.8c0.2,0.2,0.4,0.4,0.8,0.4c0.3,0,0.5,0,0.7-0.2
		c0.2-0.1,0.3-0.3,0.3-0.5c0.1-0.2,0.1-0.4,0.1-0.7c0-0.2,0-0.5,0-0.7h3.3c0.1,1.5-0.3,2.6-1,3.3c-0.8,0.7-1.9,1.1-3.3,1.1
		c-0.6,0-1.2-0.1-1.7-0.2c-0.5-0.1-1-0.3-1.4-0.6c-0.4-0.3-0.7-0.7-1-1.1c-0.2-0.5-0.4-1-0.4-1.7v-4.8c0-0.8,0.1-1.4,0.3-1.9
		c0.2-0.5,0.5-0.9,0.9-1.2c0.4-0.3,0.9-0.5,1.4-0.7c0.6-0.1,1.2-0.2,1.8-0.2c0.6,0,1.2,0.1,1.7,0.2s1,0.3,1.4,0.6
		c0.4,0.3,0.7,0.6,1,1.1c0.3,0.4,0.4,1,0.4,1.6v3.4H158.2z M160.5,183.7v-1.2c0-0.1,0-0.2-0.1-0.4c0-0.1-0.1-0.3-0.2-0.4
		c-0.1-0.1-0.2-0.2-0.4-0.3s-0.3-0.1-0.5-0.1c-0.5,0-0.8,0.2-0.9,0.5c-0.2,0.3-0.2,0.7-0.2,1.1v0.8H160.5z"/>
	<path fill="#FFFFFF" d="M170.4,182.9c0-0.2,0-0.4-0.1-0.6c0-0.2-0.1-0.4-0.1-0.5c-0.1-0.2-0.2-0.3-0.3-0.4
		c-0.1-0.1-0.3-0.1-0.6-0.1c-0.3,0-0.6,0.1-0.8,0.2c-0.2,0.2-0.3,0.4-0.3,0.8c0,0.3,0.1,0.6,0.3,0.7c0.2,0.2,0.5,0.3,0.7,0.5
		c0.5,0.3,1.1,0.5,1.6,0.7s1,0.5,1.4,0.8c0.4,0.3,0.8,0.7,1,1.1c0.3,0.4,0.4,1,0.4,1.7c0,0.7-0.1,1.2-0.3,1.7s-0.5,0.9-1,1.2
		c-0.4,0.3-0.9,0.5-1.4,0.7c-0.5,0.1-1.1,0.2-1.7,0.2c-0.7,0-1.3-0.1-1.8-0.2c-0.6-0.1-1-0.4-1.4-0.7c-0.4-0.3-0.7-0.7-0.9-1.2
		c-0.2-0.5-0.3-1.1-0.3-1.8h3.2c0,0.2,0,0.4,0,0.6s0.1,0.4,0.2,0.6c0.1,0.2,0.2,0.3,0.4,0.4c0.2,0.1,0.4,0.2,0.6,0.2
		c0.4,0,0.7-0.1,0.9-0.3c0.2-0.2,0.3-0.5,0.3-0.8s-0.1-0.7-0.4-0.9c-0.3-0.2-0.7-0.4-1.1-0.5c-0.4-0.2-0.8-0.3-1.2-0.5
		c-0.4-0.2-0.8-0.4-1.1-0.6c-0.4-0.2-0.7-0.5-0.9-0.8c-0.6-0.6-0.8-1.4-0.8-2.2c0-0.6,0.1-1.2,0.3-1.6s0.5-0.8,0.9-1.1
		s0.9-0.5,1.4-0.7c0.5-0.1,1.1-0.2,1.7-0.2c0.6,0,1.2,0.1,1.7,0.2c0.5,0.2,1,0.4,1.4,0.7c0.4,0.3,0.7,0.7,0.9,1.2
		c0.2,0.5,0.3,1,0.3,1.7H170.4z"/>
</g>
</svg>
