<!-- Generator: Adobe Illustrator 19.1.0, SVG Export Plug-In  -->
<svg version="1.1"
	 xmlns="http://www.w3.org/2000/svg" xmlns:xlink="http://www.w3.org/1999/xlink" xmlns:a="http://ns.adobe.com/AdobeSVGViewerExtensions/3.0/"
	 x="0px" y="0px" width="225.9px" height="225.9px" viewBox="0 0 225.9 225.9" enable-background="new 0 0 225.9 225.9"
	 xml:space="preserve">
<defs>
</defs>
<rect fill="#D71921" width="225.9" height="225.9"/>
<g opacity="0.75">
	<path fill="#FFFFFF" d="M216.2,216.2H9.7V9.7h206.5L216.2,216.2L216.2,216.2z M11.7,214.2h202.5V11.7H11.7V214.2z"/>
</g>
<g>
	<polygon fill="#FFFFFF" points="104.2,37.7 91.4,45.9 91.6,62.7 91,77 97.4,87.3 100.3,99.3 96,108.9 72,119.7 66,133.7 
		86.1,138.7 111.7,138.7 111.7,37.7 	"/>
	<path fill="#3B4552" d="M160.5,136.4c-0.1-9.7-4-16.8-12.3-21.2c-4.6-2.4-9.4-4.6-14.3-6.4c-6-2.2-8.9-6-8-12.4
		c0.2-0.9,0.3-1.8,0.6-2.6c1.4-3.1,2.7-6.1,4.2-9.2c0.3-0.8,0.7-1.6,1.3-2.1c3.4-2.6,4.8-8.1,3.1-12c-0.4-1-0.5-2.4-0.3-3.5
		c0.5-4.5,1.5-9,1.5-13.6c0-5.6-1.7-10.8-6.9-14c-2.9-1.8-6-3.4-9-4.9c-4.2-2-8.6-1.9-13-1.4c-10.3,0.9-17.5,7.2-19.2,17
		c-1,5.9-0.2,11.5,0.9,17.1c0.2,0.9,0.1,2-0.3,2.9c-2,4-1.4,8.3,1.4,11.1c2,2.2,2.7,4.5,3.7,7c0.5,1.3,1,2.8,1.9,3.7
		c2,2.1,1.6,4.7,1.9,7.3c0.4,4.5-1.9,7-5.5,8.6c-3.7,1.6-7.4,3.2-11.1,4.8c-5.1,2.2-10,4.8-13.5,9.3c-3.3,4.3-4.4,9.2-4.4,14.6l0,0
		l0,0c0,3.2,21.9,5.7,48.8,5.7C138.6,142.1,160.5,139.5,160.5,136.4L160.5,136.4L160.5,136.4z M94.3,136.4c-0.3,0-0.6,0-0.9-0.1
		c-0.2,0-0.3,0-0.5,0c-0.3,0-0.6,0-0.9-0.1c-0.2,0-0.3,0-0.5,0c-0.3,0-0.6,0-0.9-0.1c-0.2,0-0.3,0-0.5,0c-0.3,0-0.6-0.1-0.9-0.1
		c-0.2,0-0.3,0-0.5,0c-0.3,0-0.5-0.1-0.9-0.1c-0.2,0-0.3,0-0.4,0c-0.3,0-0.5-0.1-0.8-0.1c-0.2,0-0.3,0-0.4-0.1
		c-0.3,0-0.5-0.1-0.8-0.1c-0.2,0-0.3,0-0.4,0c-0.9-0.1-1.9-0.2-2.7-0.3c-0.1,0-0.3,0-0.3-0.1c-0.3,0-0.4-0.1-0.6-0.1s-0.3,0-0.5-0.1
		c-0.2,0-0.3-0.1-0.6-0.1c-0.2,0-0.3-0.1-0.5-0.1s-0.3-0.1-0.5-0.1s-0.3-0.1-0.5-0.1s-0.3-0.1-0.5-0.1s-0.3-0.1-0.5-0.1
		s-0.3-0.1-0.4-0.1c-0.2,0-0.3-0.1-0.4-0.1c-0.2,0-0.3-0.1-0.4-0.1c-0.2,0-0.3-0.1-0.4-0.1c-0.2,0-0.3-0.1-0.4-0.1s-0.3-0.1-0.4-0.1
		s-0.3-0.1-0.4-0.1c-0.2,0-0.3-0.1-0.4-0.1s-0.3-0.1-0.3-0.1c-0.2,0-0.3-0.1-0.4-0.1s-0.3-0.1-0.3-0.1c-0.2,0-0.3-0.1-0.4-0.1
		s-0.2-0.1-0.3-0.1c-0.2,0-0.3-0.1-0.4-0.1s-0.2-0.1-0.3-0.1c-0.2-0.1-0.3-0.1-0.5-0.2c-1.6-0.6-2.6-1.2-2.7-1.8c-0.1,0-0.1,0-0.2,0
		c0.4-3.5,1.7-6.6,4.4-8.5c3.3-2.4,7-4.3,10.6-6.2c4.5-2.4,9.4-4.2,13.9-6.6c3.3-1.9,4.9-5,4.9-8.9c0-1.1,0.1-2.2,0.1-3.3
		c0-2.8,0-5.3-2.2-7.9c-2.2-2.7-2.9-6.6-4.4-10.4c-1.6,0-2.6-1.3-3-3.4c-0.5-2.2-0.6-4.1,1.5-4.9c-0.7-5.5-1.5-10.7-1.8-16
		c-0.1-2.8,0.6-5.9,1.7-8.5c2.6-6.3,8.3-8.2,14.5-8.6c2.9-0.2,6.1-0.2,8.6,0.9c3.1,1.4,6.2,3.1,9.3,4.7c3.7,2,4.7,6,4.4,9.9
		c-0.3,5-1.2,10-2,15c-0.3,1.4-0.4,2.1,0.8,3.4c0.9,1,0.7,3.4,0.3,5c-0.3,1.1-1.7,2-2.9,3.2c-1.3,3.2-2.6,6.6-4.1,10.1
		c-0.5,1.1-2,2.1-1.9,3.2c0.1,4.3-1.1,8.9,1.3,13c1.9,3.2,5,5,8.3,6.5c4.9,2.2,10,4.3,14.9,6.6s8.2,6.1,9,11.8c-0.1,0-0.1,0-0.2,0
		c-0.2,0.7-1.1,1.3-2.7,1.8c-0.2,0.1-0.3,0.1-0.5,0.2c-0.1,0-0.2,0.1-0.3,0.1c-0.2,0-0.3,0.1-0.4,0.1s-0.2,0.1-0.3,0.1
		c-0.2,0-0.3,0.1-0.4,0.1s-0.3,0.1-0.3,0.1c-0.2,0-0.3,0.1-0.4,0.1s-0.3,0.1-0.3,0.1c-0.2,0-0.3,0.1-0.4,0.1s-0.3,0.1-0.4,0.1
		s-0.3,0.1-0.4,0.1c-0.2,0-0.3,0.1-0.4,0.1c-0.2,0-0.3,0.1-0.4,0.1c-0.2,0-0.3,0.1-0.4,0.1s-0.3,0.1-0.4,0.1c-0.2,0-0.3,0.1-0.4,0.1
		c-0.2,0-0.3,0.1-0.5,0.1s-0.3,0.1-0.5,0.1s-0.3,0.1-0.5,0.1s-0.3,0.1-0.5,0.1s-0.3,0.1-0.5,0.1s-0.3,0.1-0.6,0.1
		c-0.2,0-0.3,0-0.5,0.1c-0.2,0-0.4,0.1-0.6,0.1c-0.1,0-0.3,0-0.3,0c-0.9,0.1-1.8,0.2-2.7,0.3c-0.2,0-0.3,0-0.4,0
		c-0.3,0-0.5,0.1-0.8,0.1c-0.2,0-0.3,0-0.4,0.1c-0.3,0-0.5,0.1-0.8,0.1c-0.2,0-0.3,0-0.4,0c-0.3,0-0.5,0.1-0.9,0.1
		c-0.2,0-0.3,0-0.5,0c-0.3,0-0.5,0.1-0.9,0.1c-0.2,0-0.3,0-0.5,0c-0.3,0-0.6,0-0.9,0.1c-0.2,0-0.3,0-0.5,0c-0.3,0-0.6,0-0.9,0.1
		c-0.2,0-0.3,0-0.5,0c-0.3,0-0.6,0-0.9,0.1c-5.3,0.3-11.2,0.5-17.4,0.5C105.9,136.9,99.6,136.7,94.3,136.4z M111.7,37.7v100.9h25.6
		l20-5l-6-14l-24-10.7l-4.3-9.5l2.9-12.1l6.3-10.4l-0.4-14.2l0.3-16.8l-12.9-8.2L111.7,37.7L111.7,37.7z"/>
</g>
<g>
	<path fill="#FFFFFF" d="M47.2,171.1h-3.7v-15.8h5.4c1.5,0,2.7,0.3,3.4,1c0.7,0.7,1.1,1.8,1.1,3.3c0,0.8-0.1,1.6-0.4,2.2
		c-0.3,0.6-0.8,1.1-1.6,1.4l0,0c0.5,0.1,0.9,0.3,1.3,0.7s0.5,0.8,0.5,1.3c0,0.3,0.1,0.7,0.1,1.2s0,0.9,0.1,1.4c0,0.5,0,0.9,0.1,1.4
		c0,0.4,0.1,0.8,0.1,1c0.1,0.2,0.2,0.4,0.4,0.5v0.2h-4c-0.1-0.2-0.1-0.3-0.1-0.5c0-0.1-0.1-0.3-0.1-0.5c0-0.7,0-1.4,0-2
		s0-1.2-0.1-1.7s-0.2-0.9-0.3-1.2c-0.2-0.3-0.5-0.5-0.9-0.5h-1.2L47.2,171.1L47.2,171.1L47.2,171.1z M47.2,162.1h1.3
		c0.3,0,0.5-0.1,0.7-0.2c0.2-0.1,0.3-0.3,0.4-0.4c0.1-0.2,0.2-0.4,0.2-0.6c0-0.2,0.1-0.5,0.1-0.7c0-0.5,0-0.8-0.1-1.1
		s-0.3-0.5-0.5-0.6s-0.5-0.2-0.8-0.2s-0.7,0-1.2,0v3.8H47.2z"/>
	<path fill="#FFFFFF" d="M60.9,170.1c-0.4,0.5-0.8,0.8-1.3,1.1c-0.4,0.2-1,0.4-1.6,0.4c-1,0-1.7-0.3-2.2-0.9s-0.8-1.3-0.8-2.3
		c0-0.7,0.1-1.2,0.3-1.7s0.4-0.8,0.7-1.1c0.3-0.3,0.6-0.5,0.9-0.7s0.7-0.3,1.1-0.5s0.7-0.2,1.1-0.3c0.3-0.1,0.7-0.2,0.9-0.3
		c0.3-0.1,0.5-0.3,0.7-0.5s0.3-0.4,0.3-0.8c0-0.4-0.1-0.6-0.3-0.9c-0.2-0.2-0.4-0.4-0.8-0.4c-0.3,0-0.5,0-0.7,0.1s-0.3,0.2-0.4,0.4
		s-0.1,0.4-0.2,0.6c0,0.2,0,0.5-0.1,0.7h-3.3c0-0.7,0-1.4,0.3-1.9c0.2-0.5,0.5-0.9,0.9-1.3c0.4-0.3,0.9-0.6,1.5-0.7
		c0.6-0.1,1.2-0.2,1.9-0.2c0.8,0,1.5,0.1,2.1,0.2c0.6,0.1,1,0.3,1.4,0.6s0.6,0.7,0.8,1.1c0.2,0.5,0.2,1,0.2,1.6v7.2
		c0,0.2,0,0.4,0.1,0.7c0.1,0.2,0.1,0.4,0.2,0.6h-3.3L60.9,170.1z M60.6,165.4c-0.3,0.2-0.6,0.3-0.9,0.5c-0.3,0.1-0.5,0.3-0.7,0.4
		c-0.2,0.2-0.4,0.3-0.5,0.6c-0.2,0.2-0.2,0.5-0.2,0.9s0.1,0.7,0.3,0.9c0.2,0.2,0.5,0.4,0.9,0.4c0.3,0,0.5-0.1,0.6-0.2
		c0.2-0.1,0.3-0.3,0.4-0.4c0.1-0.2,0.2-0.4,0.2-0.6s0.1-0.4,0.1-0.6v-1.9L60.6,165.4L60.6,165.4z"/>
	<path fill="#FFFFFF" d="M71.2,163.7v-0.2c0-0.2,0-0.4-0.1-0.7c0-0.2,0-0.4-0.1-0.7c-0.1-0.2-0.2-0.4-0.3-0.5
		c-0.1-0.1-0.3-0.2-0.6-0.2c-0.4,0-0.7,0.1-0.8,0.4s-0.2,0.6-0.2,1v4.9c0,0.4,0.1,0.7,0.2,1s0.4,0.4,0.9,0.4c0.3,0,0.5-0.1,0.7-0.3
		s0.2-0.4,0.3-0.7c0-0.3,0.1-0.6,0.1-0.9c0-0.3,0-0.6,0-0.8h3.2c0,0.2,0,0.4,0,0.6c0,0.3,0,0.5-0.1,0.8c0,0.3,0,0.5-0.1,0.8
		c0,0.2-0.1,0.4-0.1,0.6c-0.2,0.7-0.6,1.3-1.2,1.6c-0.6,0.4-1.2,0.6-2,0.6c-0.2,0-0.3,0-0.5,0s-0.4,0-0.6,0c-0.6,0-1.2-0.1-1.7-0.2
		c-0.5-0.1-0.9-0.3-1.3-0.6s-0.7-0.7-0.9-1.1c-0.2-0.5-0.3-1-0.3-1.7V163c0-0.8,0.1-1.4,0.3-1.9c0.2-0.5,0.5-0.9,0.8-1.2
		c0.4-0.3,0.8-0.5,1.3-0.7c0.5-0.1,1.1-0.2,1.7-0.2c1.7,0,2.8,0.4,3.5,1.2s1,1.9,0.9,3.5L71.2,163.7L71.2,163.7z"/>
	<path fill="#FFFFFF" d="M76.6,158.2v-2.8h3.3v2.8H76.6z M76.6,171.1v-11.8h3.3v11.8H76.6z"/>
	<path fill="#FFFFFF" d="M87.6,170.1c-0.4,0.5-0.8,0.8-1.3,1.1c-0.4,0.2-1,0.4-1.6,0.4c-1,0-1.7-0.3-2.2-0.9s-0.8-1.3-0.8-2.3
		c0-0.7,0.1-1.2,0.3-1.7c0.2-0.5,0.4-0.8,0.7-1.1c0.3-0.3,0.6-0.5,0.9-0.7s0.7-0.3,1.1-0.5s0.7-0.2,1.1-0.3c0.3-0.1,0.7-0.2,0.9-0.3
		c0.3-0.1,0.5-0.3,0.7-0.5s0.3-0.4,0.3-0.8c0-0.4-0.1-0.6-0.3-0.9c-0.2-0.2-0.4-0.4-0.8-0.4c-0.3,0-0.5,0-0.7,0.1s-0.3,0.2-0.4,0.4
		s-0.1,0.4-0.2,0.6c0,0.2,0,0.5-0.1,0.7h-3.3c0-0.7,0-1.4,0.3-1.9c0.2-0.5,0.5-0.9,0.9-1.3c0.4-0.3,0.9-0.6,1.5-0.7
		c0.6-0.1,1.2-0.2,1.9-0.2c0.8,0,1.5,0.1,2.1,0.2c0.6,0.1,1,0.3,1.4,0.6s0.6,0.7,0.8,1.1c0.2,0.5,0.2,1,0.2,1.6v7.2
		c0,0.2,0,0.4,0.1,0.7c0.1,0.2,0.1,0.4,0.2,0.6H88L87.6,170.1z M87.5,165.4c-0.3,0.2-0.6,0.3-0.9,0.5c-0.3,0.1-0.5,0.3-0.7,0.4
		c-0.2,0.2-0.4,0.3-0.5,0.6c-0.2,0.2-0.2,0.5-0.2,0.9s0.1,0.7,0.3,0.9c0.2,0.2,0.5,0.4,0.9,0.4c0.3,0,0.5-0.1,0.6-0.2
		c0.2-0.1,0.3-0.3,0.4-0.4c0.1-0.2,0.2-0.4,0.2-0.6s0.1-0.4,0.1-0.6v-1.9L87.5,165.4L87.5,165.4z"/>
	<path fill="#FFFFFF" d="M93,171.1v-15.8h3.3v15.8H93z"/>
	<path fill="#FFFFFF" d="M101.6,173.1l4.7-17.7h2.3l-4.8,17.7H101.6z"/>
	<path fill="#FFFFFF" d="M114.1,171.1v-15.8h4.4c0.3,0,0.7,0,1.2,0s0.8,0.1,1.2,0.2c0.4,0.1,0.8,0.2,1.2,0.4s0.7,0.4,0.9,0.7
		c0.4,0.5,0.7,1,0.8,1.6c0.1,0.6,0.2,1.2,0.2,1.8c0,0.4,0,0.9-0.1,1.3c-0.1,0.4-0.2,0.9-0.3,1.2c-0.2,0.4-0.4,0.7-0.6,1.1
		c-0.2,0.4-0.6,0.6-1,0.8c-0.3,0.2-0.7,0.3-1,0.3c-0.3,0.1-0.7,0.1-1,0.1c-0.4,0-0.7,0-1.1,0s-0.7,0-1.1,0v6.1h-3.7V171.1z
		 M117.8,162.2c0.3,0,0.7,0,1.1,0s0.7-0.1,1-0.4c0.2-0.2,0.3-0.5,0.4-0.7c0.1-0.3,0.1-0.6,0.1-0.9c0-0.2,0-0.3,0-0.5s0-0.4-0.1-0.5
		s-0.1-0.3-0.2-0.5c-0.1-0.1-0.2-0.3-0.4-0.3c-0.2-0.1-0.4-0.1-0.6-0.1s-0.5,0-0.8,0h-0.4v3.9H117.8z"/>
	<path fill="#FFFFFF" d="M125.6,163.1c0-0.8,0.1-1.4,0.3-1.9c0.2-0.5,0.5-0.9,0.9-1.2s0.8-0.5,1.4-0.7c0.5-0.1,1.1-0.2,1.8-0.2
		c1.5,0,2.6,0.3,3.3,1c0.7,0.7,1.1,1.7,1.1,3v4.8c-0.1,1.3-0.5,2.3-1.3,2.8c-0.8,0.6-1.8,0.8-3.1,0.8c-0.6,0-1.2-0.1-1.7-0.2
		s-1-0.3-1.4-0.6s-0.7-0.7-0.9-1.1c-0.2-0.5-0.3-1-0.3-1.7L125.6,163.1L125.6,163.1L125.6,163.1z M128.9,168.1
		c0,0.3,0.1,0.6,0.3,0.8c0.2,0.2,0.4,0.3,0.8,0.3c0.3,0,0.6-0.1,0.8-0.3c0.2-0.2,0.2-0.4,0.3-0.8v-5.2c0-0.4-0.1-0.7-0.2-1
		s-0.4-0.4-0.8-0.4s-0.7,0.1-0.8,0.4c-0.1,0.3-0.2,0.6-0.2,1v5.2H128.9z"/>
	<path fill="#FFFFFF" d="M136.5,171.1v-15.8h3.3v15.8H136.5z"/>
	<path fill="#FFFFFF" d="M141.3,161.8v-2.4h1.3V156h3.3v3.4h1.6v2.4H146v6.2c0,0.3,0.1,0.6,0.2,0.7c0.1,0.1,0.3,0.2,0.5,0.2
		s0.3,0,0.4,0s0.2,0,0.4,0v2.4c-0.4,0.1-0.7,0.1-1.1,0.1s-0.7,0.1-1.1,0.1c-0.9,0-1.6-0.2-2.1-0.7s-0.7-1.1-0.7-2V162h-1.2
		L141.3,161.8L141.3,161.8z"/>
	<path fill="#FFFFFF" d="M149.3,158.2v-2.8h3.3v2.8H149.3z M149.3,171.1v-11.8h3.3v11.8H149.3z"/>
	<path fill="#FFFFFF" d="M160.3,163.7v-0.2c0-0.2,0-0.4-0.1-0.7c0-0.2,0-0.4-0.1-0.7c-0.1-0.2-0.2-0.4-0.3-0.5
		c-0.1-0.1-0.3-0.2-0.6-0.2c-0.4,0-0.7,0.1-0.8,0.4s-0.2,0.6-0.2,1v4.9c0,0.4,0.1,0.7,0.2,1s0.4,0.4,0.9,0.4c0.3,0,0.5-0.1,0.7-0.3
		c0.1-0.2,0.2-0.4,0.3-0.7c0-0.3,0.1-0.6,0.1-0.9c0-0.3,0-0.6,0-0.8h3.2c0,0.2,0,0.4,0,0.6c0,0.3,0,0.5-0.1,0.8c0,0.3,0,0.5-0.1,0.8
		c0,0.2-0.1,0.4-0.1,0.6c-0.2,0.7-0.6,1.3-1.2,1.6c-0.6,0.4-1.2,0.6-2,0.6c-0.2,0-0.3,0-0.5,0s-0.4,0-0.6,0c-0.6,0-1.2-0.1-1.7-0.2
		c-0.5-0.1-0.9-0.3-1.3-0.6s-0.7-0.7-0.9-1.1c-0.2-0.5-0.3-1-0.3-1.7V163c0-0.8,0.1-1.4,0.3-1.9c0.2-0.5,0.5-0.9,0.8-1.2
		c0.4-0.3,0.8-0.5,1.3-0.7c0.5-0.1,1.1-0.2,1.7-0.2c1.7,0,2.8,0.4,3.5,1.2c0.7,0.7,1,1.9,0.9,3.5L160.3,163.7L160.3,163.7z"/>
	<path fill="#FFFFFF" d="M170.8,170.1c-0.4,0.5-0.8,0.8-1.3,1.1c-0.4,0.2-1,0.4-1.6,0.4c-1,0-1.7-0.3-2.2-0.9s-0.8-1.3-0.8-2.3
		c0-0.7,0.1-1.2,0.3-1.7c0.2-0.5,0.4-0.8,0.7-1.1c0.3-0.3,0.6-0.5,0.9-0.7s0.7-0.3,1.1-0.5s0.7-0.2,1.1-0.3c0.3-0.1,0.7-0.2,0.9-0.3
		c0.3-0.1,0.5-0.3,0.7-0.5s0.3-0.4,0.3-0.8c0-0.4-0.1-0.6-0.3-0.9c-0.2-0.2-0.4-0.4-0.8-0.4c-0.3,0-0.5,0-0.7,0.1s-0.3,0.2-0.4,0.4
		s-0.1,0.4-0.2,0.6c0,0.2,0,0.5-0.1,0.7H165c0-0.7,0-1.4,0.3-1.9c0.2-0.5,0.5-0.9,0.9-1.3c0.4-0.3,0.9-0.6,1.5-0.7
		c0.6-0.1,1.2-0.2,1.9-0.2c0.8,0,1.5,0.1,2.1,0.2c0.6,0.1,1,0.3,1.4,0.6s0.6,0.7,0.8,1.1c0.2,0.5,0.2,1,0.2,1.6v7.2
		c0,0.2,0,0.4,0.1,0.7s0.1,0.4,0.2,0.6h-3.3L170.8,170.1z M170.7,165.4c-0.3,0.2-0.6,0.3-0.9,0.5s-0.5,0.3-0.7,0.4
		c-0.2,0.2-0.4,0.3-0.5,0.6c-0.2,0.2-0.2,0.5-0.2,0.9s0.1,0.7,0.3,0.9c0.2,0.2,0.5,0.4,0.9,0.4c0.3,0,0.5-0.1,0.6-0.2
		c0.1-0.1,0.3-0.3,0.4-0.4c0.1-0.2,0.2-0.4,0.2-0.6s0.1-0.4,0.1-0.6v-1.9L170.7,165.4L170.7,165.4z"/>
	<path fill="#FFFFFF" d="M176.1,171.1v-15.8h3.3v15.8H176.1z"/>
	<path fill="#FFFFFF" d="M87.1,186.1v-1c0-0.7-0.1-1.2-0.3-1.5c-0.2-0.3-0.5-0.5-0.9-0.5c-0.6,0-1,0.1-1.1,0.4
		c-0.1,0.3-0.3,0.7-0.3,1.2v7.8c0,0.4,0.1,0.8,0.3,1s0.5,0.4,1,0.4c0.3,0,0.6-0.1,0.7-0.2c0.2-0.1,0.3-0.3,0.4-0.6
		c0.1-0.2,0.2-0.5,0.2-0.7c0-0.3,0-0.5,0-0.8v-1.4h3.7v1.9c0,0.7-0.1,1.3-0.3,1.9c-0.2,0.6-0.5,1.1-0.9,1.5s-1,0.7-1.7,0.9
		s-1.5,0.3-2.4,0.3s-1.6-0.1-2.2-0.3s-1.1-0.5-1.5-1s-0.7-1-0.8-1.6c-0.2-0.6-0.3-1.3-0.3-2.1v-6.5c0-1.7,0.4-3,1.2-3.8
		c0.8-0.8,2.1-1.2,3.7-1.2c0.8,0,1.5,0.1,2.1,0.3s1.2,0.4,1.6,0.8c0.4,0.4,0.8,0.8,1,1.4c0.2,0.6,0.3,1.3,0.3,2.1v1.3L87.1,186.1
		L87.1,186.1z"/>
	<path fill="#FFFFFF" d="M92.6,188.3c0-0.8,0.1-1.4,0.3-1.9c0.2-0.5,0.5-0.9,0.9-1.2s0.8-0.5,1.4-0.7c0.5-0.1,1.1-0.2,1.8-0.2
		c1.5,0,2.6,0.3,3.3,1c0.7,0.7,1.1,1.7,1.1,3v4.8c-0.1,1.3-0.5,2.3-1.3,2.8c-0.8,0.6-1.8,0.8-3.1,0.8c-0.6,0-1.2-0.1-1.7-0.2
		c-0.5-0.1-1-0.3-1.4-0.6s-0.7-0.7-0.9-1.1c-0.2-0.4-0.3-1-0.3-1.7L92.6,188.3L92.6,188.3L92.6,188.3z M95.9,193.3
		c0,0.3,0.1,0.6,0.3,0.8c0.2,0.2,0.4,0.3,0.8,0.3c0.3,0,0.6-0.1,0.8-0.3c0.2-0.2,0.2-0.4,0.3-0.8v-5.2c0-0.4-0.1-0.7-0.2-1
		s-0.4-0.4-0.8-0.4s-0.7,0.1-0.8,0.4c-0.1,0.3-0.2,0.6-0.2,1v5.2H95.9z"/>
	<path fill="#FFFFFF" d="M106.3,184.6v1.5l0,0c0.1-0.2,0.2-0.4,0.4-0.7c0.2-0.2,0.3-0.4,0.5-0.6c0.2-0.2,0.4-0.3,0.7-0.4
		c0.2-0.1,0.5-0.2,0.8-0.2c0.4,0,0.8,0.1,1.1,0.2c0.4,0.1,0.7,0.3,1,0.5s0.5,0.5,0.7,0.8s0.2,0.7,0.2,1v9.6h-3.3v-8.4
		c0-0.3-0.1-0.5-0.2-0.7s-0.3-0.3-0.7-0.3c-0.6,0-0.9,0.3-0.9,1v8.4h-3.3v-11.8h3L106.3,184.6L106.3,184.6z"/>
	<path fill="#FFFFFF" d="M113,187v-2.4h1.3v-3.4h3.3v3.4h1.6v2.4h-1.6v6.2c0,0.3,0.1,0.6,0.2,0.7c0.1,0.1,0.3,0.2,0.5,0.2
		s0.3,0,0.4,0s0.2,0,0.4,0v2.4c-0.4,0.1-0.7,0.1-1.1,0.1s-0.7,0.1-1.1,0.1c-0.9,0-1.6-0.2-2.1-0.7s-0.7-1.1-0.7-2v-6.8H113L113,187
		L113,187z"/>
	<path fill="#FFFFFF" d="M123.7,184.6v1.8l0,0c0.2-0.6,0.5-1.1,0.9-1.5s1-0.6,1.7-0.6v3.8c-0.2,0-0.3,0-0.5-0.1s-0.3,0-0.5,0
		c-0.5,0-0.8,0.1-1,0.2c-0.2,0.1-0.3,0.5-0.4,0.9v7.2h-3.3v-11.8L123.7,184.6L123.7,184.6L123.7,184.6z"/>
	<path fill="#FFFFFF" d="M127.6,188.3c0-0.8,0.1-1.4,0.3-1.9c0.2-0.5,0.5-0.9,0.9-1.2s0.8-0.5,1.4-0.7c0.5-0.1,1.1-0.2,1.8-0.2
		c1.5,0,2.6,0.3,3.3,1c0.7,0.7,1.1,1.7,1.1,3v4.8c-0.1,1.3-0.5,2.3-1.3,2.8c-0.8,0.6-1.8,0.8-3.1,0.8c-0.6,0-1.2-0.1-1.7-0.2
		c-0.5-0.1-1-0.3-1.4-0.6s-0.7-0.7-0.9-1.1c-0.2-0.5-0.3-1-0.3-1.7L127.6,188.3L127.6,188.3L127.6,188.3z M130.9,193.3
		c0,0.3,0.1,0.6,0.3,0.8c0.2,0.2,0.4,0.3,0.8,0.3s0.6-0.1,0.8-0.3c0.2-0.2,0.2-0.4,0.3-0.8v-5.2c0-0.4-0.1-0.7-0.2-1
		s-0.4-0.4-0.8-0.4s-0.7,0.1-0.8,0.4c-0.1,0.3-0.2,0.6-0.2,1v5.2H130.9z"/>
	<path fill="#FFFFFF" d="M138.5,196.3v-15.8h3.3v15.8H138.5z"/>
</g>
</svg>
